ISO-10303-21;
HEADER;
FILE_DESCRIPTION (( 'STEP AP214' ),
    '1' );
FILE_NAME ('nikon_mrd70270_20x0.8_air_objective.STEP',
    '2026-06-11T16:19:22',
    ( '' ),
    ( '' ),
    'SwSTEP 2.0',
    'SolidWorks 2025',
    '' );
FILE_SCHEMA (( 'AUTOMOTIVE_DESIGN' ));
ENDSEC;

DATA;
#1 = ORIENTED_EDGE ( 'NONE', *, *, #499, .F. ) ;
#2 = ORIENTED_EDGE ( 'NONE', *, *, #675, .T. ) ;
#3 = DIRECTION ( 'NONE',  ( -0.000000000000000000, 1.000000000000000000, 3.061616997868383141E-16 ) ) ;
#4 = EDGE_CURVE ( 'NONE', #936, #278, #141, .T. ) ;
#5 = EDGE_CURVE ( 'NONE', #697, #504, #122, .T. ) ;
#6 = DIRECTION ( 'NONE',  ( 0.000000000000000000, -5.831003280594313497E-16, 1.000000000000000000 ) ) ;
#7 = ORIENTED_EDGE ( 'NONE', *, *, #298, .T. ) ;
#8 = EDGE_LOOP ( 'NONE', ( #814, #470, #1073, #1096 ) ) ;
#9 = CARTESIAN_POINT ( 'NONE',  ( 9.797174393178827630E-16, 29.00000000000001066, -7.999999999999991118 ) ) ;
#10 = CARTESIAN_POINT ( 'NONE',  ( 0.000000000000000000, 40.00000000000000000, 1.463326110704838350E-14 ) ) ;
#11 = AXIS2_PLACEMENT_3D ( 'NONE', #851, #1014, #759 ) ;
#12 = ORIENTED_EDGE ( 'NONE', *, *, #639, .F. ) ;
#13 = DIRECTION ( 'NONE',  ( -0.000000000000000000, 1.000000000000000000, 3.061616997868383141E-16 ) ) ;
#14 = VECTOR ( 'NONE', #973, 1000.000000000000000 ) ;
#15 = AXIS2_PLACEMENT_3D ( 'NONE', #1082, #1090, #850 ) ;
#16 = ORIENTED_EDGE ( 'NONE', *, *, #991, .T. ) ;
#17 = FACE_OUTER_BOUND ( 'NONE', #1121, .T. ) ;
#18 = PRODUCT_DEFINITION_FORMATION_WITH_SPECIFIED_SOURCE ( 'ANY', '', #108, .NOT_KNOWN. ) ;
#19 = DIRECTION ( 'NONE',  ( 0.000000000000000000, 2.434699615406047190E-16, -1.000000000000000000 ) ) ;
#20 = VERTEX_POINT ( 'NONE', #45 ) ;
#21 = ORIENTED_EDGE ( 'NONE', *, *, #503, .T. ) ;
#22 = CARTESIAN_POINT ( 'NONE',  ( 0.000000000000000000, -31.98999999999999844, -7.407319660606105395E-15 ) ) ;
#23 = MANIFOLD_SOLID_BREP ( 'Cut-Extrude2', #529 ) ;
#24 = CARTESIAN_POINT ( 'NONE',  ( 0.000000000000000000, -32.00000000000000711, -7.410381277603976298E-15 ) ) ;
#25 = ORIENTED_EDGE ( 'NONE', *, *, #796, .T. ) ;
#26 = EDGE_LOOP ( 'NONE', ( #55, #824 ) ) ;
#27 = CARTESIAN_POINT ( 'NONE',  ( 1.549178200921401754E-15, -24.49999999999999645, -12.40000000000000391 ) ) ;
#28 = EDGE_CURVE ( 'NONE', #38, #61, #383, .T. ) ;
#29 = DIRECTION ( 'NONE',  ( -0.000000000000000000, 1.000000000000000000, 3.061616997868383141E-16 ) ) ;
#30 = FACE_OUTER_BOUND ( 'NONE', #111, .T. ) ;
#31 = COLOUR_RGB ( '',0.7921568627450980005, 0.8196078431372548767, 0.9333333333333333481 ) ;
#32 = EDGE_LOOP ( 'NONE', ( #779, #296, #334, #439 ) ) ;
#33 = CARTESIAN_POINT ( 'NONE',  ( 1.530808498934190732E-15, 28.60000000000001563, -12.49999999999998401 ) ) ;
#34 = CONICAL_SURFACE ( 'NONE', #624, 10.89999999999999858, 0.9075712110370496299 ) ;
#35 = CIRCLE ( 'NONE', #810, 12.49999999999999289 ) ;
#36 = AXIS2_PLACEMENT_3D ( 'NONE', #602, #331, #780 ) ;
#37 = CARTESIAN_POINT ( 'NONE',  ( 0.000000000000000000, -26.02316495722359946, -5.580503301562010913E-15 ) ) ;
#38 = VERTEX_POINT ( 'NONE', #467 ) ;
#39 = CARTESIAN_POINT ( 'NONE',  ( 0.000000000000000000, 27.00000000000000355, 1.065315900981948645E-14 ) ) ;
#40 = DIRECTION ( 'NONE',  ( -0.000000000000000000, 1.000000000000000000, 3.061616997868383141E-16 ) ) ;
#41 = CARTESIAN_POINT ( 'NONE',  ( 0.000000000000000000, -24.00000000000000355, 12.89999999999999325 ) ) ;
#42 = ORIENTED_EDGE ( 'NONE', *, *, #656, .F. ) ;
#43 = DIRECTION ( 'NONE',  ( 0.000000000000000000, -4.205390244792262297E-16, 1.000000000000000000 ) ) ;
#44 = DIRECTION ( 'NONE',  ( 0.000000000000000000, -2.478176394252583606E-16, 1.000000000000000000 ) ) ;
#45 = CARTESIAN_POINT ( 'NONE',  ( 1.579794370900085541E-15, -23.99999999999999645, -12.90000000000000391 ) ) ;
#46 = ORIENTED_EDGE ( 'NONE', *, *, #812, .F. ) ;
#47 = CARTESIAN_POINT ( 'NONE',  ( 0.000000000000000000, -24.50000000000000355, 10.89999999999999325 ) ) ;
#48 = VECTOR ( 'NONE', #907, 1000.000000000000000 ) ;
#49 = EDGE_CURVE ( 'NONE', #1089, #479, #208, .T. ) ;
#50 = AXIS2_PLACEMENT_3D ( 'NONE', #183, #560, #198 ) ;
#51 = EDGE_LOOP ( 'NONE', ( #21, #673, #592, #46 ) ) ;
#52 = DIRECTION ( 'NONE',  ( -0.000000000000000000, 1.000000000000000000, 3.061616997868383141E-16 ) ) ;
#53 = DIRECTION ( 'NONE',  ( 0.000000000000000000, -2.689493761204352425E-16, 1.000000000000000000 ) ) ;
#54 = ADVANCED_FACE ( 'NONE', ( #663, #1088 ), #300, .T. ) ;
#55 = ORIENTED_EDGE ( 'NONE', *, *, #404, .F. ) ;
#56 = DIRECTION ( 'NONE',  ( -0.000000000000000000, 1.000000000000000000, 3.061616997868383141E-16 ) ) ;
#57 = EDGE_CURVE ( 'NONE', #527, #181, #510, .T. ) ;
#58 = ORIENTED_EDGE ( 'NONE', *, *, #993, .F. ) ;
#59 = ADVANCED_FACE ( 'NONE', ( #30 ), #304, .T. ) ;
#60 = DIRECTION ( 'NONE',  ( -0.000000000000000000, -1.000000000000000000, -3.061616997868383634E-16 ) ) ;
#61 = VERTEX_POINT ( 'NONE', #738 ) ;
#62 = CARTESIAN_POINT ( 'NONE',  ( 0.000000000000000000, 29.00000000000000711, 8.878689293818314018E-15 ) ) ;
#63 = FACE_OUTER_BOUND ( 'NONE', #680, .T. ) ;
#64 = AXIS2_PLACEMENT_3D ( 'NONE', #339, #696, #150 ) ;
#65 = AXIS2_PLACEMENT_3D ( 'NONE', #252, #1047, #781 ) ;
#66 = LINE ( 'NONE', #684, #101 ) ;
#67 = ORIENTED_EDGE ( 'NONE', *, *, #1008, .T. ) ;
#68 = DIRECTION ( 'NONE',  ( 0.000000000000000000, -4.956352788505164254E-16, 1.000000000000000000 ) ) ;
#69 = DIRECTION ( 'NONE',  ( 0.000000000000000000, -3.154042683594195614E-16, 1.000000000000000000 ) ) ;
#70 = EDGE_CURVE ( 'NONE', #38, #969, #381, .T. ) ;
#71 = ADVANCED_FACE ( 'NONE', ( #204 ), #925, .T. ) ;
#72 = DIRECTION ( 'NONE',  ( 0.000000000000000000, -4.336808689942017736E-16, 1.000000000000000000 ) ) ;
#73 = EDGE_CURVE ( 'NONE', #974, #649, #752, .T. ) ;
#74 = VERTEX_POINT ( 'NONE', #391 ) ;
#75 = FACE_OUTER_BOUND ( 'NONE', #712, .T. ) ;
#76 = CARTESIAN_POINT ( 'NONE',  ( 0.000000000000000000, -24.50000000000000000, -5.114168529202688325E-15 ) ) ;
#77 = DIRECTION ( 'NONE',  ( 0.000000000000000000, -2.478176394252583606E-16, 1.000000000000000000 ) ) ;
#78 = VERTEX_POINT ( 'NONE', #406 ) ;
#79 = DIRECTION ( 'NONE',  ( 0.000000000000000000, 1.000000000000000000, 3.061616997868383141E-16 ) ) ;
#80 = CARTESIAN_POINT ( 'NONE',  ( 1.832912143494924831E-15, 26.75000000000000000, 14.24999999999999822 ) ) ;
#81 = CONICAL_SURFACE ( 'NONE', #856, 12.49999999999999289, 0.7853981633974439491 ) ;
#82 = LINE ( 'NONE', #372, #246 ) ;
#83 = AXIS2_PLACEMENT_3D ( 'NONE', #76, #427, #471 ) ;
#84 = EDGE_LOOP ( 'NONE', ( #147, #965 ) ) ;
#85 = CARTESIAN_POINT ( 'NONE',  ( 1.457329690985349407E-15, 27.00000000000000711, -11.89999999999998259 ) ) ;
#86 = EDGE_CURVE ( 'NONE', #969, #425, #582, .T. ) ;
#87 = VERTEX_POINT ( 'NONE', #1120 ) ;
#88 = DIRECTION ( 'NONE',  ( 8.659560562354957510E-17, -0.7071067811865456854, 0.7071067811865493491 ) ) ;
#89 = LINE ( 'NONE', #706, #14 ) ;
#90 = VERTEX_POINT ( 'NONE', #424 ) ;
#91 = CARTESIAN_POINT ( 'NONE',  ( 8.664376103967523368E-16, -32.00000000000000711, -3.250000000000006217 ) ) ;
#92 = EDGE_CURVE ( 'NONE', #340, #840, #623, .T. ) ;
#93 = ORIENTED_EDGE ( 'NONE', *, *, #618, .F. ) ;
#94 = DIRECTION ( 'NONE',  ( -0.000000000000000000, -1.000000000000000000, -3.061616997868383634E-16 ) ) ;
#95 = CARTESIAN_POINT ( 'NONE',  ( 0.000000000000000000, -19.69999999999999929, 13.99999999999999467 ) ) ;
#96 = ORIENTED_EDGE ( 'NONE', *, *, #338, .T. ) ;
#97 = DIRECTION ( 'NONE',  ( 0.000000000000000000, -3.154042683594195614E-16, 1.000000000000000000 ) ) ;
#98 = ORIENTED_EDGE ( 'NONE', *, *, #277, .F. ) ;
#99 = DIRECTION ( 'NONE',  ( -0.000000000000000000, 1.000000000000000000, 3.061616997868383141E-16 ) ) ;
#100 = DIRECTION ( 'NONE',  ( 0.000000000000000000, -2.797941090285172590E-16, 1.000000000000000000 ) ) ;
#101 = VECTOR ( 'NONE', #329, 1000.000000000000000 ) ;
#102 = ORIENTED_EDGE ( 'NONE', *, *, #277, .T. ) ;
#103 = APPLICATION_PROTOCOL_DEFINITION ( 'draft international standard', 'automotive_design', 1998, #1031 ) ;
#104 = CIRCLE ( 'NONE', #827, 11.89999999999999147 ) ;
#105 = ORIENTED_EDGE ( 'NONE', *, *, #149, .T. ) ;
#106 = CARTESIAN_POINT ( 'NONE',  ( 0.000000000000000000, 28.60000000000001208, 1.114301772947843020E-14 ) ) ;
#107 = VECTOR ( 'NONE', #56, 1000.000000000000000 ) ;
#108 = PRODUCT ( 'nikon_mrd70270_20x0.8_air_objective', 'nikon_mrd70270_20x0.8_air_objective', '', ( #620 ) ) ;
#109 = EDGE_CURVE ( 'NONE', #830, #564, #343, .T. ) ;
#110 = FACE_BOUND ( 'NONE', #151, .T. ) ;
#111 = EDGE_LOOP ( 'NONE', ( #670, #25, #374, #865 ) ) ;
#112 = EDGE_CURVE ( 'NONE', #974, #410, #66, .T. ) ;
#113 = EDGE_CURVE ( 'NONE', #479, #87, #939, .T. ) ;
#114 = ORIENTED_EDGE ( 'NONE', *, *, #49, .F. ) ;
#115 = DIRECTION ( 'NONE',  ( 8.659560562354916834E-17, 0.7071067811865489050, -0.7071067811865461294 ) ) ;
#116 = DIRECTION ( 'NONE',  ( 0.000000000000000000, -4.956352788505167212E-16, 1.000000000000000000 ) ) ;
#117 = FILL_AREA_STYLE ('',( #1080 ) ) ;
#118 = ORIENTED_EDGE ( 'NONE', *, *, #1042, .F. ) ;
#119 = LINE ( 'NONE', #460, #1002 ) ;
#120 = CARTESIAN_POINT ( 'NONE',  ( 1.714505518806294638E-15, -19.69999999999999218, -14.00000000000000355 ) ) ;
#121 = DIRECTION ( 'NONE',  ( -0.000000000000000000, 1.000000000000000000, 3.061616997868383141E-16 ) ) ;
#122 = CIRCLE ( 'NONE', #362, 13.99999999999999645 ) ;
#123 = EDGE_LOOP ( 'NONE', ( #633, #96, #1049, #1115 ) ) ;
#124 = FACE_BOUND ( 'NONE', #205, .T. ) ;
#125 = AXIS2_PLACEMENT_3D ( 'NONE', #481, #462, #1003 ) ;
#126 = EDGE_CURVE ( 'NONE', #220, #539, #245, .T. ) ;
#127 = AXIS2_PLACEMENT_3D ( 'NONE', #517, #795, #868 ) ;
#128 = AXIS2_PLACEMENT_3D ( 'NONE', #431, #941, #505 ) ;
#129 = DIRECTION ( 'NONE',  ( -0.000000000000000000, 1.000000000000000000, 3.061616997868383141E-16 ) ) ;
#130 = SURFACE_SIDE_STYLE ('',( #992 ) ) ;
#131 = ORIENTED_EDGE ( 'NONE', *, *, #656, .T. ) ;
#132 = CARTESIAN_POINT ( 'NONE',  ( 0.000000000000000000, 40.00000000000000000, 1.463326110704838350E-14 ) ) ;
#133 = CYLINDRICAL_SURFACE ( 'NONE', #963, 8.000000000000000000 ) ;
#134 = DIRECTION ( 'NONE',  ( 0.000000000000000000, -2.915501640297157242E-16, 1.000000000000000000 ) ) ;
#135 = ORIENTED_EDGE ( 'NONE', *, *, #137, .F. ) ;
#136 = DIRECTION ( 'NONE',  ( 0.000000000000000000, 2.434699615406047190E-16, -1.000000000000000000 ) ) ;
#137 = EDGE_CURVE ( 'NONE', #360, #261, #265, .T. ) ;
#138 = DIRECTION ( 'NONE',  ( 0.000000000000000000, -2.478176394252582127E-16, 1.000000000000000000 ) ) ;
#139 = ORIENTED_EDGE ( 'NONE', *, *, #1043, .T. ) ;
#140 = FACE_OUTER_BOUND ( 'NONE', #691, .T. ) ;
#141 = CIRCLE ( 'NONE', #642, 2.500000000000000000 ) ;
#142 = AXIS2_PLACEMENT_3D ( 'NONE', #190, #891, #100 ) ;
#143 = CIRCLE ( 'NONE', #384, 12.89999999999999858 ) ;
#144 = CONICAL_SURFACE ( 'NONE', #1076, 14.24999999999998757, 0.2792526803190897855 ) ;
#145 = ADVANCED_FACE ( 'NONE', ( #869 ), #81, .T. ) ;
#146 = DIRECTION ( 'NONE',  ( -0.000000000000000000, -1.000000000000000000, -3.061616997868383634E-16 ) ) ;
#147 = ORIENTED_EDGE ( 'NONE', *, *, #126, .T. ) ;
#148 = DIRECTION ( 'NONE',  ( 0.000000000000000000, -2.102695122396131642E-16, 1.000000000000000000 ) ) ;
#149 = EDGE_CURVE ( 'NONE', #630, #658, #1000, .T. ) ;
#150 = DIRECTION ( 'NONE',  ( 0.000000000000000000, 0.000000000000000000, -1.000000000000000000 ) ) ;
#151 = EDGE_LOOP ( 'NONE', ( #726, #355 ) ) ;
#152 = DIRECTION ( 'NONE',  ( -0.000000000000000000, 1.000000000000000000, 3.061616997868383141E-16 ) ) ;
#153 = CARTESIAN_POINT ( 'NONE',  ( 0.000000000000000000, -14.19999999999999041, -1.960703021398248794E-15 ) ) ;
#154 = CARTESIAN_POINT ( 'NONE',  ( 3.061616997868382648E-16, -31.98999999999999844, 2.499999999999992895 ) ) ;
#155 = ORIENTED_EDGE ( 'NONE', *, *, #113, .T. ) ;
#156 = DIRECTION ( 'NONE',  ( -0.000000000000000000, 1.000000000000000000, 3.061616997868383141E-16 ) ) ;
#157 = DIRECTION ( 'NONE',  ( -0.000000000000000000, 1.000000000000000000, 3.061616997868383141E-16 ) ) ;
#158 = VECTOR ( 'NONE', #835, 1000.000000000000000 ) ;
#159 = CIRCLE ( 'NONE', #897, 14.24999999999998757 ) ;
#160 = EDGE_CURVE ( 'NONE', #775, #1025, #214, .T. ) ;
#161 = VECTOR ( 'NONE', #942, 1000.000000000000000 ) ;
#162 = DIRECTION ( 'NONE',  ( -0.000000000000000000, 1.000000000000000000, 3.061616997868383141E-16 ) ) ;
#163 = AXIS2_PLACEMENT_3D ( 'NONE', #509, #1030, #341 ) ;
#164 = ORIENTED_EDGE ( 'NONE', *, *, #160, .F. ) ;
#165 = DIRECTION ( 'NONE',  ( -0.000000000000000000, 1.000000000000000000, 3.061616997868383141E-16 ) ) ;
#166 = CARTESIAN_POINT ( 'NONE',  ( 0.000000000000000000, 21.75000000000000355, 9.045810085938586057E-15 ) ) ;
#167 = DIRECTION ( 'NONE',  ( -0.000000000000000000, 1.000000000000000000, 3.061616997868383141E-16 ) ) ;
#168 = EDGE_LOOP ( 'NONE', ( #213, #870, #456, #494 ) ) ;
#169 = DIRECTION ( 'NONE',  ( 0.000000000000000000, -2.915501640297156749E-16, 1.000000000000000000 ) ) ;
#170 = CYLINDRICAL_SURFACE ( 'NONE', #1039, 12.89999999999999680 ) ;
#171 = FACE_OUTER_BOUND ( 'NONE', #51, .T. ) ;
#172 = ORIENTED_EDGE ( 'NONE', *, *, #73, .T. ) ;
#173 = DIRECTION ( 'NONE',  ( -0.000000000000000000, 1.000000000000000000, 3.061616997868383141E-16 ) ) ;
#174 = ORIENTED_EDGE ( 'NONE', *, *, #729, .T. ) ;
#175 = DIRECTION ( 'NONE',  ( 0.000000000000000000, -3.154042683594195614E-16, 1.000000000000000000 ) ) ;
#176 = AXIS2_PLACEMENT_3D ( 'NONE', #295, #222, #647 ) ;
#177 = CONICAL_SURFACE ( 'NONE', #530, 12.89999999999999858, 0.7853981633974466137 ) ;
#178 = CARTESIAN_POINT ( 'NONE',  ( 0.000000000000000000, 32.00000000000000000, 11.90000000000000036 ) ) ;
#179 = ADVANCED_FACE ( 'NONE', ( #929 ), #305, .T. ) ;
#180 = VECTOR ( 'NONE', #635, 1000.000000000000000 ) ;
#181 = VERTEX_POINT ( 'NONE', #1018 ) ;
#182 = ADVANCED_FACE ( 'NONE', ( #502 ), #247, .F. ) ;
#183 = CARTESIAN_POINT ( 'NONE',  ( 0.000000000000000000, -14.19999999999999041, -1.960703021398248794E-15 ) ) ;
#184 = ORIENTED_EDGE ( 'NONE', *, *, #924, .F. ) ;
#185 = DIRECTION ( 'NONE',  ( 0.000000000000000000, -3.061616997868383141E-16, 1.000000000000000000 ) ) ;
#186 = DIRECTION ( 'NONE',  ( 0.000000000000000000, -3.061616997868383141E-16, 1.000000000000000000 ) ) ;
#187 = ORIENTED_EDGE ( 'NONE', *, *, #109, .T. ) ;
#188 = EDGE_LOOP ( 'NONE', ( #463, #1084, #291, #282 ) ) ;
#189 = DIRECTION ( 'NONE',  ( 0.000000000000000000, -5.831003280594315469E-16, 1.000000000000000000 ) ) ;
#190 = CARTESIAN_POINT ( 'NONE',  ( 0.000000000000000000, -24.50000000000000000, -5.114168529202688325E-15 ) ) ;
#191 = ORIENTED_EDGE ( 'NONE', *, *, #909, .F. ) ;
#192 = EDGE_CURVE ( 'NONE', #479, #20, #549, .T. ) ;
#193 = ORIENTED_EDGE ( 'NONE', *, *, #628, .T. ) ;
#194 = FACE_OUTER_BOUND ( 'NONE', #971, .T. ) ;
#195 = LINE ( 'NONE', #782, #453 ) ;
#196 = EDGE_CURVE ( 'NONE', #969, #38, #104, .T. ) ;
#197 = EDGE_LOOP ( 'NONE', ( #1012, #301, #284, #994 ) ) ;
#198 = DIRECTION ( 'NONE',  ( 0.000000000000000000, -3.154042683594195614E-16, 1.000000000000000000 ) ) ;
#199 = AXIS2_PLACEMENT_3D ( 'NONE', #206, #371, #279 ) ;
#200 = ORIENTED_EDGE ( 'NONE', *, *, #57, .F. ) ;
#201 = CARTESIAN_POINT ( 'NONE',  ( 2.020667218593131917E-15, 40.00000000000000711, -16.49999999999997513 ) ) ;
#202 = CIRCLE ( 'NONE', #290, 8.000000000000000000 ) ;
#203 = CARTESIAN_POINT ( 'NONE',  ( 0.000000000000000000, -26.02316495722360301, 10.89999999999999325 ) ) ;
#204 = FACE_OUTER_BOUND ( 'NONE', #887, .T. ) ;
#205 = EDGE_LOOP ( 'NONE', ( #798, #572 ) ) ;
#206 = CARTESIAN_POINT ( 'NONE',  ( 0.000000000000000000, 40.00000000000000000, 1.463326110704838350E-14 ) ) ;
#207 = FACE_OUTER_BOUND ( 'NONE', #794, .T. ) ;
#208 = LINE ( 'NONE', #41, #677 ) ;
#209 = EDGE_CURVE ( 'NONE', #936, #840, #519, .T. ) ;
#210 = ORIENTED_EDGE ( 'NONE', *, *, #275, .T. ) ;
#211 = DIRECTION ( 'NONE',  ( -0.000000000000000000, 1.000000000000000000, 3.061616997868383141E-16 ) ) ;
#212 = PLANE ( 'NONE',  #550 ) ;
#213 = ORIENTED_EDGE ( 'NONE', *, *, #298, .F. ) ;
#214 = CIRCLE ( 'NONE', #807, 8.000000000000000000 ) ;
#215 = ORIENTED_EDGE ( 'NONE', *, *, #73, .F. ) ;
#216 = CARTESIAN_POINT ( 'NONE',  ( 0.000000000000000000, 40.00000000000000000, 10.90000000000001279 ) ) ;
#217 = CIRCLE ( 'NONE', #737, 11.89999999999999147 ) ;
#218 = LINE ( 'NONE', #399, #266 ) ;
#219 = DIRECTION ( 'NONE',  ( -0.000000000000000000, 1.000000000000000000, 3.061616997868383141E-16 ) ) ;
#220 = VERTEX_POINT ( 'NONE', #1098 ) ;
#221 = CARTESIAN_POINT ( 'NONE',  ( 0.000000000000000000, 39.99999999999999289, 11.90000000000000213 ) ) ;
#222 = DIRECTION ( 'NONE',  ( -0.000000000000000000, 1.000000000000000000, 3.061616997868383141E-16 ) ) ;
#223 = EDGE_LOOP ( 'NONE', ( #640, #713, #242, #191 ) ) ;
#224 = FACE_OUTER_BOUND ( 'NONE', #8, .T. ) ;
#225 = ADVANCED_FACE ( 'NONE', ( #507, #333 ), #689, .T. ) ;
#226 = CARTESIAN_POINT ( 'NONE',  ( 0.000000000000000000, 29.00000000000000711, 8.878689293818314018E-15 ) ) ;
#227 = ORIENTED_EDGE ( 'NONE', *, *, #137, .T. ) ;
#228 = DIRECTION ( 'NONE',  ( -0.000000000000000000, 1.000000000000000000, 3.061616997868383141E-16 ) ) ;
#229 = CIRCLE ( 'NONE', #877, 3.249999999999999112 ) ;
#230 = CIRCLE ( 'NONE', #646, 13.99999999999998757 ) ;
#231 = AXIS2_PLACEMENT_3D ( 'NONE', #611, #954, #68 ) ;
#232 = DIRECTION ( 'NONE',  ( 0.000000000000000000, 1.000000000000000000, 3.061616997868383141E-16 ) ) ;
#233 = EDGE_LOOP ( 'NONE', ( #269, #238, #784, #1 ) ) ;
#234 = LINE ( 'NONE', #866, #405 ) ;
#235 = CARTESIAN_POINT ( 'NONE',  ( 0.000000000000000000, -24.00000000000000355, 12.89999999999999325 ) ) ;
#236 = DIRECTION ( 'NONE',  ( 0.000000000000000000, -3.182978855003316285E-16, 1.000000000000000000 ) ) ;
#237 = EDGE_CURVE ( 'NONE', #539, #220, #159, .T. ) ;
#238 = ORIENTED_EDGE ( 'NONE', *, *, #676, .T. ) ;
#239 = CARTESIAN_POINT ( 'NONE',  ( 1.334865011070614850E-15, -26.02316495722359591, -10.90000000000000391 ) ) ;
#240 = LINE ( 'NONE', #1051, #1056 ) ;
#241 = DIRECTION ( 'NONE',  ( 0.000000000000000000, -1.000000000000000000, -3.061616997868383141E-16 ) ) ;
#242 = ORIENTED_EDGE ( 'NONE', *, *, #1036, .F. ) ;
#243 = CARTESIAN_POINT ( 'NONE',  ( 0.000000000000000000, -16.69999999999999929, -2.726107270865348992E-15 ) ) ;
#244 = DIRECTION ( 'NONE',  ( -0.000000000000000000, 1.000000000000000000, 3.061616997868383141E-16 ) ) ;
#245 = CIRCLE ( 'NONE', #1072, 14.24999999999998757 ) ;
#246 = VECTOR ( 'NONE', #438, 1000.000000000000000 ) ;
#247 = CYLINDRICAL_SURFACE ( 'NONE', #984, 2.500000000000000000 ) ;
#248 = AXIS2_PLACEMENT_3D ( 'NONE', #871, #165, #704 ) ;
#249 = ADVANCED_FACE ( 'NONE', ( #864, #961 ), #454, .T. ) ;
#250 = ORIENTED_EDGE ( 'NONE', *, *, #316, .T. ) ;
#251 = CARTESIAN_POINT ( 'NONE',  ( 0.000000000000000000, 21.75000000000000355, 9.045810085938586057E-15 ) ) ;
#252 = CARTESIAN_POINT ( 'NONE',  ( 0.000000000000000000, -24.00000000000000000, -4.961087679309267024E-15 ) ) ;
#253 = FACE_OUTER_BOUND ( 'NONE', #987, .T. ) ;
#254 = ORIENTED_EDGE ( 'NONE', *, *, #4, .T. ) ;
#255 = DIRECTION ( 'NONE',  ( 0.000000000000000000, 0.000000000000000000, 1.000000000000000000 ) ) ;
#256 = LINE ( 'NONE', #417, #1131 ) ;
#257 = ADVANCED_FACE ( 'NONE', ( #353 ), #617, .F. ) ;
#258 = ADVANCED_FACE ( 'NONE', ( #1064 ), #325, .T. ) ;
#259 = CYLINDRICAL_SURFACE ( 'NONE', #734, 11.89999999999999147 ) ;
#260 = ADVANCED_FACE ( 'NONE', ( #968, #253 ), #1048, .T. ) ;
#261 = VERTEX_POINT ( 'NONE', #95 ) ;
#262 = DIRECTION ( 'NONE',  ( 0.000000000000000000, 3.061616997868383141E-16, -1.000000000000000000 ) ) ;
#263 = ORIENTED_EDGE ( 'NONE', *, *, #574, .T. ) ;
#264 = CARTESIAN_POINT ( 'NONE',  ( 1.714505518806294244E-15, -16.69999999999999574, -14.00000000000000000 ) ) ;
#265 = CIRCLE ( 'NONE', #715, 13.99999999999999822 ) ;
#266 = VECTOR ( 'NONE', #751, 1000.000000000000000 ) ;
#267 = DIRECTION ( 'NONE',  ( 0.000000000000000000, 3.061616997868383141E-16, -1.000000000000000000 ) ) ;
#268 = CIRCLE ( 'NONE', #418, 13.99999999999998757 ) ;
#269 = ORIENTED_EDGE ( 'NONE', *, *, #574, .F. ) ;
#270 = APPLICATION_PROTOCOL_DEFINITION ( 'draft international standard', 'automotive_design', 1998, #1092 ) ;
#271 = CIRCLE ( 'NONE', #248, 12.49999999999999289 ) ;
#272 = ORIENTED_EDGE ( 'NONE', *, *, #892, .T. ) ;
#273 = DIRECTION ( 'NONE',  ( -0.000000000000000000, 1.000000000000000000, 3.061616997868383141E-16 ) ) ;
#274 = CARTESIAN_POINT ( 'NONE',  ( 0.000000000000000000, 40.00000000000000000, 1.463326110704838350E-14 ) ) ;
#275 = EDGE_CURVE ( 'NONE', #181, #527, #363, .T. ) ;
#276 = ORIENTED_EDGE ( 'NONE', *, *, #910, .T. ) ;
#277 = EDGE_CURVE ( 'NONE', #90, #982, #511, .T. ) ;
#278 = VERTEX_POINT ( 'NONE', #1127 ) ;
#279 = DIRECTION ( 'NONE',  ( 0.000000000000000000, 0.000000000000000000, 1.000000000000000000 ) ) ;
#280 = ADVANCED_FACE ( 'NONE', ( #171 ), #448, .T. ) ;
#281 = CARTESIAN_POINT ( 'NONE',  ( 0.000000000000000000, -32.00000000000000000, -2.500000000000007550 ) ) ;
#282 = ORIENTED_EDGE ( 'NONE', *, *, #472, .F. ) ;
#283 = CARTESIAN_POINT ( 'NONE',  ( 0.000000000000000000, -24.50000000000000355, 12.39999999999999503 ) ) ;
#284 = ORIENTED_EDGE ( 'NONE', *, *, #469, .T. ) ;
#285 = CARTESIAN_POINT ( 'NONE',  ( 1.714505518806294244E-15, 40.00000000000000711, -13.99999999999998224 ) ) ;
#286 = CARTESIAN_POINT ( 'NONE',  ( 0.000000000000000000, -24.00000000000000000, -4.961087679309267024E-15 ) ) ;
#287 = AXIS2_PLACEMENT_3D ( 'NONE', #711, #725, #791 ) ;
#288 = DIRECTION ( 'NONE',  ( 0.000000000000000000, 0.7071067811865485719, 0.7071067811865465735 ) ) ;
#289 =( NAMED_UNIT ( * ) PLANE_ANGLE_UNIT ( ) SI_UNIT ( $, .RADIAN. ) );
#290 = AXIS2_PLACEMENT_3D ( 'NONE', #426, #79, #949 ) ;
#291 = ORIENTED_EDGE ( 'NONE', *, *, #1010, .T. ) ;
#292 = LINE ( 'NONE', #650, #625 ) ;
#293 = ADVANCED_FACE ( 'NONE', ( #1052 ), #1059, .T. ) ;
#294 = CARTESIAN_POINT ( 'NONE',  ( 0.000000000000000000, 30.39999999999999858, 12.50000000000000533 ) ) ;
#295 = CARTESIAN_POINT ( 'NONE',  ( 0.000000000000000000, 27.00000000000000355, 1.065315900981948645E-14 ) ) ;
#296 = ORIENTED_EDGE ( 'NONE', *, *, #675, .F. ) ;
#297 = CARTESIAN_POINT ( 'NONE',  ( 0.000000000000000000, 31.00000000000000355, 1.187780580896683951E-14 ) ) ;
#298 = EDGE_CURVE ( 'NONE', #1066, #1019, #89, .T. ) ;
#299 = PLANE ( 'NONE',  #699 ) ;
#300 = PLANE ( 'NONE',  #324 ) ;
#301 = ORIENTED_EDGE ( 'NONE', *, *, #209, .T. ) ;
#302 = DIRECTION ( 'NONE',  ( -0.000000000000000000, 1.000000000000000000, 3.061616997868383141E-16 ) ) ;
#303 = CARTESIAN_POINT ( 'NONE',  ( 0.000000000000000000, 26.75000000000000355, 1.057661858487277856E-14 ) ) ;
#304 = CYLINDRICAL_SURFACE ( 'NONE', #568, 13.99999999999998757 ) ;
#305 = CONICAL_SURFACE ( 'NONE', #944, 12.49999999999999289, 0.7853981633974439491 ) ;
#306 = ORIENTED_EDGE ( 'NONE', *, *, #5, .F. ) ;
#307 = CARTESIAN_POINT ( 'NONE',  ( 0.000000000000000000, 26.75000000000000355, 1.057661858487277856E-14 ) ) ;
#308 = AXIS2_PLACEMENT_3D ( 'NONE', #524, #1044, #357 ) ;
#309 = AXIS2_PLACEMENT_3D ( 'NONE', #22, #542, #728 ) ;
#310 = CIRCLE ( 'NONE', #368, 12.49999999999999289 ) ;
#311 = CYLINDRICAL_SURFACE ( 'NONE', #475, 13.99999999999998757 ) ;
#312 = SURFACE_STYLE_USAGE ( .BOTH. , #130 ) ;
#313 = ADVANCED_FACE ( 'NONE', ( #443 ), #259, .T. ) ;
#314 = ORIENTED_EDGE ( 'NONE', *, *, #109, .F. ) ;
#315 = DIRECTION ( 'NONE',  ( 0.000000000000000000, 2.915501640297157735E-16, -1.000000000000000000 ) ) ;
#316 = EDGE_CURVE ( 'NONE', #1089, #707, #1035, .T. ) ;
#317 = EDGE_CURVE ( 'NONE', #464, #401, #858, .T. ) ;
#318 = CARTESIAN_POINT ( 'NONE',  ( 0.000000000000000000, 39.99999999999999289, 12.90000000000001101 ) ) ;
#319 = ORIENTED_EDGE ( 'NONE', *, *, #796, .F. ) ;
#320 = DIRECTION ( 'NONE',  ( 3.375584055267246429E-17, -0.9612616959383197823, 0.2756373558169960547 ) ) ;
#321 = DIRECTION ( 'NONE',  ( -0.000000000000000000, 1.000000000000000000, 3.061616997868383141E-16 ) ) ;
#322 = ORIENTED_EDGE ( 'NONE', *, *, #741, .F. ) ;
#323 = CYLINDRICAL_SURFACE ( 'NONE', #231, 13.99999999999999645 ) ;
#324 = AXIS2_PLACEMENT_3D ( 'NONE', #657, #219, #1095 ) ;
#325 = CONICAL_SURFACE ( 'NONE', #344, 14.24999999999998757, 0.2792526803190897855 ) ;
#326 = AXIS2_PLACEMENT_3D ( 'NONE', #772, #342, #351 ) ;
#327 = AXIS2_PLACEMENT_3D ( 'NONE', #578, #495, #923 ) ;
#328 = EDGE_CURVE ( 'NONE', #261, #504, #82, .T. ) ;
#329 = DIRECTION ( 'NONE',  ( -0.000000000000000000, 1.000000000000000000, 3.061616997868383141E-16 ) ) ;
#330 = ORIENTED_EDGE ( 'NONE', *, *, #499, .T. ) ;
#331 = DIRECTION ( 'NONE',  ( -0.000000000000000000, 1.000000000000000000, 3.061616997868383141E-16 ) ) ;
#332 = CARTESIAN_POINT ( 'NONE',  ( 0.000000000000000000, -14.19999999999999574, 16.49999999999999289 ) ) ;
#333 = FACE_OUTER_BOUND ( 'NONE', #821, .T. ) ;
#334 = ORIENTED_EDGE ( 'NONE', *, *, #645, .T. ) ;
#335 = CARTESIAN_POINT ( 'NONE',  ( 1.920702598204873800E-15, 21.75000000000000711, -15.68372692879400532 ) ) ;
#336 = EDGE_LOOP ( 'NONE', ( #421, #7, #1050, #629 ) ) ;
#337 = LINE ( 'NONE', #1027, #365 ) ;
#338 = EDGE_CURVE ( 'NONE', #1099, #979, #786, .T. ) ;
#339 = CARTESIAN_POINT ( 'NONE',  ( 0.000000000000000000, -32.00000000000000000, -7.410381277603973142E-15 ) ) ;
#340 = VERTEX_POINT ( 'NONE', #281 ) ;
#341 = DIRECTION ( 'NONE',  ( 0.000000000000000000, 0.000000000000000000, 1.000000000000000000 ) ) ;
#342 = DIRECTION ( 'NONE',  ( -0.000000000000000000, 1.000000000000000000, 3.061616997868383141E-16 ) ) ;
#343 = CIRCLE ( 'NONE', #766, 10.89999999999999858 ) ;
#344 = AXIS2_PLACEMENT_3D ( 'NONE', #1135, #538, #19 ) ;
#345 = CIRCLE ( 'NONE', #787, 11.89999999999999147 ) ;
#346 = DIRECTION ( 'NONE',  ( -0.000000000000000000, 1.000000000000000000, 3.061616997868383141E-16 ) ) ;
#347 = CIRCLE ( 'NONE', #571, 12.89999999999999680 ) ;
#348 = EDGE_LOOP ( 'NONE', ( #184, #843, #621, #1005 ) ) ;
#349 = DIRECTION ( 'NONE',  ( 0.000000000000000000, 1.000000000000000000, 3.061616997868383141E-16 ) ) ;
#350 = EDGE_CURVE ( 'NONE', #401, #464, #403, .T. ) ;
#351 = DIRECTION ( 'NONE',  ( 0.000000000000000000, -2.212131700395776895E-16, 1.000000000000000000 ) ) ;
#352 = EDGE_CURVE ( 'NONE', #181, #768, #195, .T. ) ;
#353 = FACE_OUTER_BOUND ( 'NONE', #197, .T. ) ;
#354 = ORIENTED_EDGE ( 'NONE', *, *, #1065, .T. ) ;
#355 = ORIENTED_EDGE ( 'NONE', *, *, #196, .F. ) ;
#356 = FACE_OUTER_BOUND ( 'NONE', #233, .T. ) ;
#357 = DIRECTION ( 'NONE',  ( 0.000000000000000000, -3.182978855003315792E-16, 1.000000000000000000 ) ) ;
#358 = EDGE_LOOP ( 'NONE', ( #1060, #708, #846, #414 ) ) ;
#359 =( NAMED_UNIT ( * ) SI_UNIT ( $, .STERADIAN. ) SOLID_ANGLE_UNIT ( ) );
#360 = VERTEX_POINT ( 'NONE', #120 ) ;
#361 = DIRECTION ( 'NONE',  ( -0.000000000000000000, 1.000000000000000000, 3.061616997868383141E-16 ) ) ;
#362 = AXIS2_PLACEMENT_3D ( 'NONE', #997, #839, #138 ) ;
#363 = CIRCLE ( 'NONE', #753, 11.89999999999998970 ) ;
#364 = CARTESIAN_POINT ( 'NONE',  ( 0.000000000000000000, -31.98999999999999844, -7.407319660606105395E-15 ) ) ;
#365 = VECTOR ( 'NONE', #951, 1000.000000000000000 ) ;
#366 = ORIENTED_EDGE ( 'NONE', *, *, #350, .T. ) ;
#367 = CARTESIAN_POINT ( 'NONE',  ( 0.000000000000000000, -19.69999999999998863, -3.644592370225858659E-15 ) ) ;
#368 = AXIS2_PLACEMENT_3D ( 'NONE', #1016, #228, #585 ) ;
#369 = ADVANCED_FACE ( 'NONE', ( #487 ), #900, .T. ) ;
#370 = ORIENTED_EDGE ( 'NONE', *, *, #600, .T. ) ;
#371 = DIRECTION ( 'NONE',  ( -0.000000000000000000, 1.000000000000000000, 3.061616997868383141E-16 ) ) ;
#372 = CARTESIAN_POINT ( 'NONE',  ( 0.000000000000000000, 39.99999999999999289, 14.00000000000001066 ) ) ;
#373 = ORIENTED_EDGE ( 'NONE', *, *, #892, .F. ) ;
#374 = ORIENTED_EDGE ( 'NONE', *, *, #867, .F. ) ;
#375 = CARTESIAN_POINT ( 'NONE',  ( 0.000000000000000000, -24.50000000000000000, -5.114168529202688325E-15 ) ) ;
#376 = LINE ( 'NONE', #563, #496 ) ;
#377 = EDGE_LOOP ( 'NONE', ( #250, #263, #901, #114 ) ) ;
#378 = ORIENTED_EDGE ( 'NONE', *, *, #28, .F. ) ;
#379 = CARTESIAN_POINT ( 'NONE',  ( 0.000000000000000000, 39.99999999999999289, 14.00000000000000178 ) ) ;
#380 = DIRECTION ( 'NONE',  ( -0.000000000000000000, 1.000000000000000000, 3.061616997868383141E-16 ) ) ;
#381 = CIRCLE ( 'NONE', #176, 11.89999999999999147 ) ;
#382 = AXIS2_PLACEMENT_3D ( 'NONE', #303, #1083, #44 ) ;
#383 = LINE ( 'NONE', #482, #158 ) ;
#384 = AXIS2_PLACEMENT_3D ( 'NONE', #863, #157, #423 ) ;
#385 = AXIS2_PLACEMENT_3D ( 'NONE', #540, #1055, #262 ) ;
#386 = ORIENTED_EDGE ( 'NONE', *, *, #350, .F. ) ;
#387 = CARTESIAN_POINT ( 'NONE',  ( 0.000000000000000000, 29.00000000000000711, 8.878689293818314018E-15 ) ) ;
#388 = ADVANCED_FACE ( 'NONE', ( #207 ), #133, .F. ) ;
#389 = ADVANCED_FACE ( 'NONE', ( #575, #920 ), #212, .T. ) ;
#390 = DIRECTION ( 'NONE',  ( 0.000000000000000000, -1.000000000000000000, -3.061616997868383141E-16 ) ) ;
#391 = CARTESIAN_POINT ( 'NONE',  ( 2.020667218593131522E-15, 21.50000000000000355, -16.49999999999997513 ) ) ;
#392 = EDGE_LOOP ( 'NONE', ( #42, #227, #610, #306 ) ) ;
#393 = CARTESIAN_POINT ( 'NONE',  ( 0.000000000000000000, 21.50000000000000000, 15.68372692879402663 ) ) ;
#394 = CARTESIAN_POINT ( 'NONE',  ( 0.000000000000000000, 40.00000000000000000, 1.463326110704838350E-14 ) ) ;
#395 = CARTESIAN_POINT ( 'NONE',  ( 0.000000000000000000, 40.00000000000000000, 1.463326110704838350E-14 ) ) ;
#396 = ORIENTED_EDGE ( 'NONE', *, *, #762, .F. ) ;
#397 = DIRECTION ( 'NONE',  ( -0.000000000000000000, 1.000000000000000000, 3.061616997868383141E-16 ) ) ;
#398 = ADVANCED_FACE ( 'NONE', ( #1070 ), #177, .T. ) ;
#399 = CARTESIAN_POINT ( 'NONE',  ( 0.000000000000000000, 26.75000000000000711, -14.24999999999997868 ) ) ;
#400 = EDGE_CURVE ( 'NONE', #20, #534, #1078, .T. ) ;
#401 = VERTEX_POINT ( 'NONE', #203 ) ;
#402 = LINE ( 'NONE', #408, #626 ) ;
#403 = CIRCLE ( 'NONE', #808, 10.90000000000000036 ) ;
#404 = EDGE_CURVE ( 'NONE', #979, #1099, #229, .T. ) ;
#405 = VECTOR ( 'NONE', #593, 1000.000000000000000 ) ;
#406 = CARTESIAN_POINT ( 'NONE',  ( 0.000000000000000000, 26.75000000000000000, 13.99999999999999822 ) ) ;
#407 = ORIENTED_EDGE ( 'NONE', *, *, #874, .F. ) ;
#408 = CARTESIAN_POINT ( 'NONE',  ( 1.745121688784976847E-15, 26.75000000000000000, 14.24999999999999822 ) ) ;
#409 = CARTESIAN_POINT ( 'NONE',  ( 0.000000000000000000, -24.00000000000000000, -4.961087679309267024E-15 ) ) ;
#410 = VERTEX_POINT ( 'NONE', #294 ) ;
#411 = DIRECTION ( 'NONE',  ( 0.000000000000000000, -5.378987522408705835E-16, 1.000000000000000000 ) ) ;
#412 = ADVANCED_FACE ( 'NONE', ( #651, #110 ), #299, .T. ) ;
#413 = DIRECTION ( 'NONE',  ( 0.000000000000000000, 0.000000000000000000, -1.000000000000000000 ) ) ;
#414 = ORIENTED_EDGE ( 'NONE', *, *, #608, .F. ) ;
#415 = DIRECTION ( 'NONE',  ( 0.000000000000000000, -4.336808689942017736E-16, 1.000000000000000000 ) ) ;
#416 = VECTOR ( 'NONE', #767, 1000.000000000000000 ) ;
#417 = CARTESIAN_POINT ( 'NONE',  ( 1.579794370900085541E-15, -23.99999999999999645, -12.90000000000000391 ) ) ;
#418 = AXIS2_PLACEMENT_3D ( 'NONE', #972, #99, #885 ) ;
#419 = CIRCLE ( 'NONE', #931, 13.99999999999999645 ) ;
#420 = DIRECTION ( 'NONE',  ( 0.000000000000000000, -2.775557561562892830E-16, 1.000000000000000000 ) ) ;
#421 = ORIENTED_EDGE ( 'NONE', *, *, #591, .T. ) ;
#422 = CARTESIAN_POINT ( 'NONE',  ( 0.000000000000000000, 29.00000000000000355, 8.000000000000008882 ) ) ;
#423 = DIRECTION ( 'NONE',  ( 0.000000000000000000, -2.689493761204352425E-16, 1.000000000000000000 ) ) ;
#424 = CARTESIAN_POINT ( 'NONE',  ( 1.714505518806293060E-15, 27.00000000000000711, -13.99999999999997691 ) ) ;
#425 = VERTEX_POINT ( 'NONE', #838 ) ;
#426 = CARTESIAN_POINT ( 'NONE',  ( 0.000000000000000000, 32.00000000000000711, 9.797174393178829207E-15 ) ) ;
#427 = DIRECTION ( 'NONE',  ( -0.000000000000000000, 1.000000000000000000, 3.061616997868383141E-16 ) ) ;
#428 = ADVANCED_FACE ( 'NONE', ( #567 ), #311, .T. ) ;
#429 = DIRECTION ( 'NONE',  ( -0.000000000000000000, 1.000000000000000000, 3.061616997868383141E-16 ) ) ;
#430 = ORIENTED_EDGE ( 'NONE', *, *, #112, .T. ) ;
#431 = CARTESIAN_POINT ( 'NONE',  ( 0.000000000000000000, 40.00000000000000000, 1.463326110704838350E-14 ) ) ;
#432 = ADVANCED_FACE ( 'NONE', ( #668 ), #643, .T. ) ;
#433 = CARTESIAN_POINT ( 'NONE',  ( 0.000000000000000000, 29.00000000000000711, 8.878689293818314018E-15 ) ) ;
#434 = AXIS2_PLACEMENT_3D ( 'NONE', #652, #121, #476 ) ;
#435 = AXIS2_PLACEMENT_3D ( 'NONE', #274, #873, #632 ) ;
#436 = AXIS2_PLACEMENT_3D ( 'NONE', #927, #211, #411 ) ;
#437 = CIRCLE ( 'NONE', #36, 11.89999999999998792 ) ;
#438 = DIRECTION ( 'NONE',  ( -0.000000000000000000, 1.000000000000000000, 3.061616997868383141E-16 ) ) ;
#439 = ORIENTED_EDGE ( 'NONE', *, *, #92, .T. ) ;
#440 = DIRECTION ( 'NONE',  ( 0.000000000000000000, 0.000000000000000000, 1.000000000000000000 ) ) ;
#441 = ORIENTED_EDGE ( 'NONE', *, *, #1042, .T. ) ;
#442 = FACE_OUTER_BOUND ( 'NONE', #336, .T. ) ;
#443 = FACE_OUTER_BOUND ( 'NONE', #614, .T. ) ;
#444 = ORIENTED_EDGE ( 'NONE', *, *, #546, .F. ) ;
#445 = ORIENTED_EDGE ( 'NONE', *, *, #608, .T. ) ;
#446 = LINE ( 'NONE', #201, #682 ) ;
#447 = EDGE_CURVE ( 'NONE', #464, #564, #376, .T. ) ;
#448 = CYLINDRICAL_SURFACE ( 'NONE', #716, 16.49999999999998934 ) ;
#449 = ORIENTED_EDGE ( 'NONE', *, *, #5, .T. ) ;
#450 = CARTESIAN_POINT ( 'NONE',  ( 0.000000000000000000, -14.19999999999999041, -1.960703021398248794E-15 ) ) ;
#451 = ORIENTED_EDGE ( 'NONE', *, *, #910, .F. ) ;
#452 = LINE ( 'NONE', #896, #718 ) ;
#453 = VECTOR ( 'NONE', #916, 1000.000000000000000 ) ;
#454 = PLANE ( 'NONE',  #1126 ) ;
#455 = AXIS2_PLACEMENT_3D ( 'NONE', #166, #788, #1133 ) ;
#456 = ORIENTED_EDGE ( 'NONE', *, *, #1106, .T. ) ;
#457 = SHAPE_DEFINITION_REPRESENTATION ( #985, #488 ) ;
#458 = CIRCLE ( 'NONE', #917, 15.68372692879401598 ) ;
#459 = ORIENTED_EDGE ( 'NONE', *, *, #600, .F. ) ;
#460 = CARTESIAN_POINT ( 'NONE',  ( 0.000000000000000000, -26.02316495722360301, 10.89999999999999325 ) ) ;
#461 = EDGE_CURVE ( 'NONE', #78, #1117, #1107, .T. ) ;
#462 = DIRECTION ( 'NONE',  ( 0.000000000000000000, -1.000000000000000000, -3.061616997868383141E-16 ) ) ;
#463 = ORIENTED_EDGE ( 'NONE', *, *, #237, .F. ) ;
#464 = VERTEX_POINT ( 'NONE', #466 ) ;
#465 = LINE ( 'NONE', #733, #861 ) ;
#466 = CARTESIAN_POINT ( 'NONE',  ( 1.334865011070614850E-15, -26.02316495722359591, -10.90000000000000391 ) ) ;
#467 = CARTESIAN_POINT ( 'NONE',  ( 0.000000000000000000, 27.00000000000000000, 11.90000000000000213 ) ) ;
#468 = ADVANCED_FACE ( 'NONE', ( #828 ), #34, .T. ) ;
#469 = EDGE_CURVE ( 'NONE', #840, #340, #679, .T. ) ;
#470 = ORIENTED_EDGE ( 'NONE', *, *, #400, .T. ) ;
#471 = DIRECTION ( 'NONE',  ( 0.000000000000000000, -3.182978855003316285E-16, 1.000000000000000000 ) ) ;
#472 = EDGE_CURVE ( 'NONE', #220, #1019, #218, .T. ) ;
#473 = DIRECTION ( 'NONE',  ( 0.000000000000000000, -3.061616997868383141E-16, 1.000000000000000000 ) ) ;
#474 = PRESENTATION_LAYER_ASSIGNMENT (  '', '', ( #1033 ) ) ;
#475 = AXIS2_PLACEMENT_3D ( 'NONE', #394, #904, #116 ) ;
#476 = DIRECTION ( 'NONE',  ( 0.000000000000000000, -2.775557561562892830E-16, 1.000000000000000000 ) ) ;
#477 = CIRCLE ( 'NONE', #497, 16.49999999999999645 ) ;
#478 = AXIS2_PLACEMENT_3D ( 'NONE', #686, #1046, #255 ) ;
#479 = VERTEX_POINT ( 'NONE', #235 ) ;
#480 = DIRECTION ( 'NONE',  ( -0.000000000000000000, 1.000000000000000000, 3.061616997868383141E-16 ) ) ;
#481 = CARTESIAN_POINT ( 'NONE',  ( 0.000000000000000000, -32.00000000000000000, -7.410381277603973142E-15 ) ) ;
#482 = CARTESIAN_POINT ( 'NONE',  ( 0.000000000000000000, 39.99999999999999289, 11.90000000000000568 ) ) ;
#483 = EDGE_LOOP ( 'NONE', ( #911, #922, #386, #322 ) ) ;
#484 = CARTESIAN_POINT ( 'NONE',  ( 0.000000000000000000, 21.50000000000000000, 16.49999999999999289 ) ) ;
#485 = ADVANCED_FACE ( 'NONE', ( #356 ), #569, .T. ) ;
#486 = EDGE_CURVE ( 'NONE', #181, #630, #240, .T. ) ;
#487 = FACE_OUTER_BOUND ( 'NONE', #168, .T. ) ;
#488 = ADVANCED_BREP_SHAPE_REPRESENTATION ( 'nikon_mrd70270_20x0.8_air_objective', ( #23, #719 ), #683 ) ;
#489 = ADVANCED_FACE ( 'NONE', ( #872 ), #170, .T. ) ;
#490 = DIRECTION ( 'NONE',  ( 0.000000000000000000, -1.000000000000000000, -3.061616997868383141E-16 ) ) ;
#491 = EDGE_LOOP ( 'NONE', ( #200, #370, #918, #693 ) ) ;
#492 = DIRECTION ( 'NONE',  ( 0.000000000000000000, -3.061616997868383141E-16, 1.000000000000000000 ) ) ;
#493 = CARTESIAN_POINT ( 'NONE',  ( 0.000000000000000000, 40.00000000000000000, 1.463326110704838350E-14 ) ) ;
#494 = ORIENTED_EDGE ( 'NONE', *, *, #589, .F. ) ;
#495 = DIRECTION ( 'NONE',  ( -0.000000000000000000, 1.000000000000000000, 3.061616997868383141E-16 ) ) ;
#496 = VECTOR ( 'NONE', #380, 1000.000000000000000 ) ;
#497 = AXIS2_PLACEMENT_3D ( 'NONE', #512, #1041, #175 ) ;
#498 = CARTESIAN_POINT ( 'NONE',  ( 0.000000000000000000, -19.69999999999999574, -3.644592370225861814E-15 ) ) ;
#499 = EDGE_CURVE ( 'NONE', #20, #479, #143, .T. ) ;
#500 = ORIENTED_EDGE ( 'NONE', *, *, #833, .T. ) ;
#501 = FACE_OUTER_BOUND ( 'NONE', #547, .T. ) ;
#502 = FACE_OUTER_BOUND ( 'NONE', #32, .T. ) ;
#503 = EDGE_CURVE ( 'NONE', #565, #948, #477, .T. ) ;
#504 = VERTEX_POINT ( 'NONE', #523 ) ;
#505 = DIRECTION ( 'NONE',  ( 0.000000000000000000, -5.551115123125785660E-16, 1.000000000000000000 ) ) ;
#506 = CYLINDRICAL_SURFACE ( 'NONE', #531, 8.000000000000000000 ) ;
#507 = FACE_BOUND ( 'NONE', #852, .T. ) ;
#508 = ORIENTED_EDGE ( 'NONE', *, *, #639, .T. ) ;
#509 = CARTESIAN_POINT ( 'NONE',  ( 0.000000000000000000, 40.00000000000000000, 1.463326110704838350E-14 ) ) ;
#510 = CIRCLE ( 'NONE', #1105, 11.89999999999998970 ) ;
#511 = CIRCLE ( 'NONE', #662, 13.99999999999998757 ) ;
#512 = CARTESIAN_POINT ( 'NONE',  ( 0.000000000000000000, -14.19999999999999041, -1.960703021398248794E-15 ) ) ;
#513 = AXIS2_PLACEMENT_3D ( 'NONE', #132, #837, #43 ) ;
#514 = DIRECTION ( 'NONE',  ( 0.000000000000000000, -2.434699615406047190E-16, 1.000000000000000000 ) ) ;
#515 = ORIENTED_EDGE ( 'NONE', *, *, #1123, .T. ) ;
#516 = DIRECTION ( 'NONE',  ( 9.650348470981644750E-17, 0.6156614753256598460, -0.7880107536067207930 ) ) ;
#517 = CARTESIAN_POINT ( 'NONE',  ( 0.000000000000000000, 40.00000000000000000, 1.463326110704838350E-14 ) ) ;
#518 = ADVANCED_FACE ( 'NONE', ( #528 ), #506, .F. ) ;
#519 = LINE ( 'NONE', #154, #1001 ) ;
#520 = ADVANCED_FACE ( 'NONE', ( #687 ), #755, .T. ) ;
#521 = ORIENTED_EDGE ( 'NONE', *, *, #690, .F. ) ;
#522 = CARTESIAN_POINT ( 'NONE',  ( 0.000000000000000000, 27.00000000000000000, 13.99999999999999822 ) ) ;
#523 = CARTESIAN_POINT ( 'NONE',  ( 0.000000000000000000, -16.70000000000000284, 13.99999999999999289 ) ) ;
#524 = CARTESIAN_POINT ( 'NONE',  ( 0.000000000000000000, -26.02316495722359946, -5.580503301562010913E-15 ) ) ;
#525 = ORIENTED_EDGE ( 'NONE', *, *, #469, .F. ) ;
#526 = CARTESIAN_POINT ( 'NONE',  ( 2.020667218593132706E-15, -14.19999999999998508, -16.50000000000000000 ) ) ;
#527 = VERTEX_POINT ( 'NONE', #1124 ) ;
#528 = FACE_OUTER_BOUND ( 'NONE', #723, .T. ) ;
#529 = CLOSED_SHELL ( 'NONE', ( #257, #518, #293, #989, #71, #145, #313, #59, #854, #603, #280, #1119, #535, #826, #398, #947, #468, #260, #249, #432, #694, #225, #485, #489, #389, #1023, #520, #816, #809, #369, #258, #54, #428, #412, #842, #179, #957, #880, #793, #388, #750, #182, #1091 ) ) ;
#530 = AXIS2_PLACEMENT_3D ( 'NONE', #286, #996, #644 ) ;
#531 = AXIS2_PLACEMENT_3D ( 'NONE', #433, #612, #695 ) ;
#532 = CONICAL_SURFACE ( 'NONE', #967, 11.89999999999998792, 0.7853981633974511656 ) ;
#533 = DIRECTION ( 'NONE',  ( 0.000000000000000000, -2.915501640297157242E-16, 1.000000000000000000 ) ) ;
#534 = VERTEX_POINT ( 'NONE', #955 ) ;
#535 = ADVANCED_FACE ( 'NONE', ( #63 ), #700, .T. ) ;
#536 = VERTEX_POINT ( 'NONE', #1118 ) ;
#537 = CARTESIAN_POINT ( 'NONE',  ( 0.000000000000000000, 21.50000000000000000, 16.49999999999999645 ) ) ;
#538 = DIRECTION ( 'NONE',  ( 0.000000000000000000, -1.000000000000000000, -3.061616997868383141E-16 ) ) ;
#539 = VERTEX_POINT ( 'NONE', #80 ) ;
#540 = CARTESIAN_POINT ( 'NONE',  ( 0.000000000000000000, -31.98999999999999844, -7.407319660606105395E-15 ) ) ;
#541 = ORIENTED_EDGE ( 'NONE', *, *, #447, .F. ) ;
#542 = DIRECTION ( 'NONE',  ( 0.000000000000000000, -1.000000000000000000, -3.061616997868383141E-16 ) ) ;
#543 = DIRECTION ( 'NONE',  ( 0.000000000000000000, -1.000000000000000000, -3.061616997868383141E-16 ) ) ;
#544 = ORIENTED_EDGE ( 'NONE', *, *, #461, .F. ) ;
#545 = LINE ( 'NONE', #804, #1004 ) ;
#546 = EDGE_CURVE ( 'NONE', #649, #768, #337, .T. ) ;
#547 = EDGE_LOOP ( 'NONE', ( #366, #1062, #314, #373 ) ) ;
#548 = CARTESIAN_POINT ( 'NONE',  ( 0.000000000000000000, 40.00000000000000000, 1.463326110704838350E-14 ) ) ;
#549 = CIRCLE ( 'NONE', #981, 12.89999999999999858 ) ;
#550 = AXIS2_PLACEMENT_3D ( 'NONE', #819, #390, #742 ) ;
#551 = CARTESIAN_POINT ( 'NONE',  ( 0.000000000000000000, -26.02316495722359946, -5.580503301562010913E-15 ) ) ;
#552 = AXIS2_PLACEMENT_3D ( 'NONE', #548, #273, #189 ) ;
#553 = ORIENTED_EDGE ( 'NONE', *, *, #1079, .T. ) ;
#554 = DIRECTION ( 'NONE',  ( 0.000000000000000000, -2.689493761204352918E-16, 1.000000000000000000 ) ) ;
#555 = VECTOR ( 'NONE', #1100, 1000.000000000000114 ) ;
#556 = ORIENTED_EDGE ( 'NONE', *, *, #149, .F. ) ;
#557 = LINE ( 'NONE', #285, #180 ) ;
#558 = DIRECTION ( 'NONE',  ( -0.000000000000000000, 1.000000000000000000, 3.061616997868383141E-16 ) ) ;
#559 = DIRECTION ( 'NONE',  ( 0.000000000000000000, -5.551115123125785660E-16, 1.000000000000000000 ) ) ;
#560 = DIRECTION ( 'NONE',  ( -0.000000000000000000, 1.000000000000000000, 3.061616997868383141E-16 ) ) ;
#561 = ORIENTED_EDGE ( 'NONE', *, *, #890, .T. ) ;
#562 = DIRECTION ( 'NONE',  ( 8.659560562354895880E-17, 0.7071067811865507924, -0.7071067811865441310 ) ) ;
#563 = CARTESIAN_POINT ( 'NONE',  ( 1.334865011070614850E-15, 40.00000000000000000, -10.89999999999998437 ) ) ;
#564 = VERTEX_POINT ( 'NONE', #1032 ) ;
#565 = VERTEX_POINT ( 'NONE', #594 ) ;
#566 = LINE ( 'NONE', #999, #555 ) ;
#567 = FACE_OUTER_BOUND ( 'NONE', #1015, .T. ) ;
#568 = AXIS2_PLACEMENT_3D ( 'NONE', #395, #1011, #908 ) ;
#569 = CONICAL_SURFACE ( 'NONE', #65, 12.89999999999999858, 0.7853981633974466137 ) ;
#570 = VECTOR ( 'NONE', #1063, 1000.000000000000000 ) ;
#571 = AXIS2_PLACEMENT_3D ( 'NONE', #367, #722, #554 ) ;
#572 = ORIENTED_EDGE ( 'NONE', *, *, #1053, .F. ) ;
#573 = CARTESIAN_POINT ( 'NONE',  ( 0.000000000000000000, 28.00000000000000355, 1.095932070960632590E-14 ) ) ;
#574 = EDGE_CURVE ( 'NONE', #707, #20, #256, .T. ) ;
#575 = FACE_BOUND ( 'NONE', #998, .T. ) ;
#576 =( LENGTH_UNIT ( ) NAMED_UNIT ( * ) SI_UNIT ( .MILLI., .METRE. ) );
#577 = EDGE_LOOP ( 'NONE', ( #544, #396 ) ) ;
#578 = CARTESIAN_POINT ( 'NONE',  ( 0.000000000000000000, -19.69999999999998863, -3.644592370225858659E-15 ) ) ;
#579 = CARTESIAN_POINT ( 'NONE',  ( 0.000000000000000000, -31.98999999999999844, -7.407319660606105395E-15 ) ) ;
#580 = ORIENTED_EDGE ( 'NONE', *, *, #86, .F. ) ;
#581 = DIRECTION ( 'NONE',  ( 0.000000000000000000, -2.478176394252583606E-16, 1.000000000000000000 ) ) ;
#582 = LINE ( 'NONE', #952, #661 ) ;
#583 = AXIS2_PLACEMENT_3D ( 'NONE', #178, #613, #186 ) ;
#584 = ORIENTED_EDGE ( 'NONE', *, *, #112, .F. ) ;
#585 = DIRECTION ( 'NONE',  ( 0.000000000000000000, -2.775557561562892830E-16, 1.000000000000000000 ) ) ;
#586 = CIRCLE ( 'NONE', #701, 13.99999999999999822 ) ;
#587 = CONICAL_SURFACE ( 'NONE', #607, 11.89999999999998792, 0.7853981633974511656 ) ;
#588 = PRODUCT_DEFINITION_CONTEXT ( 'detailed design', #1092, 'design' ) ;
#589 = EDGE_CURVE ( 'NONE', #1019, #1102, #664, .T. ) ;
#590 = CARTESIAN_POINT ( 'NONE',  ( 0.000000000000000000, 28.60000000000001208, 1.114301772947843020E-14 ) ) ;
#591 = EDGE_CURVE ( 'NONE', #875, #1066, #928, .T. ) ;
#592 = ORIENTED_EDGE ( 'NONE', *, *, #1086, .F. ) ;
#593 = DIRECTION ( 'NONE',  ( -0.000000000000000000, 1.000000000000000000, 3.061616997868383141E-16 ) ) ;
#594 = CARTESIAN_POINT ( 'NONE',  ( 0.000000000000000000, -14.19999999999999574, 16.49999999999999289 ) ) ;
#595 = DIRECTION ( 'NONE',  ( -0.000000000000000000, 1.000000000000000000, 3.061616997868383141E-16 ) ) ;
#596 = ORIENTED_EDGE ( 'NONE', *, *, #710, .T. ) ;
#597 = CYLINDRICAL_SURFACE ( 'NONE', #128, 12.49999999999999289 ) ;
#598 = CYLINDRICAL_SURFACE ( 'NONE', #127, 15.68372692879401242 ) ;
#599 = DIRECTION ( 'NONE',  ( 0.000000000000000000, 3.061616997868383141E-16, -1.000000000000000000 ) ) ;
#600 = EDGE_CURVE ( 'NONE', #527, #410, #705, .T. ) ;
#601 = ORIENTED_EDGE ( 'NONE', *, *, #86, .T. ) ;
#602 = CARTESIAN_POINT ( 'NONE',  ( 0.000000000000000000, 32.00000000000000000, 1.218396750875367896E-14 ) ) ;
#603 = ADVANCED_FACE ( 'NONE', ( #442 ), #598, .T. ) ;
#604 = AXIS2_PLACEMENT_3D ( 'NONE', #1087, #40, #730 ) ;
#605 = DIRECTION ( 'NONE',  ( 0.000000000000000000, -4.956352788505164254E-16, 1.000000000000000000 ) ) ;
#606 = CIRCLE ( 'NONE', #83, 10.89999999999999858 ) ;
#607 = AXIS2_PLACEMENT_3D ( 'NONE', #297, #659, #315 ) ;
#608 = EDGE_CURVE ( 'NONE', #504, #565, #1113, .T. ) ;
#609 = CARTESIAN_POINT ( 'NONE',  ( 0.000000000000000000, -31.98999999999999844, -7.407319660606105395E-15 ) ) ;
#610 = ORIENTED_EDGE ( 'NONE', *, *, #328, .T. ) ;
#611 = CARTESIAN_POINT ( 'NONE',  ( 0.000000000000000000, 40.00000000000000000, 1.463326110704838350E-14 ) ) ;
#612 = DIRECTION ( 'NONE',  ( -0.000000000000000000, 1.000000000000000000, 3.061616997868383141E-16 ) ) ;
#613 = DIRECTION ( 'NONE',  ( -0.000000000000000000, 1.000000000000000000, 3.061616997868383141E-16 ) ) ;
#614 = EDGE_LOOP ( 'NONE', ( #905, #601, #58, #378 ) ) ;
#615 = DIRECTION ( 'NONE',  ( -0.000000000000000000, 1.000000000000000000, 3.061616997868383141E-16 ) ) ;
#616 = DIRECTION ( 'NONE',  ( 8.659560562354916834E-17, 0.7071067811865489050, -0.7071067811865461294 ) ) ;
#617 = CYLINDRICAL_SURFACE ( 'NONE', #946, 2.500000000000000000 ) ;
#618 = EDGE_CURVE ( 'NONE', #564, #830, #606, .T. ) ;
#619 = EDGE_LOOP ( 'NONE', ( #580, #1081, #893, #637 ) ) ;
#620 = PRODUCT_CONTEXT ( 'NONE', #1031, 'mechanical' ) ;
#621 = ORIENTED_EDGE ( 'NONE', *, *, #472, .T. ) ;
#622 = LINE ( 'NONE', #379, #1108 ) ;
#623 = CIRCLE ( 'NONE', #64, 2.500000000000000000 ) ;
#624 = AXIS2_PLACEMENT_3D ( 'NONE', #37, #129, #823 ) ;
#625 = VECTOR ( 'NONE', #562, 1000.000000000000114 ) ;
#626 = VECTOR ( 'NONE', #320, 1000.000000000000000 ) ;
#627 = DIRECTION ( 'NONE',  ( -0.000000000000000000, -1.000000000000000000, -3.061616997868383634E-16 ) ) ;
#628 = EDGE_CURVE ( 'NONE', #261, #360, #586, .T. ) ;
#629 = ORIENTED_EDGE ( 'NONE', *, *, #1106, .F. ) ;
#630 = VERTEX_POINT ( 'NONE', #983 ) ;
#631 = DIRECTION ( 'NONE',  ( 0.000000000000000000, 0.6156614753256594019, 0.7880107536067211260 ) ) ;
#632 = DIRECTION ( 'NONE',  ( 0.000000000000000000, -5.831003280594315469E-16, 1.000000000000000000 ) ) ;
#633 = ORIENTED_EDGE ( 'NONE', *, *, #1006, .F. ) ;
#634 = ORIENTED_EDGE ( 'NONE', *, *, #729, .F. ) ;
#635 = DIRECTION ( 'NONE',  ( -0.000000000000000000, 1.000000000000000000, 3.061616997868383141E-16 ) ) ;
#636 = DIRECTION ( 'NONE',  ( -0.000000000000000000, 1.000000000000000000, 3.061616997868383141E-16 ) ) ;
#637 = ORIENTED_EDGE ( 'NONE', *, *, #833, .F. ) ;
#638 = DIRECTION ( 'NONE',  ( -0.000000000000000000, 1.000000000000000000, 3.061616997868383141E-16 ) ) ;
#639 = EDGE_CURVE ( 'NONE', #649, #974, #35, .T. ) ;
#640 = ORIENTED_EDGE ( 'NONE', *, *, #57, .T. ) ;
#641 = CARTESIAN_POINT ( 'NONE',  ( 0.000000000000000000, 31.99999999999999289, 11.90000000000000036 ) ) ;
#642 = AXIS2_PLACEMENT_3D ( 'NONE', #579, #490, #743 ) ;
#643 = CONICAL_SURFACE ( 'NONE', #914, 10.89999999999999858, 0.9075712110370496299 ) ;
#644 = DIRECTION ( 'NONE',  ( 0.000000000000000000, -2.689493761204352425E-16, 1.000000000000000000 ) ) ;
#645 = EDGE_CURVE ( 'NONE', #278, #340, #465, .T. ) ;
#646 = AXIS2_PLACEMENT_3D ( 'NONE', #39, #758, #581 ) ;
#647 = DIRECTION ( 'NONE',  ( 0.000000000000000000, -2.915501640297156749E-16, 1.000000000000000000 ) ) ;
#648 = CARTESIAN_POINT ( 'NONE',  ( 0.000000000000000000, 21.75000000000000000, 15.68372692879402663 ) ) ;
#649 = VERTEX_POINT ( 'NONE', #33 ) ;
#650 = CARTESIAN_POINT ( 'NONE',  ( 1.530808498934190732E-15, 28.60000000000001563, -12.49999999999998401 ) ) ;
#651 = FACE_OUTER_BOUND ( 'NONE', #721, .T. ) ;
#652 = CARTESIAN_POINT ( 'NONE',  ( 0.000000000000000000, 28.60000000000001208, 1.114301772947843020E-14 ) ) ;
#653 = ORIENTED_EDGE ( 'NONE', *, *, #1086, .T. ) ;
#654 = CYLINDRICAL_SURFACE ( 'NONE', #436, 12.89999999999999680 ) ;
#655 = CARTESIAN_POINT ( 'NONE',  ( 0.000000000000000000, 27.00000000000000000, 13.99999999999999822 ) ) ;
#656 = EDGE_CURVE ( 'NONE', #360, #697, #557, .T. ) ;
#657 = CARTESIAN_POINT ( 'NONE',  ( 0.000000000000000000, 26.75000000000000000, 14.24999999999999822 ) ) ;
#658 = VERTEX_POINT ( 'NONE', #641 ) ;
#659 = DIRECTION ( 'NONE',  ( 0.000000000000000000, -1.000000000000000000, -3.061616997868383141E-16 ) ) ;
#660 = DIRECTION ( 'NONE',  ( 0.000000000000000000, -3.182978855003316285E-16, 1.000000000000000000 ) ) ;
#661 = VECTOR ( 'NONE', #857, 1000.000000000000000 ) ;
#662 = AXIS2_PLACEMENT_3D ( 'NONE', #882, #346, #77 ) ;
#663 = FACE_OUTER_BOUND ( 'NONE', #84, .T. ) ;
#664 = CIRCLE ( 'NONE', #455, 15.68372692879401598 ) ;
#665 = VECTOR ( 'NONE', #52, 1000.000000000000000 ) ;
#666 = ORIENTED_EDGE ( 'NONE', *, *, #316, .F. ) ;
#667 = DIRECTION ( 'NONE',  ( 0.000000000000000000, -1.000000000000000000, -3.061616997868383141E-16 ) ) ;
#668 = FACE_OUTER_BOUND ( 'NONE', #123, .T. ) ;
#669 = PRESENTATION_STYLE_ASSIGNMENT (( #312 ) ) ;
#670 = ORIENTED_EDGE ( 'NONE', *, *, #461, .T. ) ;
#671 = CARTESIAN_POINT ( 'NONE',  ( 3.061616997868382648E-16, -32.00000000000000000, 2.499999999999992895 ) ) ;
#672 = CARTESIAN_POINT ( 'NONE',  ( 0.000000000000000000, -24.50000000000000000, -5.114168529202688325E-15 ) ) ;
#673 = ORIENTED_EDGE ( 'NONE', *, *, #688, .T. ) ;
#674 = FACE_OUTER_BOUND ( 'NONE', #895, .T. ) ;
#675 = EDGE_CURVE ( 'NONE', #278, #936, #770, .T. ) ;
#676 = EDGE_CURVE ( 'NONE', #707, #1089, #898, .T. ) ;
#677 = VECTOR ( 'NONE', #288, 1000.000000000000000 ) ;
#678 = DIRECTION ( 'NONE',  ( -0.000000000000000000, 1.000000000000000000, 3.061616997868383141E-16 ) ) ;
#679 = CIRCLE ( 'NONE', #125, 2.500000000000000000 ) ;
#680 = EDGE_LOOP ( 'NONE', ( #193, #131, #732, #1068 ) ) ;
#681 = CARTESIAN_POINT ( 'NONE',  ( 0.000000000000000000, 29.00000000000000355, 8.000000000000008882 ) ) ;
#682 = VECTOR ( 'NONE', #822, 1000.000000000000000 ) ;
#683 =( GEOMETRIC_REPRESENTATION_CONTEXT ( 3 ) GLOBAL_UNCERTAINTY_ASSIGNED_CONTEXT ( ( #717 ) ) GLOBAL_UNIT_ASSIGNED_CONTEXT ( ( #1061, #289, #359 ) ) REPRESENTATION_CONTEXT ( 'NONE', 'WORKASPACE' ) );
#684 = CARTESIAN_POINT ( 'NONE',  ( 0.000000000000000000, 39.99999999999999289, 12.50000000000000711 ) ) ;
#685 = ORIENTED_EDGE ( 'NONE', *, *, #400, .F. ) ;
#686 = CARTESIAN_POINT ( 'NONE',  ( 0.000000000000000000, 32.00000000000000711, 9.797174393178829207E-15 ) ) ;
#687 = FACE_OUTER_BOUND ( 'NONE', #1045, .T. ) ;
#688 = EDGE_CURVE ( 'NONE', #948, #74, #446, .T. ) ;
#689 = PLANE ( 'NONE',  #1128 ) ;
#690 = EDGE_CURVE ( 'NONE', #697, #948, #452, .T. ) ;
#691 = EDGE_LOOP ( 'NONE', ( #1007, #859, #884, #407 ) ) ;
#692 = DIRECTION ( 'NONE',  ( -0.000000000000000000, 1.000000000000000000, 3.061616997868383141E-16 ) ) ;
#693 = ORIENTED_EDGE ( 'NONE', *, *, #352, .F. ) ;
#694 = ADVANCED_FACE ( 'NONE', ( #17 ), #988, .T. ) ;
#695 = DIRECTION ( 'NONE',  ( 0.000000000000000000, -4.336808689942017736E-16, 1.000000000000000000 ) ) ;
#696 = DIRECTION ( 'NONE',  ( 0.000000000000000000, -1.000000000000000000, -3.061616997868383141E-16 ) ) ;
#697 = VERTEX_POINT ( 'NONE', #264 ) ;
#698 = CARTESIAN_POINT ( 'NONE',  ( 0.000000000000000000, 28.60000000000000853, 12.50000000000000355 ) ) ;
#699 = AXIS2_PLACEMENT_3D ( 'NONE', #655, #990, #473 ) ;
#700 = CYLINDRICAL_SURFACE ( 'NONE', #878, 13.99999999999999645 ) ;
#701 = AXIS2_PLACEMENT_3D ( 'NONE', #806, #1069, #906 ) ;
#702 = DIRECTION ( 'NONE',  ( 0.000000000000000000, -4.205390244792262297E-16, 1.000000000000000000 ) ) ;
#703 = ORIENTED_EDGE ( 'NONE', *, *, #890, .F. ) ;
#704 = DIRECTION ( 'NONE',  ( 0.000000000000000000, -2.775557561562892830E-16, 1.000000000000000000 ) ) ;
#705 = LINE ( 'NONE', #960, #964 ) ;
#706 = CARTESIAN_POINT ( 'NONE',  ( 1.920702598204873406E-15, 40.00000000000000711, -15.68372692879399821 ) ) ;
#707 = VERTEX_POINT ( 'NONE', #27 ) ;
#708 = ORIENTED_EDGE ( 'NONE', *, *, #690, .T. ) ;
#709 = DIRECTION ( 'NONE',  ( 0.000000000000000000, -5.378987522408705835E-16, 1.000000000000000000 ) ) ;
#710 = EDGE_CURVE ( 'NONE', #78, #982, #622, .T. ) ;
#711 = CARTESIAN_POINT ( 'NONE',  ( 0.000000000000000000, -32.00000000000000711, -7.410381277603976298E-15 ) ) ;
#712 = EDGE_LOOP ( 'NONE', ( #444, #508, #430, #118 ) ) ;
#713 = ORIENTED_EDGE ( 'NONE', *, *, #486, .T. ) ;
#714 = DIRECTION ( 'NONE',  ( 0.000000000000000000, -2.797941090285172590E-16, 1.000000000000000000 ) ) ;
#715 = AXIS2_PLACEMENT_3D ( 'NONE', #498, #763, #848 ) ;
#716 = AXIS2_PLACEMENT_3D ( 'NONE', #10, #720, #702 ) ;
#717 = UNCERTAINTY_MEASURE_WITH_UNIT (LENGTH_MEASURE( 1.000000000000000082E-05 ), #1061, 'distance_accuracy_value', 'NONE');
#718 = VECTOR ( 'NONE', #115, 1000.000000000000114 ) ;
#719 = AXIS2_PLACEMENT_3D ( 'NONE', #975, #440, #970 ) ;
#720 = DIRECTION ( 'NONE',  ( -0.000000000000000000, 1.000000000000000000, 3.061616997868383141E-16 ) ) ;
#721 = EDGE_LOOP ( 'NONE', ( #953, #102 ) ) ;
#722 = DIRECTION ( 'NONE',  ( -0.000000000000000000, 1.000000000000000000, 3.061616997868383141E-16 ) ) ;
#723 = EDGE_LOOP ( 'NONE', ( #164, #553, #139, #1021 ) ) ;
#724 = CARTESIAN_POINT ( 'NONE',  ( 1.714505518806293060E-15, 40.00000000000000711, -13.99999999999997513 ) ) ;
#725 = DIRECTION ( 'NONE',  ( -0.000000000000000000, 1.000000000000000000, 3.061616997868383141E-16 ) ) ;
#726 = ORIENTED_EDGE ( 'NONE', *, *, #70, .F. ) ;
#727 = ORIENTED_EDGE ( 'NONE', *, *, #991, .F. ) ;
#728 = DIRECTION ( 'NONE',  ( 0.000000000000000000, 0.000000000000000000, -1.000000000000000000 ) ) ;
#729 = EDGE_CURVE ( 'NONE', #425, #649, #292, .T. ) ;
#730 = DIRECTION ( 'NONE',  ( 0.000000000000000000, -4.424263400791554776E-16, 1.000000000000000000 ) ) ;
#731 = DIRECTION ( 'NONE',  ( -0.000000000000000000, 1.000000000000000000, 3.061616997868383141E-16 ) ) ;
#732 = ORIENTED_EDGE ( 'NONE', *, *, #1075, .F. ) ;
#733 = CARTESIAN_POINT ( 'NONE',  ( 0.000000000000000000, -31.98999999999999844, -2.500000000000007550 ) ) ;
#734 = AXIS2_PLACEMENT_3D ( 'NONE', #797, #429, #6 ) ;
#735 = AXIS2_PLACEMENT_3D ( 'NONE', #484, #480, #492 ) ;
#736 = DIRECTION ( 'NONE',  ( 0.000000000000000000, 0.000000000000000000, 1.000000000000000000 ) ) ;
#737 = AXIS2_PLACEMENT_3D ( 'NONE', #1130, #692, #169 ) ;
#738 = CARTESIAN_POINT ( 'NONE',  ( 0.000000000000000000, 28.00000000000000000, 11.90000000000000213 ) ) ;
#739 = ORIENTED_EDGE ( 'NONE', *, *, #1043, .F. ) ;
#740 = DIRECTION ( 'NONE',  ( 0.000000000000000000, 1.000000000000000000, 3.061616997868383141E-16 ) ) ;
#741 = EDGE_CURVE ( 'NONE', #979, #401, #119, .T. ) ;
#742 = DIRECTION ( 'NONE',  ( 0.000000000000000000, 3.061616997868383141E-16, -1.000000000000000000 ) ) ;
#743 = DIRECTION ( 'NONE',  ( 0.000000000000000000, 0.000000000000000000, -1.000000000000000000 ) ) ;
#744 = ORIENTED_EDGE ( 'NONE', *, *, #1008, .F. ) ;
#745 = CYLINDRICAL_SURFACE ( 'NONE', #15, 11.89999999999999147 ) ;
#746 = DIRECTION ( 'NONE',  ( -0.000000000000000000, 1.000000000000000000, 3.061616997868383141E-16 ) ) ;
#747 =( NAMED_UNIT ( * ) SI_UNIT ( $, .STERADIAN. ) SOLID_ANGLE_UNIT ( ) );
#748 = VERTEX_POINT ( 'NONE', #537 ) ;
#749 = FACE_OUTER_BOUND ( 'NONE', #619, .T. ) ;
#750 = ADVANCED_FACE ( 'NONE', ( #966 ), #825, .T. ) ;
#751 = DIRECTION ( 'NONE',  ( 0.000000000000000000, -0.9612616959383195603, -0.2756373558169966098 ) ) ;
#752 = CIRCLE ( 'NONE', #434, 12.49999999999999289 ) ;
#753 = AXIS2_PLACEMENT_3D ( 'NONE', #956, #802, #533 ) ;
#754 =( NAMED_UNIT ( * ) PLANE_ANGLE_UNIT ( ) SI_UNIT ( $, .RADIAN. ) );
#755 = CONICAL_SURFACE ( 'NONE', #950, 16.49999999999999645, 0.7853981633974466137 ) ;
#756 = CIRCLE ( 'NONE', #930, 15.68372692879401598 ) ;
#757 = EDGE_LOOP ( 'NONE', ( #958, #174, #215, #703 ) ) ;
#758 = DIRECTION ( 'NONE',  ( -0.000000000000000000, 1.000000000000000000, 3.061616997868383141E-16 ) ) ;
#759 = DIRECTION ( 'NONE',  ( 0.000000000000000000, -5.831003280594315469E-16, 1.000000000000000000 ) ) ;
#760 = EDGE_LOOP ( 'NONE', ( #800, #210, #849, #556 ) ) ;
#761 = CYLINDRICAL_SURFACE ( 'NONE', #513, 16.49999999999998934 ) ;
#762 = EDGE_CURVE ( 'NONE', #1117, #78, #268, .T. ) ;
#763 = DIRECTION ( 'NONE',  ( -0.000000000000000000, 1.000000000000000000, 3.061616997868383141E-16 ) ) ;
#764 = ORIENTED_EDGE ( 'NONE', *, *, #92, .F. ) ;
#765 = DIRECTION ( 'NONE',  ( 0.000000000000000000, -2.478176394252582127E-16, 1.000000000000000000 ) ) ;
#766 = AXIS2_PLACEMENT_3D ( 'NONE', #672, #1109, #236 ) ;
#767 = DIRECTION ( 'NONE',  ( -0.000000000000000000, 1.000000000000000000, 3.061616997868383141E-16 ) ) ;
#768 = VERTEX_POINT ( 'NONE', #801 ) ;
#769 = CYLINDRICAL_SURFACE ( 'NONE', #163, 10.89999999999999858 ) ;
#770 = CIRCLE ( 'NONE', #309, 2.500000000000000000 ) ;
#771 = VECTOR ( 'NONE', #516, 1000.000000000000114 ) ;
#772 = CARTESIAN_POINT ( 'NONE',  ( 0.000000000000000000, 21.50000000000000000, 8.969269660991876589E-15 ) ) ;
#773 = DIRECTION ( 'NONE',  ( 0.000000000000000000, -2.775557561562892830E-16, 1.000000000000000000 ) ) ;
#774 = PRODUCT_DEFINITION ( 'UNKNOWN', '', #18, #588 ) ;
#775 = VERTEX_POINT ( 'NONE', #9 ) ;
#776 = FACE_OUTER_BOUND ( 'NONE', #491, .T. ) ;
#777 = DIRECTION ( 'NONE',  ( -0.000000000000000000, 1.000000000000000000, 3.061616997868383141E-16 ) ) ;
#778 = DIRECTION ( 'NONE',  ( -0.000000000000000000, 1.000000000000000000, 3.061616997868383141E-16 ) ) ;
#779 = ORIENTED_EDGE ( 'NONE', *, *, #209, .F. ) ;
#780 = DIRECTION ( 'NONE',  ( 0.000000000000000000, -5.831003280594315469E-16, 1.000000000000000000 ) ) ;
#781 = DIRECTION ( 'NONE',  ( 0.000000000000000000, -2.689493761204352425E-16, 1.000000000000000000 ) ) ;
#782 = CARTESIAN_POINT ( 'NONE',  ( 0.000000000000000000, 31.00000000000000711, -11.89999999999997726 ) ) ;
#783 = MECHANICAL_DESIGN_GEOMETRIC_PRESENTATION_REPRESENTATION (  '', ( #1033 ), #1125 ) ;
#784 = ORIENTED_EDGE ( 'NONE', *, *, #49, .T. ) ;
#785 = DIRECTION ( 'NONE',  ( 0.000000000000000000, -1.000000000000000000, -3.061616997868383141E-16 ) ) ;
#786 = CIRCLE ( 'NONE', #287, 3.249999999999999112 ) ;
#787 = AXIS2_PLACEMENT_3D ( 'NONE', #573, #397, #832 ) ;
#788 = DIRECTION ( 'NONE',  ( -0.000000000000000000, 1.000000000000000000, 3.061616997868383141E-16 ) ) ;
#789 = CIRCLE ( 'NONE', #1110, 16.49999999999998579 ) ;
#790 = VECTOR ( 'NONE', #1122, 1000.000000000000000 ) ;
#791 = DIRECTION ( 'NONE',  ( 0.000000000000000000, 0.000000000000000000, 1.000000000000000000 ) ) ;
#792 = ORIENTED_EDGE ( 'NONE', *, *, #275, .F. ) ;
#793 = ADVANCED_FACE ( 'NONE', ( #1058 ), #977, .T. ) ;
#794 = EDGE_LOOP ( 'NONE', ( #926, #744, #354, #16 ) ) ;
#795 = DIRECTION ( 'NONE',  ( -0.000000000000000000, 1.000000000000000000, 3.061616997868383141E-16 ) ) ;
#796 = EDGE_CURVE ( 'NONE', #1117, #90, #889, .T. ) ;
#797 = CARTESIAN_POINT ( 'NONE',  ( 0.000000000000000000, 40.00000000000000000, 1.463326110704838350E-14 ) ) ;
#798 = ORIENTED_EDGE ( 'NONE', *, *, #591, .F. ) ;
#799 = PLANE ( 'NONE',  #385 ) ;
#800 = ORIENTED_EDGE ( 'NONE', *, *, #486, .F. ) ;
#801 = CARTESIAN_POINT ( 'NONE',  ( 1.530808498934190732E-15, 30.40000000000000568, -12.49999999999998224 ) ) ;
#802 = DIRECTION ( 'NONE',  ( -0.000000000000000000, 1.000000000000000000, 3.061616997868383141E-16 ) ) ;
#803 = ORIENTED_EDGE ( 'NONE', *, *, #628, .F. ) ;
#804 = CARTESIAN_POINT ( 'NONE',  ( 0.000000000000000000, 39.99999999999999289, 15.68372692879402663 ) ) ;
#805 = EDGE_LOOP ( 'NONE', ( #685, #330, #155, #451 ) ) ;
#806 = CARTESIAN_POINT ( 'NONE',  ( 0.000000000000000000, -19.69999999999999574, -3.644592370225861814E-15 ) ) ;
#807 = AXIS2_PLACEMENT_3D ( 'NONE', #226, #232, #72 ) ;
#808 = AXIS2_PLACEMENT_3D ( 'NONE', #551, #636, #978 ) ;
#809 = ADVANCED_FACE ( 'NONE', ( #194, #124 ), #919, .T. ) ;
#810 = AXIS2_PLACEMENT_3D ( 'NONE', #106, #361, #818 ) ;
#811 = AXIS2_PLACEMENT_3D ( 'NONE', #937, #152, #1067 ) ;
#812 = EDGE_CURVE ( 'NONE', #565, #748, #995, .T. ) ;
#813 = DIRECTION ( 'NONE',  ( 0.000000000000000000, 0.000000000000000000, -1.000000000000000000 ) ) ;
#814 = ORIENTED_EDGE ( 'NONE', *, *, #192, .T. ) ;
#815 = FACE_OUTER_BOUND ( 'NONE', #976, .T. ) ;
#816 = ADVANCED_FACE ( 'NONE', ( #140 ), #761, .T. ) ;
#817 = EDGE_LOOP ( 'NONE', ( #634, #500, #561, #12 ) ) ;
#818 = DIRECTION ( 'NONE',  ( 0.000000000000000000, -2.775557561562892830E-16, 1.000000000000000000 ) ) ;
#819 = CARTESIAN_POINT ( 'NONE',  ( 0.000000000000000000, -19.69999999999999929, 12.89999999999999147 ) ) ;
#820 = ORIENTED_EDGE ( 'NONE', *, *, #874, .T. ) ;
#821 = EDGE_LOOP ( 'NONE', ( #666, #831 ) ) ;
#822 = DIRECTION ( 'NONE',  ( -0.000000000000000000, 1.000000000000000000, 3.061616997868383141E-16 ) ) ;
#823 = DIRECTION ( 'NONE',  ( 0.000000000000000000, -3.182978855003316285E-16, 1.000000000000000000 ) ) ;
#824 = ORIENTED_EDGE ( 'NONE', *, *, #338, .F. ) ;
#825 = PLANE ( 'NONE',  #915 ) ;
#826 = ADVANCED_FACE ( 'NONE', ( #224 ), #654, .T. ) ;
#827 = AXIS2_PLACEMENT_3D ( 'NONE', #1024, #678, #1101 ) ;
#828 = FACE_OUTER_BOUND ( 'NONE', #483, .T. ) ;
#829 = CIRCLE ( 'NONE', #845, 16.49999999999999645 ) ;
#830 = VERTEX_POINT ( 'NONE', #47 ) ;
#831 = ORIENTED_EDGE ( 'NONE', *, *, #676, .F. ) ;
#832 = DIRECTION ( 'NONE',  ( 0.000000000000000000, -2.915501640297156749E-16, 1.000000000000000000 ) ) ;
#833 = EDGE_CURVE ( 'NONE', #425, #61, #345, .T. ) ;
#834 = CARTESIAN_POINT ( 'NONE',  ( 0.000000000000000000, 29.00000000000000711, 8.878689293818314018E-15 ) ) ;
#835 = DIRECTION ( 'NONE',  ( -0.000000000000000000, 1.000000000000000000, 3.061616997868383141E-16 ) ) ;
#836 = ORIENTED_EDGE ( 'NONE', *, *, #618, .T. ) ;
#837 = DIRECTION ( 'NONE',  ( -0.000000000000000000, 1.000000000000000000, 3.061616997868383141E-16 ) ) ;
#838 = CARTESIAN_POINT ( 'NONE',  ( 1.457329690985349407E-15, 28.00000000000000711, -11.89999999999998259 ) ) ;
#839 = DIRECTION ( 'NONE',  ( -0.000000000000000000, 1.000000000000000000, 3.061616997868383141E-16 ) ) ;
#840 = VERTEX_POINT ( 'NONE', #671 ) ;
#841 = CARTESIAN_POINT ( 'NONE',  ( 0.000000000000000000, 32.00000000000000711, 8.000000000000010658 ) ) ;
#842 = ADVANCED_FACE ( 'NONE', ( #749 ), #745, .T. ) ;
#843 = ORIENTED_EDGE ( 'NONE', *, *, #126, .F. ) ;
#844 = VECTOR ( 'NONE', #1097, 1000.000000000000000 ) ;
#845 = AXIS2_PLACEMENT_3D ( 'NONE', #450, #13, #97 ) ;
#846 = ORIENTED_EDGE ( 'NONE', *, *, #503, .F. ) ;
#847 = FACE_OUTER_BOUND ( 'NONE', #188, .T. ) ;
#848 = DIRECTION ( 'NONE',  ( 0.000000000000000000, -2.478176394252581634E-16, 1.000000000000000000 ) ) ;
#849 = ORIENTED_EDGE ( 'NONE', *, *, #909, .T. ) ;
#850 = DIRECTION ( 'NONE',  ( 0.000000000000000000, -5.831003280594313497E-16, 1.000000000000000000 ) ) ;
#851 = CARTESIAN_POINT ( 'NONE',  ( 0.000000000000000000, 32.00000000000000000, 1.218396750875367896E-14 ) ) ;
#852 = EDGE_LOOP ( 'NONE', ( #187, #836 ) ) ;
#853 = CARTESIAN_POINT ( 'NONE',  ( 0.000000000000000000, -32.00000000000000711, 3.249999999999991562 ) ) ;
#854 = ADVANCED_FACE ( 'NONE', ( #847 ), #144, .T. ) ;
#855 = DIRECTION ( 'NONE',  ( -0.000000000000000000, 1.000000000000000000, 3.061616997868383141E-16 ) ) ;
#856 = AXIS2_PLACEMENT_3D ( 'NONE', #934, #167, #420 ) ;
#857 = DIRECTION ( 'NONE',  ( -0.000000000000000000, 1.000000000000000000, 3.061616997868383141E-16 ) ) ;
#858 = CIRCLE ( 'NONE', #308, 10.90000000000000036 ) ;
#859 = ORIENTED_EDGE ( 'NONE', *, *, #1104, .T. ) ;
#860 = DIRECTION ( 'NONE',  ( 0.000000000000000000, -2.212131700395776895E-16, 1.000000000000000000 ) ) ;
#861 = VECTOR ( 'NONE', #94, 1000.000000000000000 ) ;
#862 = CIRCLE ( 'NONE', #1132, 8.000000000000000000 ) ;
#863 = CARTESIAN_POINT ( 'NONE',  ( 0.000000000000000000, -24.00000000000000000, -4.961087679309267024E-15 ) ) ;
#864 = FACE_BOUND ( 'NONE', #883, .T. ) ;
#865 = ORIENTED_EDGE ( 'NONE', *, *, #710, .F. ) ;
#866 = CARTESIAN_POINT ( 'NONE',  ( 9.797174393178825657E-16, 29.00000000000001066, -7.999999999999991118 ) ) ;
#867 = EDGE_CURVE ( 'NONE', #982, #90, #230, .T. ) ;
#868 = DIRECTION ( 'NONE',  ( 0.000000000000000000, -4.424263400791554776E-16, 1.000000000000000000 ) ) ;
#869 = FACE_OUTER_BOUND ( 'NONE', #757, .T. ) ;
#870 = ORIENTED_EDGE ( 'NONE', *, *, #1053, .T. ) ;
#871 = CARTESIAN_POINT ( 'NONE',  ( 0.000000000000000000, 30.40000000000000213, 1.169410878909473679E-14 ) ) ;
#872 = FACE_OUTER_BOUND ( 'NONE', #805, .T. ) ;
#873 = DIRECTION ( 'NONE',  ( -0.000000000000000000, 1.000000000000000000, 3.061616997868383141E-16 ) ) ;
#874 = EDGE_CURVE ( 'NONE', #74, #748, #789, .T. ) ;
#875 = VERTEX_POINT ( 'NONE', #393 ) ;
#876 = FACE_OUTER_BOUND ( 'NONE', #392, .T. ) ;
#877 = AXIS2_PLACEMENT_3D ( 'NONE', #24, #29, #736 ) ;
#878 = AXIS2_PLACEMENT_3D ( 'NONE', #881, #777, #605 ) ;
#879 = ORIENTED_EDGE ( 'NONE', *, *, #935, .F. ) ;
#880 = ADVANCED_FACE ( 'NONE', ( #674 ), #587, .T. ) ;
#881 = CARTESIAN_POINT ( 'NONE',  ( 0.000000000000000000, 40.00000000000000000, 1.463326110704838350E-14 ) ) ;
#882 = CARTESIAN_POINT ( 'NONE',  ( 0.000000000000000000, 27.00000000000000355, 1.065315900981948645E-14 ) ) ;
#883 = EDGE_LOOP ( 'NONE', ( #764, #525 ) ) ;
#884 = ORIENTED_EDGE ( 'NONE', *, *, #812, .T. ) ;
#885 = DIRECTION ( 'NONE',  ( 0.000000000000000000, -2.478176394252583606E-16, 1.000000000000000000 ) ) ;
#886 = CARTESIAN_POINT ( 'NONE',  ( 0.000000000000000000, -32.00000000000000000, -7.351650084168185856E-15 ) ) ;
#887 = EDGE_LOOP ( 'NONE', ( #172, #1057, #879, #584 ) ) ;
#888 = ORIENTED_EDGE ( 'NONE', *, *, #762, .T. ) ;
#889 = LINE ( 'NONE', #724, #570 ) ;
#890 = EDGE_CURVE ( 'NONE', #61, #974, #566, .T. ) ;
#891 = DIRECTION ( 'NONE',  ( -0.000000000000000000, 1.000000000000000000, 3.061616997868383141E-16 ) ) ;
#892 = EDGE_CURVE ( 'NONE', #401, #830, #912, .T. ) ;
#893 = ORIENTED_EDGE ( 'NONE', *, *, #28, .T. ) ;
#894 = FACE_OUTER_BOUND ( 'NONE', #358, .T. ) ;
#895 = EDGE_LOOP ( 'NONE', ( #459, #792, #1111, #441 ) ) ;
#896 = CARTESIAN_POINT ( 'NONE',  ( 2.020667218593132706E-15, -14.19999999999998508, -16.50000000000000000 ) ) ;
#897 = AXIS2_PLACEMENT_3D ( 'NONE', #945, #162, #514 ) ;
#898 = CIRCLE ( 'NONE', #1017, 12.40000000000000036 ) ;
#899 = CIRCLE ( 'NONE', #811, 16.49999999999998579 ) ;
#900 = CYLINDRICAL_SURFACE ( 'NONE', #604, 15.68372692879401242 ) ;
#901 = ORIENTED_EDGE ( 'NONE', *, *, #192, .F. ) ;
#902 = VERTEX_POINT ( 'NONE', #841 ) ;
#903 = DIRECTION ( 'NONE',  ( -0.000000000000000000, 1.000000000000000000, 3.061616997868383141E-16 ) ) ;
#904 = DIRECTION ( 'NONE',  ( -0.000000000000000000, 1.000000000000000000, 3.061616997868383141E-16 ) ) ;
#905 = ORIENTED_EDGE ( 'NONE', *, *, #70, .T. ) ;
#906 = DIRECTION ( 'NONE',  ( 0.000000000000000000, -2.478176394252581634E-16, 1.000000000000000000 ) ) ;
#907 = DIRECTION ( 'NONE',  ( -0.000000000000000000, 1.000000000000000000, 3.061616997868383141E-16 ) ) ;
#908 = DIRECTION ( 'NONE',  ( 0.000000000000000000, -4.956352788505167212E-16, 1.000000000000000000 ) ) ;
#909 = EDGE_CURVE ( 'NONE', #527, #658, #1009, .T. ) ;
#910 = EDGE_CURVE ( 'NONE', #534, #87, #1094, .T. ) ;
#911 = ORIENTED_EDGE ( 'NONE', *, *, #404, .T. ) ;
#912 = LINE ( 'NONE', #216, #107 ) ;
#913 = AXIS2_PLACEMENT_3D ( 'NONE', #493, #731, #559 ) ;
#914 = AXIS2_PLACEMENT_3D ( 'NONE', #1022, #746, #660 ) ;
#915 = AXIS2_PLACEMENT_3D ( 'NONE', #387, #740, #185 ) ;
#916 = DIRECTION ( 'NONE',  ( 0.000000000000000000, -0.7071067811865452413, -0.7071067811865497932 ) ) ;
#917 = AXIS2_PLACEMENT_3D ( 'NONE', #1020, #615, #959 ) ;
#918 = ORIENTED_EDGE ( 'NONE', *, *, #935, .T. ) ;
#919 = PLANE ( 'NONE',  #735 ) ;
#920 = FACE_OUTER_BOUND ( 'NONE', #940, .T. ) ;
#921 = DIRECTION ( 'NONE',  ( -0.000000000000000000, 1.000000000000000000, 3.061616997868383141E-16 ) ) ;
#922 = ORIENTED_EDGE ( 'NONE', *, *, #1006, .T. ) ;
#923 = DIRECTION ( 'NONE',  ( 0.000000000000000000, -2.689493761204352918E-16, 1.000000000000000000 ) ) ;
#924 = EDGE_CURVE ( 'NONE', #539, #1102, #402, .T. ) ;
#925 = CYLINDRICAL_SURFACE ( 'NONE', #913, 12.49999999999999289 ) ;
#926 = ORIENTED_EDGE ( 'NONE', *, *, #1079, .F. ) ;
#927 = CARTESIAN_POINT ( 'NONE',  ( 0.000000000000000000, 40.00000000000000000, 1.463326110704838350E-14 ) ) ;
#928 = CIRCLE ( 'NONE', #326, 15.68372692879401598 ) ;
#929 = FACE_OUTER_BOUND ( 'NONE', #817, .T. ) ;
#930 = AXIS2_PLACEMENT_3D ( 'NONE', #251, #156, #860 ) ;
#931 = AXIS2_PLACEMENT_3D ( 'NONE', #243, #173, #765 ) ;
#932 = ORIENTED_EDGE ( 'NONE', *, *, #317, .T. ) ;
#933 = CARTESIAN_POINT ( 'NONE',  ( 3.061616997868382648E-16, -31.98999999999999844, 2.499999999999992895 ) ) ;
#934 = CARTESIAN_POINT ( 'NONE',  ( 0.000000000000000000, 28.60000000000001208, 1.114301772947843020E-14 ) ) ;
#935 = EDGE_CURVE ( 'NONE', #410, #768, #310, .T. ) ;
#936 = VERTEX_POINT ( 'NONE', #933 ) ;
#937 = CARTESIAN_POINT ( 'NONE',  ( 0.000000000000000000, 21.50000000000000000, 8.969269660991876589E-15 ) ) ;
#938 = CARTESIAN_POINT ( 'NONE',  ( 0.000000000000000000, 40.00000000000000000, 1.463326110704838350E-14 ) ) ;
#939 = LINE ( 'NONE', #318, #416 ) ;
#940 = EDGE_LOOP ( 'NONE', ( #803, #135 ) ) ;
#941 = DIRECTION ( 'NONE',  ( -0.000000000000000000, 1.000000000000000000, 3.061616997868383141E-16 ) ) ;
#942 = DIRECTION ( 'NONE',  ( 0.000000000000000000, 0.7071067811865485719, 0.7071067811865465735 ) ) ;
#943 = PRODUCT_RELATED_PRODUCT_CATEGORY ( 'part', '', ( #108 ) ) ;
#944 = AXIS2_PLACEMENT_3D ( 'NONE', #590, #321, #773 ) ;
#945 = CARTESIAN_POINT ( 'NONE',  ( 0.000000000000000000, 26.75000000000000355, 1.057661858487277856E-14 ) ) ;
#946 = AXIS2_PLACEMENT_3D ( 'NONE', #364, #627, #813 ) ;
#947 = ADVANCED_FACE ( 'NONE', ( #501 ), #769, .T. ) ;
#948 = VERTEX_POINT ( 'NONE', #526 ) ;
#949 = DIRECTION ( 'NONE',  ( 0.000000000000000000, 0.000000000000000000, 1.000000000000000000 ) ) ;
#950 = AXIS2_PLACEMENT_3D ( 'NONE', #153, #855, #69 ) ;
#951 = DIRECTION ( 'NONE',  ( -0.000000000000000000, 1.000000000000000000, 3.061616997868383141E-16 ) ) ;
#952 = CARTESIAN_POINT ( 'NONE',  ( 1.457329690985349407E-15, 40.00000000000000711, -11.89999999999997904 ) ) ;
#953 = ORIENTED_EDGE ( 'NONE', *, *, #867, .T. ) ;
#954 = DIRECTION ( 'NONE',  ( -0.000000000000000000, 1.000000000000000000, 3.061616997868383141E-16 ) ) ;
#955 = CARTESIAN_POINT ( 'NONE',  ( 1.579794370900085344E-15, -19.69999999999998508, -12.90000000000000036 ) ) ;
#956 = CARTESIAN_POINT ( 'NONE',  ( 0.000000000000000000, 31.00000000000000355, 1.187780580896683951E-14 ) ) ;
#957 = ADVANCED_FACE ( 'NONE', ( #75 ), #597, .T. ) ;
#958 = ORIENTED_EDGE ( 'NONE', *, *, #993, .T. ) ;
#959 = DIRECTION ( 'NONE',  ( 0.000000000000000000, -2.212131700395776895E-16, 1.000000000000000000 ) ) ;
#960 = CARTESIAN_POINT ( 'NONE',  ( 1.457329690985348815E-15, 31.00000000000000000, 11.90000000000000036 ) ) ;
#961 = FACE_OUTER_BOUND ( 'NONE', #26, .T. ) ;
#962 = ORIENTED_EDGE ( 'NONE', *, *, #1036, .T. ) ;
#963 = AXIS2_PLACEMENT_3D ( 'NONE', #834, #558, #1093 ) ;
#964 = VECTOR ( 'NONE', #88, 1000.000000000000000 ) ;
#965 = ORIENTED_EDGE ( 'NONE', *, *, #237, .T. ) ;
#966 = FACE_OUTER_BOUND ( 'NONE', #1129, .T. ) ;
#967 = AXIS2_PLACEMENT_3D ( 'NONE', #1112, #785, #1038 ) ;
#968 = FACE_BOUND ( 'NONE', #1037, .T. ) ;
#969 = VERTEX_POINT ( 'NONE', #85 ) ;
#970 = DIRECTION ( 'NONE',  ( 1.000000000000000000, 0.000000000000000000, 0.000000000000000000 ) ) ;
#971 = EDGE_LOOP ( 'NONE', ( #653, #820 ) ) ;
#972 = CARTESIAN_POINT ( 'NONE',  ( 0.000000000000000000, 26.75000000000000355, 1.057661858487277856E-14 ) ) ;
#973 = DIRECTION ( 'NONE',  ( -0.000000000000000000, 1.000000000000000000, 3.061616997868383141E-16 ) ) ;
#974 = VERTEX_POINT ( 'NONE', #698 ) ;
#975 = CARTESIAN_POINT ( 'NONE',  ( 0.000000000000000000, 0.000000000000000000, 0.000000000000000000 ) ) ;
#976 = EDGE_LOOP ( 'NONE', ( #2, #254 ) ) ;
#977 = CYLINDRICAL_SURFACE ( 'NONE', #552, 11.89999999999998792 ) ;
#978 = DIRECTION ( 'NONE',  ( 0.000000000000000000, -3.182978855003315792E-16, 1.000000000000000000 ) ) ;
#979 = VERTEX_POINT ( 'NONE', #853 ) ;
#980 = CARTESIAN_POINT ( 'NONE',  ( 1.714505518806293060E-15, 26.75000000000000711, -13.99999999999997691 ) ) ;
#981 = AXIS2_PLACEMENT_3D ( 'NONE', #409, #595, #53 ) ;
#982 = VERTEX_POINT ( 'NONE', #522 ) ;
#983 = CARTESIAN_POINT ( 'NONE',  ( 1.457329690985348815E-15, 32.00000000000000711, -11.89999999999997726 ) ) ;
#984 = AXIS2_PLACEMENT_3D ( 'NONE', #609, #60, #413 ) ;
#985 = PRODUCT_DEFINITION_SHAPE ( 'NONE', 'NONE',  #774 ) ;
#986 = CARTESIAN_POINT ( 'NONE',  ( 1.579794370900085344E-15, 40.00000000000000711, -12.89999999999998259 ) ) ;
#987 = EDGE_LOOP ( 'NONE', ( #962, #105 ) ) ;
#988 = CYLINDRICAL_SURFACE ( 'NONE', #199, 10.89999999999999858 ) ;
#989 = ADVANCED_FACE ( 'NONE', ( #776 ), #532, .T. ) ;
#990 = DIRECTION ( 'NONE',  ( -0.000000000000000000, 1.000000000000000000, 3.061616997868383141E-16 ) ) ;
#991 = EDGE_CURVE ( 'NONE', #902, #536, #202, .T. ) ;
#992 = SURFACE_STYLE_FILL_AREA ( #117 ) ;
#993 = EDGE_CURVE ( 'NONE', #61, #425, #217, .T. ) ;
#994 = ORIENTED_EDGE ( 'NONE', *, *, #645, .F. ) ;
#995 = LINE ( 'NONE', #1085, #844 ) ;
#996 = DIRECTION ( 'NONE',  ( -0.000000000000000000, 1.000000000000000000, 3.061616997868383141E-16 ) ) ;
#997 = CARTESIAN_POINT ( 'NONE',  ( 0.000000000000000000, -16.69999999999999929, -2.726107270865348992E-15 ) ) ;
#998 = EDGE_LOOP ( 'NONE', ( #515, #276 ) ) ;
#999 = CARTESIAN_POINT ( 'NONE',  ( 0.000000000000000000, 28.60000000000000853, 12.50000000000000355 ) ) ;
#1000 = CIRCLE ( 'NONE', #11, 11.89999999999998792 ) ;
#1001 = VECTOR ( 'NONE', #146, 1000.000000000000000 ) ;
#1002 = VECTOR ( 'NONE', #631, 1000.000000000000000 ) ;
#1003 = DIRECTION ( 'NONE',  ( 0.000000000000000000, 0.000000000000000000, -1.000000000000000000 ) ) ;
#1004 = VECTOR ( 'NONE', #638, 1000.000000000000000 ) ;
#1005 = ORIENTED_EDGE ( 'NONE', *, *, #589, .T. ) ;
#1006 = EDGE_CURVE ( 'NONE', #1099, #464, #1103, .T. ) ;
#1007 = ORIENTED_EDGE ( 'NONE', *, *, #688, .F. ) ;
#1008 = EDGE_CURVE ( 'NONE', #1025, #775, #862, .T. ) ;
#1009 = LINE ( 'NONE', #221, #665 ) ;
#1010 = EDGE_CURVE ( 'NONE', #1102, #1019, #756, .T. ) ;
#1011 = DIRECTION ( 'NONE',  ( -0.000000000000000000, 1.000000000000000000, 3.061616997868383141E-16 ) ) ;
#1012 = ORIENTED_EDGE ( 'NONE', *, *, #4, .F. ) ;
#1013 = CARTESIAN_POINT ( 'NONE',  ( 0.000000000000000000, 21.50000000000000000, 8.969269660991876589E-15 ) ) ;
#1014 = DIRECTION ( 'NONE',  ( -0.000000000000000000, 1.000000000000000000, 3.061616997868383141E-16 ) ) ;
#1015 = EDGE_LOOP ( 'NONE', ( #319, #888, #596, #98 ) ) ;
#1016 = CARTESIAN_POINT ( 'NONE',  ( 0.000000000000000000, 30.40000000000000213, 1.169410878909473679E-14 ) ) ;
#1017 = AXIS2_PLACEMENT_3D ( 'NONE', #375, #903, #714 ) ;
#1018 = CARTESIAN_POINT ( 'NONE',  ( 0.000000000000000000, 31.00000000000000711, -11.89999999999997904 ) ) ;
#1019 = VERTEX_POINT ( 'NONE', #335 ) ;
#1020 = CARTESIAN_POINT ( 'NONE',  ( 0.000000000000000000, 21.50000000000000000, 8.969269660991876589E-15 ) ) ;
#1021 = ORIENTED_EDGE ( 'NONE', *, *, #1065, .F. ) ;
#1022 = CARTESIAN_POINT ( 'NONE',  ( 0.000000000000000000, -26.02316495722359946, -5.580503301562010913E-15 ) ) ;
#1023 = ADVANCED_FACE ( 'NONE', ( #876 ), #323, .T. ) ;
#1024 = CARTESIAN_POINT ( 'NONE',  ( 0.000000000000000000, 27.00000000000000355, 1.065315900981948645E-14 ) ) ;
#1025 = VERTEX_POINT ( 'NONE', #681 ) ;
#1026 = LINE ( 'NONE', #422, #790 ) ;
#1027 = CARTESIAN_POINT ( 'NONE',  ( 1.530808498934190732E-15, 40.00000000000000711, -12.49999999999998046 ) ) ;
#1028 = CARTESIAN_POINT ( 'NONE',  ( 0.000000000000000000, -24.49999999999999645, 10.89999999999999325 ) ) ;
#1029 = ORIENTED_EDGE ( 'NONE', *, *, #160, .T. ) ;
#1030 = DIRECTION ( 'NONE',  ( -0.000000000000000000, 1.000000000000000000, 3.061616997868383141E-16 ) ) ;
#1031 = APPLICATION_CONTEXT ( 'automotive_design' ) ;
#1032 = CARTESIAN_POINT ( 'NONE',  ( 1.334865011070614850E-15, -24.49999999999999645, -10.90000000000000391 ) ) ;
#1033 = STYLED_ITEM ( 'NONE', ( #669 ), #23 ) ;
#1034 = CARTESIAN_POINT ( 'NONE',  ( 0.000000000000000000, 26.75000000000000355, 1.057661858487277856E-14 ) ) ;
#1035 = CIRCLE ( 'NONE', #142, 12.40000000000000036 ) ;
#1036 = EDGE_CURVE ( 'NONE', #658, #630, #437, .T. ) ;
#1037 = EDGE_LOOP ( 'NONE', ( #727, #739 ) ) ;
#1038 = DIRECTION ( 'NONE',  ( 0.000000000000000000, 2.915501640297157735E-16, -1.000000000000000000 ) ) ;
#1039 = AXIS2_PLACEMENT_3D ( 'NONE', #938, #3, #709 ) ;
#1040 = CIRCLE ( 'NONE', #478, 8.000000000000000000 ) ;
#1041 = DIRECTION ( 'NONE',  ( -0.000000000000000000, 1.000000000000000000, 3.061616997868383141E-16 ) ) ;
#1042 = EDGE_CURVE ( 'NONE', #768, #410, #271, .T. ) ;
#1043 = EDGE_CURVE ( 'NONE', #536, #902, #1040, .T. ) ;
#1044 = DIRECTION ( 'NONE',  ( -0.000000000000000000, 1.000000000000000000, 3.061616997868383141E-16 ) ) ;
#1045 = EDGE_LOOP ( 'NONE', ( #521, #449, #445, #1054 ) ) ;
#1046 = DIRECTION ( 'NONE',  ( 0.000000000000000000, 1.000000000000000000, 3.061616997868383141E-16 ) ) ;
#1047 = DIRECTION ( 'NONE',  ( -0.000000000000000000, 1.000000000000000000, 3.061616997868383141E-16 ) ) ;
#1048 = PLANE ( 'NONE',  #583 ) ;
#1049 = ORIENTED_EDGE ( 'NONE', *, *, #741, .T. ) ;
#1050 = ORIENTED_EDGE ( 'NONE', *, *, #1010, .F. ) ;
#1051 = CARTESIAN_POINT ( 'NONE',  ( 1.457329690985348815E-15, 40.00000000000000711, -11.89999999999997549 ) ) ;
#1052 = FACE_OUTER_BOUND ( 'NONE', #223, .T. ) ;
#1053 = EDGE_CURVE ( 'NONE', #1066, #875, #458, .T. ) ;
#1054 = ORIENTED_EDGE ( 'NONE', *, *, #1104, .F. ) ;
#1055 = DIRECTION ( 'NONE',  ( 0.000000000000000000, -1.000000000000000000, -3.061616997868383141E-16 ) ) ;
#1056 = VECTOR ( 'NONE', #244, 1000.000000000000000 ) ;
#1057 = ORIENTED_EDGE ( 'NONE', *, *, #546, .T. ) ;
#1058 = FACE_OUTER_BOUND ( 'NONE', #760, .T. ) ;
#1059 = CYLINDRICAL_SURFACE ( 'NONE', #435, 11.89999999999998792 ) ;
#1060 = ORIENTED_EDGE ( 'NONE', *, *, #1075, .T. ) ;
#1061 =( LENGTH_UNIT ( ) NAMED_UNIT ( * ) SI_UNIT ( .MILLI., .METRE. ) );
#1062 = ORIENTED_EDGE ( 'NONE', *, *, #447, .T. ) ;
#1063 = DIRECTION ( 'NONE',  ( -0.000000000000000000, 1.000000000000000000, 3.061616997868383141E-16 ) ) ;
#1064 = FACE_OUTER_BOUND ( 'NONE', #348, .T. ) ;
#1065 = EDGE_CURVE ( 'NONE', #1025, #902, #1026, .T. ) ;
#1066 = VERTEX_POINT ( 'NONE', #1116 ) ;
#1067 = DIRECTION ( 'NONE',  ( 0.000000000000000000, -2.102695122396131642E-16, 1.000000000000000000 ) ) ;
#1068 = ORIENTED_EDGE ( 'NONE', *, *, #328, .F. ) ;
#1069 = DIRECTION ( 'NONE',  ( -0.000000000000000000, 1.000000000000000000, 3.061616997868383141E-16 ) ) ;
#1070 = FACE_OUTER_BOUND ( 'NONE', #377, .T. ) ;
#1071 = CARTESIAN_POINT ( 'NONE',  ( 0.000000000000000000, 31.00000000000000355, 1.187780580896683951E-14 ) ) ;
#1072 = AXIS2_PLACEMENT_3D ( 'NONE', #1034, #778, #1114 ) ;
#1073 = ORIENTED_EDGE ( 'NONE', *, *, #1123, .F. ) ;
#1074 = DIRECTION ( 'NONE',  ( -0.000000000000000000, 1.000000000000000000, 3.061616997868383141E-16 ) ) ;
#1075 = EDGE_CURVE ( 'NONE', #504, #697, #419, .T. ) ;
#1076 = AXIS2_PLACEMENT_3D ( 'NONE', #307, #667, #136 ) ;
#1077 = CONICAL_SURFACE ( 'NONE', #50, 16.49999999999999645, 0.7853981633974466137 ) ;
#1078 = LINE ( 'NONE', #986, #48 ) ;
#1079 = EDGE_CURVE ( 'NONE', #775, #536, #234, .T. ) ;
#1080 = FILL_AREA_STYLE_COLOUR ( '', #31 ) ;
#1081 = ORIENTED_EDGE ( 'NONE', *, *, #196, .T. ) ;
#1082 = CARTESIAN_POINT ( 'NONE',  ( 0.000000000000000000, 40.00000000000000000, 1.463326110704838350E-14 ) ) ;
#1083 = DIRECTION ( 'NONE',  ( -0.000000000000000000, 1.000000000000000000, 3.061616997868383141E-16 ) ) ;
#1084 = ORIENTED_EDGE ( 'NONE', *, *, #924, .T. ) ;
#1085 = CARTESIAN_POINT ( 'NONE',  ( 0.000000000000000000, 39.99999999999999289, 16.50000000000000355 ) ) ;
#1086 = EDGE_CURVE ( 'NONE', #748, #74, #899, .T. ) ;
#1087 = CARTESIAN_POINT ( 'NONE',  ( 0.000000000000000000, 40.00000000000000000, 1.463326110704838350E-14 ) ) ;
#1088 = FACE_BOUND ( 'NONE', #577, .T. ) ;
#1089 = VERTEX_POINT ( 'NONE', #283 ) ;
#1090 = DIRECTION ( 'NONE',  ( -0.000000000000000000, 1.000000000000000000, 3.061616997868383141E-16 ) ) ;
#1091 = ADVANCED_FACE ( 'NONE', ( #815 ), #799, .T. ) ;
#1092 = APPLICATION_CONTEXT ( 'automotive_design' ) ;
#1093 = DIRECTION ( 'NONE',  ( 0.000000000000000000, -4.336808689942017736E-16, 1.000000000000000000 ) ) ;
#1094 = CIRCLE ( 'NONE', #327, 12.89999999999999680 ) ;
#1095 = DIRECTION ( 'NONE',  ( 0.000000000000000000, -3.061616997868383141E-16, 1.000000000000000000 ) ) ;
#1096 = ORIENTED_EDGE ( 'NONE', *, *, #113, .F. ) ;
#1097 = DIRECTION ( 'NONE',  ( -0.000000000000000000, 1.000000000000000000, 3.061616997868383141E-16 ) ) ;
#1098 = CARTESIAN_POINT ( 'NONE',  ( 0.000000000000000000, 26.75000000000000711, -14.24999999999997868 ) ) ;
#1099 = VERTEX_POINT ( 'NONE', #91 ) ;
#1100 = DIRECTION ( 'NONE',  ( 0.000000000000000000, 0.7071067811865503483, 0.7071067811865445751 ) ) ;
#1101 = DIRECTION ( 'NONE',  ( 0.000000000000000000, -2.915501640297156749E-16, 1.000000000000000000 ) ) ;
#1102 = VERTEX_POINT ( 'NONE', #648 ) ;
#1103 = LINE ( 'NONE', #239, #771 ) ;
#1104 = EDGE_CURVE ( 'NONE', #948, #565, #829, .T. ) ;
#1105 = AXIS2_PLACEMENT_3D ( 'NONE', #1071, #921, #134 ) ;
#1106 = EDGE_CURVE ( 'NONE', #875, #1102, #545, .T. ) ;
#1107 = CIRCLE ( 'NONE', #382, 13.99999999999998757 ) ;
#1108 = VECTOR ( 'NONE', #1074, 1000.000000000000000 ) ;
#1109 = DIRECTION ( 'NONE',  ( -0.000000000000000000, 1.000000000000000000, 3.061616997868383141E-16 ) ) ;
#1110 = AXIS2_PLACEMENT_3D ( 'NONE', #1013, #302, #148 ) ;
#1111 = ORIENTED_EDGE ( 'NONE', *, *, #352, .T. ) ;
#1112 = CARTESIAN_POINT ( 'NONE',  ( 0.000000000000000000, 31.00000000000000355, 1.187780580896683951E-14 ) ) ;
#1113 = LINE ( 'NONE', #332, #161 ) ;
#1114 = DIRECTION ( 'NONE',  ( 0.000000000000000000, -2.434699615406047190E-16, 1.000000000000000000 ) ) ;
#1115 = ORIENTED_EDGE ( 'NONE', *, *, #317, .F. ) ;
#1116 = CARTESIAN_POINT ( 'NONE',  ( 1.920702598204873800E-15, 21.50000000000000355, -15.68372692879400532 ) ) ;
#1117 = VERTEX_POINT ( 'NONE', #980 ) ;
#1118 = CARTESIAN_POINT ( 'NONE',  ( 9.797174393178825657E-16, 32.00000000000000711, -7.999999999999989342 ) ) ;
#1119 = ADVANCED_FACE ( 'NONE', ( #894 ), #1077, .T. ) ;
#1120 = CARTESIAN_POINT ( 'NONE',  ( 0.000000000000000000, -19.69999999999999218, 12.89999999999999325 ) ) ;
#1121 = EDGE_LOOP ( 'NONE', ( #541, #932, #272, #93 ) ) ;
#1122 = DIRECTION ( 'NONE',  ( -0.000000000000000000, 1.000000000000000000, 3.061616997868383141E-16 ) ) ;
#1123 = EDGE_CURVE ( 'NONE', #87, #534, #347, .T. ) ;
#1124 = CARTESIAN_POINT ( 'NONE',  ( 1.494069094959769872E-15, 31.00000000000000000, 11.90000000000000213 ) ) ;
#1125 =( GEOMETRIC_REPRESENTATION_CONTEXT ( 3 ) GLOBAL_UNCERTAINTY_ASSIGNED_CONTEXT ( ( #1134 ) ) GLOBAL_UNIT_ASSIGNED_CONTEXT ( ( #576, #754, #747 ) ) REPRESENTATION_CONTEXT ( 'NONE', 'WORKASPACE' ) );
#1126 = AXIS2_PLACEMENT_3D ( 'NONE', #886, #543, #267 ) ;
#1127 = CARTESIAN_POINT ( 'NONE',  ( 0.000000000000000000, -31.98999999999999844, -2.500000000000007550 ) ) ;
#1128 = AXIS2_PLACEMENT_3D ( 'NONE', #1028, #241, #599 ) ;
#1129 = EDGE_LOOP ( 'NONE', ( #67, #1029 ) ) ;
#1130 = CARTESIAN_POINT ( 'NONE',  ( 0.000000000000000000, 28.00000000000000355, 1.095932070960632590E-14 ) ) ;
#1131 = VECTOR ( 'NONE', #616, 1000.000000000000114 ) ;
#1132 = AXIS2_PLACEMENT_3D ( 'NONE', #62, #349, #415 ) ;
#1133 = DIRECTION ( 'NONE',  ( 0.000000000000000000, -2.212131700395776895E-16, 1.000000000000000000 ) ) ;
#1134 = UNCERTAINTY_MEASURE_WITH_UNIT (LENGTH_MEASURE( 1.000000000000000082E-05 ), #576, 'distance_accuracy_value', 'NONE');
#1135 = CARTESIAN_POINT ( 'NONE',  ( 0.000000000000000000, 26.75000000000000355, 1.057661858487277856E-14 ) ) ;
ENDSEC;
END-ISO-10303-21;
