ISO-10303-21;
HEADER;
FILE_DESCRIPTION (( 'STEP AP214' ),
    '1' );
FILE_NAME ('chroma_zt405488561640rpcv2_rectangular_dichroic_1mm_thick.STEP',
    '2026-06-11T16:13:50',
    ( '' ),
    ( '' ),
    'SwSTEP 2.0',
    'SolidWorks 2025',
    '' );
FILE_SCHEMA (( 'AUTOMOTIVE_DESIGN' ));
ENDSEC;

DATA;
#1 = VERTEX_POINT ( 'NONE', #97 ) ;
#2 = PRODUCT_DEFINITION_CONTEXT ( 'detailed design', #158, 'design' ) ;
#3 = ORIENTED_EDGE ( 'NONE', *, *, #82, .F. ) ;
#4 = EDGE_LOOP ( 'NONE', ( #174, #104, #151, #93 ) ) ;
#5 = ADVANCED_FACE ( 'NONE', ( #140 ), #37, .T. ) ;
#6 = DIRECTION ( 'NONE',  ( 0.000000000000000000, 1.000000000000000000, 0.000000000000000000 ) ) ;
#7 = MECHANICAL_DESIGN_GEOMETRIC_PRESENTATION_REPRESENTATION (  '', ( #46 ), #107 ) ;
#8 = CARTESIAN_POINT ( 'NONE',  ( -18.00000000000000000, 1.000000000000000000, 12.75000000000000000 ) ) ;
#9 = SURFACE_STYLE_FILL_AREA ( #142 ) ;
#10 = PRESENTATION_STYLE_ASSIGNMENT (( #168 ) ) ;
#11 = AXIS2_PLACEMENT_3D ( 'NONE', #180, #95, #56 ) ;
#12 = ORIENTED_EDGE ( 'NONE', *, *, #146, .T. ) ;
#13 =( GEOMETRIC_REPRESENTATION_CONTEXT ( 3 ) GLOBAL_UNCERTAINTY_ASSIGNED_CONTEXT ( ( #78 ) ) GLOBAL_UNIT_ASSIGNED_CONTEXT ( ( #144, #102, #122 ) ) REPRESENTATION_CONTEXT ( 'NONE', 'WORKASPACE' ) );
#14 = EDGE_CURVE ( 'NONE', #121, #69, #70, .T. ) ;
#15 = DIRECTION ( 'NONE',  ( 1.000000000000000000, 0.000000000000000000, 0.000000000000000000 ) ) ;
#16 = APPLICATION_CONTEXT ( 'automotive_design' ) ;
#17 = ADVANCED_FACE ( 'NONE', ( #165 ), #53, .F. ) ;
#18 = ORIENTED_EDGE ( 'NONE', *, *, #184, .T. ) ;
#19 = DIRECTION ( 'NONE',  ( 0.000000000000000000, 0.000000000000000000, 1.000000000000000000 ) ) ;
#20 = CARTESIAN_POINT ( 'NONE',  ( -18.00000000000000000, 1.000000000000000000, 12.75000000000000000 ) ) ;
#21 = CARTESIAN_POINT ( 'NONE',  ( -18.00000000000000000, 0.000000000000000000, -12.75000000000000000 ) ) ;
#22 = EDGE_CURVE ( 'NONE', #173, #92, #81, .T. ) ;
#23 = VECTOR ( 'NONE', #127, 1000.000000000000000 ) ;
#24 = LINE ( 'NONE', #120, #61 ) ;
#25 = AXIS2_PLACEMENT_3D ( 'NONE', #172, #30, #171 ) ;
#26 = CARTESIAN_POINT ( 'NONE',  ( -18.00000000000000000, 0.000000000000000000, -12.75000000000000000 ) ) ;
#27 =( NAMED_UNIT ( * ) PLANE_ANGLE_UNIT ( ) SI_UNIT ( $, .RADIAN. ) );
#28 = DIRECTION ( 'NONE',  ( -1.000000000000000000, -0.000000000000000000, -0.000000000000000000 ) ) ;
#29 = CARTESIAN_POINT ( 'NONE',  ( -18.00000000000000000, 0.000000000000000000, -12.75000000000000000 ) ) ;
#30 = DIRECTION ( 'NONE',  ( 0.000000000000000000, 0.000000000000000000, 1.000000000000000000 ) ) ;
#31 = CLOSED_SHELL ( 'NONE', ( #79, #17, #49, #147, #5, #106 ) ) ;
#32 = APPLICATION_PROTOCOL_DEFINITION ( 'draft international standard', 'automotive_design', 1998, #16 ) ;
#33 = VECTOR ( 'NONE', #19, 1000.000000000000000 ) ;
#34 = ORIENTED_EDGE ( 'NONE', *, *, #44, .T. ) ;
#35 = VECTOR ( 'NONE', #157, 1000.000000000000000 ) ;
#36 = ORIENTED_EDGE ( 'NONE', *, *, #63, .T. ) ;
#37 = PLANE ( 'NONE',  #90 ) ;
#38 = ORIENTED_EDGE ( 'NONE', *, *, #116, .T. ) ;
#39 = PLANE ( 'NONE',  #50 ) ;
#40 = DIRECTION ( 'NONE',  ( 0.000000000000000000, 0.000000000000000000, -1.000000000000000000 ) ) ;
#41 = PRODUCT ( 'chroma_zt405488561640rpcv2_rectangular_dichroic_1mm_thick', 'chroma_zt405488561640rpcv2_rectangular_dichroic_1mm_thick', '', ( #105 ) ) ;
#42 = CARTESIAN_POINT ( 'NONE',  ( -18.00000000000000000, 1.000000000000000000, -12.75000000000000000 ) ) ;
#43 = CARTESIAN_POINT ( 'NONE',  ( -18.00000000000000000, 0.000000000000000000, 12.75000000000000000 ) ) ;
#44 = EDGE_CURVE ( 'NONE', #110, #64, #114, .T. ) ;
#45 = DIRECTION ( 'NONE',  ( 0.000000000000000000, 1.000000000000000000, 0.000000000000000000 ) ) ;
#46 = STYLED_ITEM ( 'NONE', ( #10 ), #109 ) ;
#47 = SHAPE_DEFINITION_REPRESENTATION ( #145, #136 ) ;
#48 = ORIENTED_EDGE ( 'NONE', *, *, #75, .F. ) ;
#49 = ADVANCED_FACE ( 'NONE', ( #51 ), #39, .F. ) ;
#50 = AXIS2_PLACEMENT_3D ( 'NONE', #108, #80, #40 ) ;
#51 = FACE_OUTER_BOUND ( 'NONE', #76, .T. ) ;
#52 = FACE_OUTER_BOUND ( 'NONE', #62, .T. ) ;
#53 = PLANE ( 'NONE',  #60 ) ;
#54 = CARTESIAN_POINT ( 'NONE',  ( -18.00000000000000000, 1.000000000000000000, -12.75000000000000000 ) ) ;
#55 = PRODUCT_RELATED_PRODUCT_CATEGORY ( 'part', '', ( #41 ) ) ;
#56 = DIRECTION ( 'NONE',  ( 0.000000000000000000, 0.000000000000000000, 1.000000000000000000 ) ) ;
#57 = DIRECTION ( 'NONE',  ( -0.000000000000000000, -1.000000000000000000, -0.000000000000000000 ) ) ;
#58 = LINE ( 'NONE', #181, #141 ) ;
#59 = DIRECTION ( 'NONE',  ( -1.000000000000000000, 0.000000000000000000, -0.000000000000000000 ) ) ;
#60 = AXIS2_PLACEMENT_3D ( 'NONE', #124, #150, #139 ) ;
#61 = VECTOR ( 'NONE', #183, 1000.000000000000000 ) ;
#62 = EDGE_LOOP ( 'NONE', ( #77, #48, #162, #36 ) ) ;
#63 = EDGE_CURVE ( 'NONE', #121, #92, #84, .T. ) ;
#64 = VERTEX_POINT ( 'NONE', #20 ) ;
#65 = APPLICATION_PROTOCOL_DEFINITION ( 'draft international standard', 'automotive_design', 1998, #158 ) ;
#66 = LINE ( 'NONE', #21, #170 ) ;
#67 = ORIENTED_EDGE ( 'NONE', *, *, #111, .F. ) ;
#68 = CARTESIAN_POINT ( 'NONE',  ( 0.000000000000000000, 1.000000000000000000, 0.000000000000000000 ) ) ;
#69 = VERTEX_POINT ( 'NONE', #138 ) ;
#70 = LINE ( 'NONE', #126, #137 ) ;
#71 = VECTOR ( 'NONE', #153, 1000.000000000000000 ) ;
#72 = SURFACE_SIDE_STYLE ('',( #9 ) ) ;
#73 = FILL_AREA_STYLE_COLOUR ( '', #155 ) ;
#74 = CARTESIAN_POINT ( 'NONE',  ( 0.000000000000000000, 0.000000000000000000, 0.000000000000000000 ) ) ;
#75 = EDGE_CURVE ( 'NONE', #69, #1, #177, .T. ) ;
#76 = EDGE_LOOP ( 'NONE', ( #159, #91, #148, #12 ) ) ;
#77 = ORIENTED_EDGE ( 'NONE', *, *, #111, .T. ) ;
#78 = UNCERTAINTY_MEASURE_WITH_UNIT (LENGTH_MEASURE( 1.000000000000000082E-05 ), #144, 'distance_accuracy_value', 'NONE');
#79 = ADVANCED_FACE ( 'NONE', ( #52 ), #163, .F. ) ;
#80 = DIRECTION ( 'NONE',  ( 1.000000000000000000, 0.000000000000000000, 0.000000000000000000 ) ) ;
#81 = LINE ( 'NONE', #98, #131 ) ;
#82 = EDGE_CURVE ( 'NONE', #135, #173, #66, .T. ) ;
#83 = CARTESIAN_POINT ( 'NONE',  ( 18.00000000000000000, 1.000000000000000000, -12.75000000000000000 ) ) ;
#84 = LINE ( 'NONE', #154, #71 ) ;
#85 = PRESENTATION_LAYER_ASSIGNMENT (  '', '', ( #46 ) ) ;
#86 = DIRECTION ( 'NONE',  ( -0.000000000000000000, -1.000000000000000000, -0.000000000000000000 ) ) ;
#87 = CARTESIAN_POINT ( 'NONE',  ( -18.00000000000000000, 1.000000000000000000, 12.75000000000000000 ) ) ;
#88 = CARTESIAN_POINT ( 'NONE',  ( 18.00000000000000000, 1.000000000000000000, 12.75000000000000000 ) ) ;
#89 = PLANE ( 'NONE',  #161 ) ;
#90 = AXIS2_PLACEMENT_3D ( 'NONE', #68, #6, #179 ) ;
#91 = ORIENTED_EDGE ( 'NONE', *, *, #169, .F. ) ;
#92 = VERTEX_POINT ( 'NONE', #112 ) ;
#93 = ORIENTED_EDGE ( 'NONE', *, *, #75, .T. ) ;
#94 = ORIENTED_EDGE ( 'NONE', *, *, #22, .T. ) ;
#95 = DIRECTION ( 'NONE',  ( -1.000000000000000000, 0.000000000000000000, 0.000000000000000000 ) ) ;
#96 = PLANE ( 'NONE',  #176 ) ;
#97 = CARTESIAN_POINT ( 'NONE',  ( 18.00000000000000000, 0.000000000000000000, -12.75000000000000000 ) ) ;
#98 = CARTESIAN_POINT ( 'NONE',  ( -18.00000000000000000, 0.000000000000000000, 12.75000000000000000 ) ) ;
#99 = PRODUCT_DEFINITION_FORMATION_WITH_SPECIFIED_SOURCE ( 'ANY', '', #41, .NOT_KNOWN. ) ;
#100 = DIRECTION ( 'NONE',  ( 1.000000000000000000, 0.000000000000000000, 0.000000000000000000 ) ) ;
#101 = CARTESIAN_POINT ( 'NONE',  ( -18.00000000000000000, 1.000000000000000000, -12.75000000000000000 ) ) ;
#102 =( NAMED_UNIT ( * ) PLANE_ANGLE_UNIT ( ) SI_UNIT ( $, .RADIAN. ) );
#103 = EDGE_LOOP ( 'NONE', ( #67, #125, #3, #166 ) ) ;
#104 = ORIENTED_EDGE ( 'NONE', *, *, #146, .F. ) ;
#105 = PRODUCT_CONTEXT ( 'NONE', #16, 'mechanical' ) ;
#106 = ADVANCED_FACE ( 'NONE', ( #164 ), #96, .F. ) ;
#107 =( GEOMETRIC_REPRESENTATION_CONTEXT ( 3 ) GLOBAL_UNCERTAINTY_ASSIGNED_CONTEXT ( ( #149 ) ) GLOBAL_UNIT_ASSIGNED_CONTEXT ( ( #182, #27, #130 ) ) REPRESENTATION_CONTEXT ( 'NONE', 'WORKASPACE' ) );
#108 = CARTESIAN_POINT ( 'NONE',  ( -18.00000000000000000, 1.000000000000000000, -12.75000000000000000 ) ) ;
#109 = MANIFOLD_SOLID_BREP ( 'Boss-Extrude1', #31 ) ;
#110 = VERTEX_POINT ( 'NONE', #42 ) ;
#111 = EDGE_CURVE ( 'NONE', #92, #1, #24, .T. ) ;
#112 = CARTESIAN_POINT ( 'NONE',  ( 18.00000000000000000, 0.000000000000000000, 12.75000000000000000 ) ) ;
#113 = ORIENTED_EDGE ( 'NONE', *, *, #184, .F. ) ;
#114 = LINE ( 'NONE', #54, #33 ) ;
#115 = CARTESIAN_POINT ( 'NONE',  ( -18.00000000000000000, 1.000000000000000000, 12.75000000000000000 ) ) ;
#116 = EDGE_CURVE ( 'NONE', #69, #110, #156, .T. ) ;
#117 = FACE_OUTER_BOUND ( 'NONE', #133, .T. ) ;
#118 = LINE ( 'NONE', #115, #132 ) ;
#119 = PRODUCT_DEFINITION ( 'UNKNOWN', '', #99, #2 ) ;
#120 = CARTESIAN_POINT ( 'NONE',  ( 18.00000000000000000, 0.000000000000000000, -12.75000000000000000 ) ) ;
#121 = VERTEX_POINT ( 'NONE', #88 ) ;
#122 =( NAMED_UNIT ( * ) SI_UNIT ( $, .STERADIAN. ) SOLID_ANGLE_UNIT ( ) );
#123 = DIRECTION ( 'NONE',  ( 0.000000000000000000, 0.000000000000000000, 1.000000000000000000 ) ) ;
#124 = CARTESIAN_POINT ( 'NONE',  ( -18.00000000000000000, 1.000000000000000000, -12.75000000000000000 ) ) ;
#125 = ORIENTED_EDGE ( 'NONE', *, *, #22, .F. ) ;
#126 = CARTESIAN_POINT ( 'NONE',  ( 18.00000000000000000, 1.000000000000000000, -12.75000000000000000 ) ) ;
#127 = DIRECTION ( 'NONE',  ( -0.000000000000000000, -1.000000000000000000, -0.000000000000000000 ) ) ;
#128 = VECTOR ( 'NONE', #28, 1000.000000000000000 ) ;
#129 = LINE ( 'NONE', #87, #186 ) ;
#130 =( NAMED_UNIT ( * ) SI_UNIT ( $, .STERADIAN. ) SOLID_ANGLE_UNIT ( ) );
#131 = VECTOR ( 'NONE', #15, 1000.000000000000000 ) ;
#132 = VECTOR ( 'NONE', #100, 1000.000000000000000 ) ;
#133 = EDGE_LOOP ( 'NONE', ( #94, #152, #113, #175 ) ) ;
#134 = EDGE_CURVE ( 'NONE', #1, #135, #185, .T. ) ;
#135 = VERTEX_POINT ( 'NONE', #29 ) ;
#136 = ADVANCED_BREP_SHAPE_REPRESENTATION ( 'chroma_zt405488561640rpcv2_rectangular_dichroic_1mm_thick', ( #109, #25 ), #13 ) ;
#137 = VECTOR ( 'NONE', #178, 1000.000000000000000 ) ;
#138 = CARTESIAN_POINT ( 'NONE',  ( 18.00000000000000000, 1.000000000000000000, -12.75000000000000000 ) ) ;
#139 = DIRECTION ( 'NONE',  ( 1.000000000000000000, 0.000000000000000000, -0.000000000000000000 ) ) ;
#140 = FACE_OUTER_BOUND ( 'NONE', #160, .T. ) ;
#141 = VECTOR ( 'NONE', #86, 1000.000000000000000 ) ;
#142 = FILL_AREA_STYLE ('',( #73 ) ) ;
#143 = DIRECTION ( 'NONE',  ( 0.000000000000000000, -0.000000000000000000, 1.000000000000000000 ) ) ;
#144 =( LENGTH_UNIT ( ) NAMED_UNIT ( * ) SI_UNIT ( .MILLI., .METRE. ) );
#145 = PRODUCT_DEFINITION_SHAPE ( 'NONE', 'NONE',  #119 ) ;
#146 = EDGE_CURVE ( 'NONE', #110, #135, #58, .T. ) ;
#147 = ADVANCED_FACE ( 'NONE', ( #117 ), #89, .F. ) ;
#148 = ORIENTED_EDGE ( 'NONE', *, *, #44, .F. ) ;
#149 = UNCERTAINTY_MEASURE_WITH_UNIT (LENGTH_MEASURE( 1.000000000000000082E-05 ), #182, 'distance_accuracy_value', 'NONE');
#150 = DIRECTION ( 'NONE',  ( 0.000000000000000000, 0.000000000000000000, 1.000000000000000000 ) ) ;
#151 = ORIENTED_EDGE ( 'NONE', *, *, #116, .F. ) ;
#152 = ORIENTED_EDGE ( 'NONE', *, *, #63, .F. ) ;
#153 = DIRECTION ( 'NONE',  ( -0.000000000000000000, -1.000000000000000000, -0.000000000000000000 ) ) ;
#154 = CARTESIAN_POINT ( 'NONE',  ( 18.00000000000000000, 1.000000000000000000, 12.75000000000000000 ) ) ;
#155 = COLOUR_RGB ( '',0.7921568627450980005, 0.8196078431372548767, 0.9333333333333333481 ) ;
#156 = LINE ( 'NONE', #101, #128 ) ;
#157 = DIRECTION ( 'NONE',  ( -1.000000000000000000, -0.000000000000000000, -0.000000000000000000 ) ) ;
#158 = APPLICATION_CONTEXT ( 'automotive_design' ) ;
#159 = ORIENTED_EDGE ( 'NONE', *, *, #82, .T. ) ;
#160 = EDGE_LOOP ( 'NONE', ( #187, #38, #34, #18 ) ) ;
#161 = AXIS2_PLACEMENT_3D ( 'NONE', #8, #167, #59 ) ;
#162 = ORIENTED_EDGE ( 'NONE', *, *, #14, .F. ) ;
#163 = PLANE ( 'NONE',  #11 ) ;
#164 = FACE_OUTER_BOUND ( 'NONE', #103, .T. ) ;
#165 = FACE_OUTER_BOUND ( 'NONE', #4, .T. ) ;
#166 = ORIENTED_EDGE ( 'NONE', *, *, #134, .F. ) ;
#167 = DIRECTION ( 'NONE',  ( 0.000000000000000000, 0.000000000000000000, -1.000000000000000000 ) ) ;
#168 = SURFACE_STYLE_USAGE ( .BOTH. , #72 ) ;
#169 = EDGE_CURVE ( 'NONE', #64, #173, #129, .T. ) ;
#170 = VECTOR ( 'NONE', #123, 1000.000000000000000 ) ;
#171 = DIRECTION ( 'NONE',  ( 1.000000000000000000, 0.000000000000000000, 0.000000000000000000 ) ) ;
#172 = CARTESIAN_POINT ( 'NONE',  ( 0.000000000000000000, 0.000000000000000000, 0.000000000000000000 ) ) ;
#173 = VERTEX_POINT ( 'NONE', #43 ) ;
#174 = ORIENTED_EDGE ( 'NONE', *, *, #134, .T. ) ;
#175 = ORIENTED_EDGE ( 'NONE', *, *, #169, .T. ) ;
#176 = AXIS2_PLACEMENT_3D ( 'NONE', #74, #45, #143 ) ;
#177 = LINE ( 'NONE', #83, #23 ) ;
#178 = DIRECTION ( 'NONE',  ( -0.000000000000000000, -0.000000000000000000, -1.000000000000000000 ) ) ;
#179 = DIRECTION ( 'NONE',  ( 0.000000000000000000, -0.000000000000000000, 1.000000000000000000 ) ) ;
#180 = CARTESIAN_POINT ( 'NONE',  ( 18.00000000000000000, 1.000000000000000000, -12.75000000000000000 ) ) ;
#181 = CARTESIAN_POINT ( 'NONE',  ( -18.00000000000000000, 1.000000000000000000, -12.75000000000000000 ) ) ;
#182 =( LENGTH_UNIT ( ) NAMED_UNIT ( * ) SI_UNIT ( .MILLI., .METRE. ) );
#183 = DIRECTION ( 'NONE',  ( -0.000000000000000000, -0.000000000000000000, -1.000000000000000000 ) ) ;
#184 = EDGE_CURVE ( 'NONE', #64, #121, #118, .T. ) ;
#185 = LINE ( 'NONE', #26, #35 ) ;
#186 = VECTOR ( 'NONE', #57, 1000.000000000000000 ) ;
#187 = ORIENTED_EDGE ( 'NONE', *, *, #14, .T. ) ;
ENDSEC;
END-ISO-10303-21;
