ISO-10303-21;
HEADER;
FILE_DESCRIPTION (( 'STEP AP214' ),
    '1' );
FILE_NAME ('chroma_zet405488561640mv2_emission_filter_1mm_thick.STEP',
    '2026-06-11T16:12:22',
    ( '' ),
    ( '' ),
    'SwSTEP 2.0',
    'SolidWorks 2025',
    '' );
FILE_SCHEMA (( 'AUTOMOTIVE_DESIGN' ));
ENDSEC;

DATA;
#1 = VECTOR ( 'NONE', #77, 1000.000000000000000 ) ;
#2 = APPLICATION_CONTEXT ( 'automotive_design' ) ;
#3 = AXIS2_PLACEMENT_3D ( 'NONE', #96, #40, #117 ) ;
#4 = EDGE_CURVE ( 'NONE', #62, #24, #88, .T. ) ;
#5 = VERTEX_POINT ( 'NONE', #12 ) ;
#6 = CARTESIAN_POINT ( 'NONE',  ( 3.469446951953614189E-15, 0.000000000000000000, -1.734723475976807094E-15 ) ) ;
#7 = FACE_OUTER_BOUND ( 'NONE', #63, .T. ) ;
#8 =( NAMED_UNIT ( * ) PLANE_ANGLE_UNIT ( ) SI_UNIT ( $, .RADIAN. ) );
#9 =( GEOMETRIC_REPRESENTATION_CONTEXT ( 3 ) GLOBAL_UNCERTAINTY_ASSIGNED_CONTEXT ( ( #86 ) ) GLOBAL_UNIT_ASSIGNED_CONTEXT ( ( #69, #8, #87 ) ) REPRESENTATION_CONTEXT ( 'NONE', 'WORKASPACE' ) );
#10 = DIRECTION ( 'NONE',  ( 0.000000000000000000, 0.000000000000000000, -1.000000000000000000 ) ) ;
#11 = ORIENTED_EDGE ( 'NONE', *, *, #46, .F. ) ;
#12 = CARTESIAN_POINT ( 'NONE',  ( 3.469446951953614189E-15, 0.000000000000000000, -12.50000000000000178 ) ) ;
#13 = ADVANCED_FACE ( 'NONE', ( #100 ), #95, .T. ) ;
#14 = VERTEX_POINT ( 'NONE', #91 ) ;
#15 = ORIENTED_EDGE ( 'NONE', *, *, #72, .F. ) ;
#16 = CLOSED_SHELL ( 'NONE', ( #13, #99, #71, #84 ) ) ;
#17 = ADVANCED_BREP_SHAPE_REPRESENTATION ( 'chroma_zet405488561640mv2_emission_filter_1mm_thick', ( #119, #44 ), #108 ) ;
#18 = CIRCLE ( 'NONE', #89, 12.50000000000000000 ) ;
#19 = CARTESIAN_POINT ( 'NONE',  ( 0.000000000000000000, 0.000000000000000000, 0.000000000000000000 ) ) ;
#20 = PRODUCT ( 'chroma_zet405488561640mv2_emission_filter_1mm_thick', 'chroma_zet405488561640mv2_emission_filter_1mm_thick', '', ( #27 ) ) ;
#21 = VECTOR ( 'NONE', #34, 1000.000000000000000 ) ;
#22 = EDGE_CURVE ( 'NONE', #24, #62, #39, .T. ) ;
#23 = CARTESIAN_POINT ( 'NONE',  ( 5.000255450887805118E-15, 1.000000000000000000, 12.49999999999999822 ) ) ;
#24 = VERTEX_POINT ( 'NONE', #122 ) ;
#25 = ORIENTED_EDGE ( 'NONE', *, *, #51, .F. ) ;
#26 = ORIENTED_EDGE ( 'NONE', *, *, #46, .T. ) ;
#27 = PRODUCT_CONTEXT ( 'NONE', #106, 'mechanical' ) ;
#28 =( LENGTH_UNIT ( ) NAMED_UNIT ( * ) SI_UNIT ( .MILLI., .METRE. ) );
#29 = SURFACE_STYLE_FILL_AREA ( #97 ) ;
#30 = PRODUCT_DEFINITION_CONTEXT ( 'detailed design', #2, 'design' ) ;
#31 = APPLICATION_PROTOCOL_DEFINITION ( 'draft international standard', 'automotive_design', 1998, #2 ) ;
#32 = AXIS2_PLACEMENT_3D ( 'NONE', #52, #41, #120 ) ;
#33 = DIRECTION ( 'NONE',  ( 0.000000000000000000, 1.000000000000000000, 0.000000000000000000 ) ) ;
#34 = DIRECTION ( 'NONE',  ( -0.000000000000000000, -1.000000000000000000, -0.000000000000000000 ) ) ;
#35 = AXIS2_PLACEMENT_3D ( 'NONE', #53, #93, #45 ) ;
#36 = ORIENTED_EDGE ( 'NONE', *, *, #4, .F. ) ;
#37 = PLANE ( 'NONE',  #79 ) ;
#38 = CYLINDRICAL_SURFACE ( 'NONE', #59, 12.50000000000000000 ) ;
#39 = CIRCLE ( 'NONE', #56, 12.50000000000000000 ) ;
#40 = DIRECTION ( 'NONE',  ( 0.000000000000000000, 1.000000000000000000, 0.000000000000000000 ) ) ;
#41 = DIRECTION ( 'NONE',  ( 0.000000000000000000, 1.000000000000000000, 0.000000000000000000 ) ) ;
#42 = CARTESIAN_POINT ( 'NONE',  ( 3.469446951953614189E-15, 1.000000000000000000, -1.734723475976807094E-15 ) ) ;
#43 = DIRECTION ( 'NONE',  ( 0.000000000000000000, 0.000000000000000000, 1.000000000000000000 ) ) ;
#44 = AXIS2_PLACEMENT_3D ( 'NONE', #19, #123, #60 ) ;
#45 = DIRECTION ( 'NONE',  ( 0.000000000000000000, -0.000000000000000000, 1.000000000000000000 ) ) ;
#46 = EDGE_CURVE ( 'NONE', #62, #5, #101, .T. ) ;
#47 = SURFACE_SIDE_STYLE ('',( #29 ) ) ;
#48 =( NAMED_UNIT ( * ) SI_UNIT ( $, .STERADIAN. ) SOLID_ANGLE_UNIT ( ) );
#49 = FILL_AREA_STYLE_COLOUR ( '', #105 ) ;
#50 = PRESENTATION_LAYER_ASSIGNMENT (  '', '', ( #75 ) ) ;
#51 = EDGE_CURVE ( 'NONE', #24, #14, #76, .T. ) ;
#52 = CARTESIAN_POINT ( 'NONE',  ( 3.469446951953614189E-15, 1.000000000000000000, -1.734723475976807094E-15 ) ) ;
#53 = CARTESIAN_POINT ( 'NONE',  ( 3.469446951953614189E-15, 1.000000000000000000, -1.734723475976807094E-15 ) ) ;
#54 = ORIENTED_EDGE ( 'NONE', *, *, #51, .T. ) ;
#55 = ORIENTED_EDGE ( 'NONE', *, *, #22, .F. ) ;
#56 = AXIS2_PLACEMENT_3D ( 'NONE', #42, #33, #74 ) ;
#57 = DIRECTION ( 'NONE',  ( -0.000000000000000000, -1.000000000000000000, -0.000000000000000000 ) ) ;
#58 = PRODUCT_DEFINITION_SHAPE ( 'NONE', 'NONE',  #107 ) ;
#59 = AXIS2_PLACEMENT_3D ( 'NONE', #67, #57, #104 ) ;
#60 = DIRECTION ( 'NONE',  ( 1.000000000000000000, 0.000000000000000000, 0.000000000000000000 ) ) ;
#61 = PRODUCT_DEFINITION_FORMATION_WITH_SPECIFIED_SOURCE ( 'ANY', '', #20, .NOT_KNOWN. ) ;
#62 = VERTEX_POINT ( 'NONE', #102 ) ;
#63 = EDGE_LOOP ( 'NONE', ( #90, #64 ) ) ;
#64 = ORIENTED_EDGE ( 'NONE', *, *, #22, .T. ) ;
#65 = EDGE_LOOP ( 'NONE', ( #111, #15 ) ) ;
#66 = DIRECTION ( 'NONE',  ( 0.000000000000000000, -0.000000000000000000, 1.000000000000000000 ) ) ;
#67 = CARTESIAN_POINT ( 'NONE',  ( 3.469446951953614189E-15, 1.000000000000000000, -1.734723475976807094E-15 ) ) ;
#68 = APPLICATION_PROTOCOL_DEFINITION ( 'draft international standard', 'automotive_design', 1998, #106 ) ;
#69 =( LENGTH_UNIT ( ) NAMED_UNIT ( * ) SI_UNIT ( .MILLI., .METRE. ) );
#70 = SURFACE_STYLE_USAGE ( .BOTH. , #47 ) ;
#71 = ADVANCED_FACE ( 'NONE', ( #7 ), #112, .T. ) ;
#72 = EDGE_CURVE ( 'NONE', #14, #5, #18, .T. ) ;
#73 = ORIENTED_EDGE ( 'NONE', *, *, #72, .T. ) ;
#74 = DIRECTION ( 'NONE',  ( 0.000000000000000000, 0.000000000000000000, 1.000000000000000000 ) ) ;
#75 = STYLED_ITEM ( 'NONE', ( #124 ), #119 ) ;
#76 = LINE ( 'NONE', #23, #1 ) ;
#77 = DIRECTION ( 'NONE',  ( -0.000000000000000000, -1.000000000000000000, -0.000000000000000000 ) ) ;
#78 = CARTESIAN_POINT ( 'NONE',  ( 3.469446951953614189E-15, 0.000000000000000000, -1.734723475976807094E-15 ) ) ;
#79 = AXIS2_PLACEMENT_3D ( 'NONE', #78, #114, #66 ) ;
#80 = PRODUCT_RELATED_PRODUCT_CATEGORY ( 'part', '', ( #20 ) ) ;
#81 = ORIENTED_EDGE ( 'NONE', *, *, #92, .T. ) ;
#82 = CARTESIAN_POINT ( 'NONE',  ( 3.469446951953614189E-15, 1.000000000000000000, -1.734723475976807094E-15 ) ) ;
#83 = CARTESIAN_POINT ( 'NONE',  ( 3.469446951953614189E-15, 1.000000000000000000, -12.50000000000000178 ) ) ;
#84 = ADVANCED_FACE ( 'NONE', ( #85 ), #37, .F. ) ;
#85 = FACE_OUTER_BOUND ( 'NONE', #65, .T. ) ;
#86 = UNCERTAINTY_MEASURE_WITH_UNIT (LENGTH_MEASURE( 1.000000000000000082E-05 ), #69, 'distance_accuracy_value', 'NONE');
#87 =( NAMED_UNIT ( * ) SI_UNIT ( $, .STERADIAN. ) SOLID_ANGLE_UNIT ( ) );
#88 = CIRCLE ( 'NONE', #32, 12.50000000000000000 ) ;
#89 = AXIS2_PLACEMENT_3D ( 'NONE', #6, #103, #43 ) ;
#90 = ORIENTED_EDGE ( 'NONE', *, *, #4, .T. ) ;
#91 = CARTESIAN_POINT ( 'NONE',  ( 5.000255450887805118E-15, 0.000000000000000000, 12.49999999999999822 ) ) ;
#92 = EDGE_CURVE ( 'NONE', #5, #14, #116, .T. ) ;
#93 = DIRECTION ( 'NONE',  ( 0.000000000000000000, 1.000000000000000000, 0.000000000000000000 ) ) ;
#94 = MECHANICAL_DESIGN_GEOMETRIC_PRESENTATION_REPRESENTATION (  '', ( #75 ), #9 ) ;
#95 = CYLINDRICAL_SURFACE ( 'NONE', #109, 12.50000000000000000 ) ;
#96 = CARTESIAN_POINT ( 'NONE',  ( 3.469446951953614189E-15, 0.000000000000000000, -1.734723475976807094E-15 ) ) ;
#97 = FILL_AREA_STYLE ('',( #49 ) ) ;
#98 = UNCERTAINTY_MEASURE_WITH_UNIT (LENGTH_MEASURE( 1.000000000000000082E-05 ), #28, 'distance_accuracy_value', 'NONE');
#99 = ADVANCED_FACE ( 'NONE', ( #110 ), #38, .T. ) ;
#100 = FACE_OUTER_BOUND ( 'NONE', #121, .T. ) ;
#101 = LINE ( 'NONE', #83, #21 ) ;
#102 = CARTESIAN_POINT ( 'NONE',  ( 3.469446951953614189E-15, 1.000000000000000000, -12.50000000000000178 ) ) ;
#103 = DIRECTION ( 'NONE',  ( 0.000000000000000000, 1.000000000000000000, 0.000000000000000000 ) ) ;
#104 = DIRECTION ( 'NONE',  ( 0.000000000000000000, 0.000000000000000000, -1.000000000000000000 ) ) ;
#105 = COLOUR_RGB ( '',0.7921568627450980005, 0.8196078431372548767, 0.9333333333333333481 ) ;
#106 = APPLICATION_CONTEXT ( 'automotive_design' ) ;
#107 = PRODUCT_DEFINITION ( 'UNKNOWN', '', #61, #30 ) ;
#108 =( GEOMETRIC_REPRESENTATION_CONTEXT ( 3 ) GLOBAL_UNCERTAINTY_ASSIGNED_CONTEXT ( ( #98 ) ) GLOBAL_UNIT_ASSIGNED_CONTEXT ( ( #28, #115, #48 ) ) REPRESENTATION_CONTEXT ( 'NONE', 'WORKASPACE' ) );
#109 = AXIS2_PLACEMENT_3D ( 'NONE', #82, #118, #10 ) ;
#110 = FACE_OUTER_BOUND ( 'NONE', #113, .T. ) ;
#111 = ORIENTED_EDGE ( 'NONE', *, *, #92, .F. ) ;
#112 = PLANE ( 'NONE',  #35 ) ;
#113 = EDGE_LOOP ( 'NONE', ( #25, #36, #26, #81 ) ) ;
#114 = DIRECTION ( 'NONE',  ( 0.000000000000000000, 1.000000000000000000, 0.000000000000000000 ) ) ;
#115 =( NAMED_UNIT ( * ) PLANE_ANGLE_UNIT ( ) SI_UNIT ( $, .RADIAN. ) );
#116 = CIRCLE ( 'NONE', #3, 12.50000000000000000 ) ;
#117 = DIRECTION ( 'NONE',  ( 0.000000000000000000, 0.000000000000000000, 1.000000000000000000 ) ) ;
#118 = DIRECTION ( 'NONE',  ( -0.000000000000000000, -1.000000000000000000, -0.000000000000000000 ) ) ;
#119 = MANIFOLD_SOLID_BREP ( 'Boss-Extrude1', #16 ) ;
#120 = DIRECTION ( 'NONE',  ( 0.000000000000000000, 0.000000000000000000, 1.000000000000000000 ) ) ;
#121 = EDGE_LOOP ( 'NONE', ( #55, #54, #73, #11 ) ) ;
#122 = CARTESIAN_POINT ( 'NONE',  ( 5.000255450887805118E-15, 1.000000000000000000, 12.49999999999999822 ) ) ;
#123 = DIRECTION ( 'NONE',  ( 0.000000000000000000, 0.000000000000000000, 1.000000000000000000 ) ) ;
#124 = PRESENTATION_STYLE_ASSIGNMENT (( #70 ) ) ;
#125 = SHAPE_DEFINITION_REPRESENTATION ( #58, #17 ) ;
ENDSEC;
END-ISO-10303-21;
