ISO-10303-21;
HEADER;
FILE_DESCRIPTION (( 'STEP AP214' ),
    '1' );
FILE_NAME ('coverslip_0.17mm_thick.STEP',
    '2026-05-13T22:39:22',
    ( '' ),
    ( '' ),
    'SwSTEP 2.0',
    'SolidWorks 2025',
    '' );
FILE_SCHEMA (( 'AUTOMOTIVE_DESIGN' ));
ENDSEC;

DATA;
#1 = CIRCLE ( 'NONE', #12, 2.999999999999999112 ) ;
#2 = CARTESIAN_POINT ( 'NONE',  ( 3.469446951953614189E-15, 0.1700000000000000122, -1.734723475976807094E-15 ) ) ;
#3 = EDGE_LOOP ( 'NONE', ( #66, #67, #120, #15 ) ) ;
#4 = ADVANCED_FACE ( 'NONE', ( #14 ), #59, .T. ) ;
#5 = CARTESIAN_POINT ( 'NONE',  ( 3.836840991697820422E-15, 0.1700000000000000122, 2.999999999999997335 ) ) ;
#6 = CIRCLE ( 'NONE', #96, 2.999999999999999112 ) ;
#7 = PLANE ( 'NONE',  #92 ) ;
#8 = DIRECTION ( 'NONE',  ( -0.000000000000000000, -1.000000000000000000, -0.000000000000000000 ) ) ;
#9 = FACE_OUTER_BOUND ( 'NONE', #102, .T. ) ;
#10 = SURFACE_STYLE_USAGE ( .BOTH. , #122 ) ;
#11 = MECHANICAL_DESIGN_GEOMETRIC_PRESENTATION_REPRESENTATION (  '', ( #56 ), #83 ) ;
#12 = AXIS2_PLACEMENT_3D ( 'NONE', #28, #95, #107 ) ;
#13 = EDGE_CURVE ( 'NONE', #94, #49, #27, .T. ) ;
#14 = FACE_OUTER_BOUND ( 'NONE', #39, .T. ) ;
#15 = ORIENTED_EDGE ( 'NONE', *, *, #13, .F. ) ;
#16 = APPLICATION_CONTEXT ( 'automotive_design' ) ;
#17 = APPLICATION_CONTEXT ( 'automotive_design' ) ;
#18 = AXIS2_PLACEMENT_3D ( 'NONE', #98, #70, #82 ) ;
#19 = DIRECTION ( 'NONE',  ( -0.000000000000000000, -1.000000000000000000, -0.000000000000000000 ) ) ;
#20 = DIRECTION ( 'NONE',  ( -0.000000000000000000, -1.000000000000000000, -0.000000000000000000 ) ) ;
#21 = UNCERTAINTY_MEASURE_WITH_UNIT (LENGTH_MEASURE( 1.000000000000000082E-05 ), #62, 'distance_accuracy_value', 'NONE');
#22 = VECTOR ( 'NONE', #20, 1000.000000000000000 ) ;
#23 = PRODUCT_CONTEXT ( 'NONE', #17, 'mechanical' ) ;
#24 = EDGE_LOOP ( 'NONE', ( #109, #75, #26, #37 ) ) ;
#25 = ORIENTED_EDGE ( 'NONE', *, *, #101, .T. ) ;
#26 = ORIENTED_EDGE ( 'NONE', *, *, #13, .T. ) ;
#27 = LINE ( 'NONE', #89, #22 ) ;
#28 = CARTESIAN_POINT ( 'NONE',  ( 3.469446951953614189E-15, 0.1700000000000000122, -1.734723475976807094E-15 ) ) ;
#29 = AXIS2_PLACEMENT_3D ( 'NONE', #117, #46, #73 ) ;
#30 = CARTESIAN_POINT ( 'NONE',  ( 3.836840991697820422E-15, 0.1700000000000000122, 2.999999999999997335 ) ) ;
#31 = CARTESIAN_POINT ( 'NONE',  ( 3.469446951953614189E-15, 0.1700000000000000122, -1.734723475976807094E-15 ) ) ;
#32 = ADVANCED_FACE ( 'NONE', ( #55 ), #53, .T. ) ;
#33 = AXIS2_PLACEMENT_3D ( 'NONE', #31, #8, #40 ) ;
#34 = SHAPE_DEFINITION_REPRESENTATION ( #119, #50 ) ;
#35 = ADVANCED_FACE ( 'NONE', ( #44 ), #81, .T. ) ;
#36 = VECTOR ( 'NONE', #19, 1000.000000000000000 ) ;
#37 = ORIENTED_EDGE ( 'NONE', *, *, #58, .T. ) ;
#38 = CLOSED_SHELL ( 'NONE', ( #35, #32, #4, #110 ) ) ;
#39 = EDGE_LOOP ( 'NONE', ( #111, #25 ) ) ;
#40 = DIRECTION ( 'NONE',  ( 0.000000000000000000, 0.000000000000000000, -1.000000000000000000 ) ) ;
#41 =( GEOMETRIC_REPRESENTATION_CONTEXT ( 3 ) GLOBAL_UNCERTAINTY_ASSIGNED_CONTEXT ( ( #21 ) ) GLOBAL_UNIT_ASSIGNED_CONTEXT ( ( #62, #80, #100 ) ) REPRESENTATION_CONTEXT ( 'NONE', 'WORKASPACE' ) );
#42 = DIRECTION ( 'NONE',  ( 0.000000000000000000, 1.000000000000000000, 0.000000000000000000 ) ) ;
#43 =( NAMED_UNIT ( * ) PLANE_ANGLE_UNIT ( ) SI_UNIT ( $, .RADIAN. ) );
#44 = FACE_OUTER_BOUND ( 'NONE', #3, .T. ) ;
#45 = PRODUCT_DEFINITION ( 'UNKNOWN', '', #76, #124 ) ;
#46 = DIRECTION ( 'NONE',  ( 0.000000000000000000, 0.000000000000000000, 1.000000000000000000 ) ) ;
#47 = COLOUR_RGB ( '',0.7921568627450980005, 0.8196078431372548767, 0.9333333333333333481 ) ;
#48 = PRODUCT ( 'coverslip_0.17mm_thick', 'coverslip_0.17mm_thick', '', ( #23 ) ) ;
#49 = VERTEX_POINT ( 'NONE', #114 ) ;
#50 = ADVANCED_BREP_SHAPE_REPRESENTATION ( 'coverslip_0.17mm_thick', ( #123, #29 ), #41 ) ;
#51 = PRODUCT_RELATED_PRODUCT_CATEGORY ( 'part', '', ( #48 ) ) ;
#52 = VERTEX_POINT ( 'NONE', #63 ) ;
#53 = CYLINDRICAL_SURFACE ( 'NONE', #33, 2.999999999999999112 ) ;
#54 = DIRECTION ( 'NONE',  ( -0.000000000000000000, -1.000000000000000000, -0.000000000000000000 ) ) ;
#55 = FACE_OUTER_BOUND ( 'NONE', #24, .T. ) ;
#56 = STYLED_ITEM ( 'NONE', ( #90 ), #123 ) ;
#57 = CARTESIAN_POINT ( 'NONE',  ( 3.469446951953614189E-15, 0.000000000000000000, -1.734723475976807094E-15 ) ) ;
#58 = EDGE_CURVE ( 'NONE', #49, #52, #6, .T. ) ;
#59 = PLANE ( 'NONE',  #85 ) ;
#60 = EDGE_CURVE ( 'NONE', #78, #52, #65, .T. ) ;
#61 = CARTESIAN_POINT ( 'NONE',  ( 3.469446951953614189E-15, 0.1700000000000000122, -1.734723475976807094E-15 ) ) ;
#62 =( LENGTH_UNIT ( ) NAMED_UNIT ( * ) SI_UNIT ( .MILLI., .METRE. ) );
#63 = CARTESIAN_POINT ( 'NONE',  ( 3.836840991697820422E-15, 0.000000000000000000, 2.999999999999997335 ) ) ;
#64 = DIRECTION ( 'NONE',  ( 0.000000000000000000, 0.000000000000000000, -1.000000000000000000 ) ) ;
#65 = LINE ( 'NONE', #5, #36 ) ;
#66 = ORIENTED_EDGE ( 'NONE', *, *, #101, .F. ) ;
#67 = ORIENTED_EDGE ( 'NONE', *, *, #60, .T. ) ;
#68 = CARTESIAN_POINT ( 'NONE',  ( 3.469446951953614189E-15, 0.000000000000000000, -1.734723475976807094E-15 ) ) ;
#69 = DIRECTION ( 'NONE',  ( 0.000000000000000000, -0.000000000000000000, 1.000000000000000000 ) ) ;
#70 = DIRECTION ( 'NONE',  ( 0.000000000000000000, 1.000000000000000000, 0.000000000000000000 ) ) ;
#71 = EDGE_CURVE ( 'NONE', #94, #78, #121, .T. ) ;
#72 = DIRECTION ( 'NONE',  ( 0.000000000000000000, 0.000000000000000000, 1.000000000000000000 ) ) ;
#73 = DIRECTION ( 'NONE',  ( 1.000000000000000000, 0.000000000000000000, 0.000000000000000000 ) ) ;
#74 = ORIENTED_EDGE ( 'NONE', *, *, #77, .F. ) ;
#75 = ORIENTED_EDGE ( 'NONE', *, *, #71, .F. ) ;
#76 = PRODUCT_DEFINITION_FORMATION_WITH_SPECIFIED_SOURCE ( 'ANY', '', #48, .NOT_KNOWN. ) ;
#77 = EDGE_CURVE ( 'NONE', #52, #49, #93, .T. ) ;
#78 = VERTEX_POINT ( 'NONE', #30 ) ;
#79 = DIRECTION ( 'NONE',  ( 0.000000000000000000, 0.000000000000000000, 1.000000000000000000 ) ) ;
#80 =( NAMED_UNIT ( * ) PLANE_ANGLE_UNIT ( ) SI_UNIT ( $, .RADIAN. ) );
#81 = CYLINDRICAL_SURFACE ( 'NONE', #105, 2.999999999999999112 ) ;
#82 = DIRECTION ( 'NONE',  ( 0.000000000000000000, 0.000000000000000000, 1.000000000000000000 ) ) ;
#83 =( GEOMETRIC_REPRESENTATION_CONTEXT ( 3 ) GLOBAL_UNCERTAINTY_ASSIGNED_CONTEXT ( ( #86 ) ) GLOBAL_UNIT_ASSIGNED_CONTEXT ( ( #97, #43, #106 ) ) REPRESENTATION_CONTEXT ( 'NONE', 'WORKASPACE' ) );
#84 = APPLICATION_PROTOCOL_DEFINITION ( 'draft international standard', 'automotive_design', 1998, #17 ) ;
#85 = AXIS2_PLACEMENT_3D ( 'NONE', #2, #113, #69 ) ;
#86 = UNCERTAINTY_MEASURE_WITH_UNIT (LENGTH_MEASURE( 1.000000000000000082E-05 ), #97, 'distance_accuracy_value', 'NONE');
#87 = DIRECTION ( 'NONE',  ( 0.000000000000000000, -0.000000000000000000, 1.000000000000000000 ) ) ;
#88 = FILL_AREA_STYLE_COLOUR ( '', #47 ) ;
#89 = CARTESIAN_POINT ( 'NONE',  ( 3.469446951953614189E-15, 0.1700000000000000122, -3.000000000000000888 ) ) ;
#90 = PRESENTATION_STYLE_ASSIGNMENT (( #10 ) ) ;
#91 = APPLICATION_PROTOCOL_DEFINITION ( 'draft international standard', 'automotive_design', 1998, #16 ) ;
#92 = AXIS2_PLACEMENT_3D ( 'NONE', #57, #42, #87 ) ;
#93 = CIRCLE ( 'NONE', #112, 2.999999999999999112 ) ;
#94 = VERTEX_POINT ( 'NONE', #104 ) ;
#95 = DIRECTION ( 'NONE',  ( 0.000000000000000000, 1.000000000000000000, 0.000000000000000000 ) ) ;
#96 = AXIS2_PLACEMENT_3D ( 'NONE', #68, #125, #79 ) ;
#97 =( LENGTH_UNIT ( ) NAMED_UNIT ( * ) SI_UNIT ( .MILLI., .METRE. ) );
#98 = CARTESIAN_POINT ( 'NONE',  ( 3.469446951953614189E-15, 0.1700000000000000122, -1.734723475976807094E-15 ) ) ;
#99 = FILL_AREA_STYLE ('',( #88 ) ) ;
#100 =( NAMED_UNIT ( * ) SI_UNIT ( $, .STERADIAN. ) SOLID_ANGLE_UNIT ( ) );
#101 = EDGE_CURVE ( 'NONE', #78, #94, #1, .T. ) ;
#102 = EDGE_LOOP ( 'NONE', ( #108, #74 ) ) ;
#103 = SURFACE_STYLE_FILL_AREA ( #99 ) ;
#104 = CARTESIAN_POINT ( 'NONE',  ( 3.469446951953614189E-15, 0.1700000000000000122, -3.000000000000000888 ) ) ;
#105 = AXIS2_PLACEMENT_3D ( 'NONE', #61, #54, #64 ) ;
#106 =( NAMED_UNIT ( * ) SI_UNIT ( $, .STERADIAN. ) SOLID_ANGLE_UNIT ( ) );
#107 = DIRECTION ( 'NONE',  ( 0.000000000000000000, 0.000000000000000000, 1.000000000000000000 ) ) ;
#108 = ORIENTED_EDGE ( 'NONE', *, *, #58, .F. ) ;
#109 = ORIENTED_EDGE ( 'NONE', *, *, #60, .F. ) ;
#110 = ADVANCED_FACE ( 'NONE', ( #9 ), #7, .F. ) ;
#111 = ORIENTED_EDGE ( 'NONE', *, *, #71, .T. ) ;
#112 = AXIS2_PLACEMENT_3D ( 'NONE', #116, #115, #72 ) ;
#113 = DIRECTION ( 'NONE',  ( 0.000000000000000000, 1.000000000000000000, 0.000000000000000000 ) ) ;
#114 = CARTESIAN_POINT ( 'NONE',  ( 3.469446951953614189E-15, 0.000000000000000000, -3.000000000000000888 ) ) ;
#115 = DIRECTION ( 'NONE',  ( 0.000000000000000000, 1.000000000000000000, 0.000000000000000000 ) ) ;
#116 = CARTESIAN_POINT ( 'NONE',  ( 3.469446951953614189E-15, 0.000000000000000000, -1.734723475976807094E-15 ) ) ;
#117 = CARTESIAN_POINT ( 'NONE',  ( 0.000000000000000000, 0.000000000000000000, 0.000000000000000000 ) ) ;
#118 = PRESENTATION_LAYER_ASSIGNMENT (  '', '', ( #56 ) ) ;
#119 = PRODUCT_DEFINITION_SHAPE ( 'NONE', 'NONE',  #45 ) ;
#120 = ORIENTED_EDGE ( 'NONE', *, *, #77, .T. ) ;
#121 = CIRCLE ( 'NONE', #18, 2.999999999999999112 ) ;
#122 = SURFACE_SIDE_STYLE ('',( #103 ) ) ;
#123 = MANIFOLD_SOLID_BREP ( 'Boss-Extrude1', #38 ) ;
#124 = PRODUCT_DEFINITION_CONTEXT ( 'detailed design', #16, 'design' ) ;
#125 = DIRECTION ( 'NONE',  ( 0.000000000000000000, 1.000000000000000000, 0.000000000000000000 ) ) ;
ENDSEC;
END-ISO-10303-21;
