ISO-10303-21;
HEADER;
FILE_DESCRIPTION (( 'STEP AP214' ),
    '1' );
FILE_NAME ('lightsheet_red.STEP',
    '2026-07-18T20:10:19',
    ( '' ),
    ( '' ),
    'SwSTEP 2.0',
    'SolidWorks 2025',
    '' );
FILE_SCHEMA (( 'AUTOMOTIVE_DESIGN' ));
ENDSEC;

DATA;
#1 = CIRCLE ( 'NONE', #378, 47.85087804878074280 ) ;
#2 = CARTESIAN_POINT ( 'NONE',  ( 0.9984418587562703395, 0.07636448762110301103, -2.636635512378900259 ) ) ;
#3 = VERTEX_POINT ( 'NONE', #122 ) ;
#4 = CARTESIAN_POINT ( 'NONE',  ( 0.9975686316102995166, 0.08627573251035154656, 2.799275732510351666 ) ) ;
#5 = CARTESIAN_POINT ( 'NONE',  ( 0.9999999999999995559, 0.08167987200253372382, 2.794679872002534093 ) ) ;
#6 = VECTOR ( 'NONE', #20, 999.9999999999998863 ) ;
#7 = CARTESIAN_POINT ( 'NONE',  ( 0.9987639536898922366, -0.08524160148854983965, -2.798241601488550501 ) ) ;
#8 = DIRECTION ( 'NONE',  ( 0.000000000000000000, -0.7071067811865464625, -0.7071067811865486830 ) ) ;
#9 = DIRECTION ( 'NONE',  ( 0.000000000000000000, 0.000000000000000000, 1.000000000000000000 ) ) ;
#10 = ORIENTED_EDGE ( 'NONE', *, *, #420, .T. ) ;
#11 = CARTESIAN_POINT ( 'NONE',  ( -0.9990808744461296964, 0.07569946240214374400, -2.637300537597859318 ) ) ;
#12 = CARTESIAN_POINT ( 'NONE',  ( -0.9962617306406352791, 0.08682781387769962500, 2.799827813877699967 ) ) ;
#13 =( GEOMETRIC_REPRESENTATION_CONTEXT ( 3 ) GLOBAL_UNCERTAINTY_ASSIGNED_CONTEXT ( ( #196 ) ) GLOBAL_UNIT_ASSIGNED_CONTEXT ( ( #81, #115, #189 ) ) REPRESENTATION_CONTEXT ( 'NONE', 'WORKASPACE' ) );
#14 = CARTESIAN_POINT ( 'NONE',  ( -0.9974093761797998559, -0.07704621178234891121, 2.635953788217650917 ) ) ;
#15 = ORIENTED_EDGE ( 'NONE', *, *, #104, .T. ) ;
#16 = CARTESIAN_POINT ( 'NONE',  ( -0.9978812173038357214, -0.07679992410463411245, 2.636200075895365647 ) ) ;
#17 = DIRECTION ( 'NONE',  ( -1.000000000000000000, 0.000000000000000000, 0.000000000000000000 ) ) ;
#18 = CARTESIAN_POINT ( 'NONE',  ( -0.9998813553147632982, -0.07408534169291720872, 2.638914658307082828 ) ) ;
#19 = ORIENTED_EDGE ( 'NONE', *, *, #347, .F. ) ;
#20 = DIRECTION ( 'NONE',  ( 0.000000000000000000, -0.7071067811865464625, -0.7071067811865486830 ) ) ;
#21 = ORIENTED_EDGE ( 'NONE', *, *, #70, .F. ) ;
#22 = PLANE ( 'NONE',  #52 ) ;
#23 = DIRECTION ( 'NONE',  ( 0.000000000000000000, 0.000000000000000000, -1.000000000000000000 ) ) ;
#24 = B_SPLINE_CURVE_WITH_KNOTS ( 'NONE', 3,
 ( #5, #234, #38, #116, #82, #388, #183, #302, #4, #37, #119, #310, #381, #80, #150, #184 ),
 .UNSPECIFIED., .F., .F.,
 ( 4, 3, 3, 3, 3, 4 ),
 ( 5.421010862427522170E-20, 3.682526378543739325E-06, 5.949850216027763437E-06, 7.611928525840515821E-06, 8.884767629192180167E-06, 9.837449744278932250E-06 ),
 .UNSPECIFIED. ) ;
#25 = DIRECTION ( 'NONE',  ( 0.000000000000000000, 0.000000000000000000, -1.000000000000000000 ) ) ;
#26 = CARTESIAN_POINT ( 'NONE',  ( -0.9950000000000006617, 0.08699999999999999400, 2.799999999999999822 ) ) ;
#27 = CARTESIAN_POINT ( 'NONE',  ( 0.9999999999999995559, -47.85087804878074280, 0.000000000000000000 ) ) ;
#28 = CARTESIAN_POINT ( 'NONE',  ( -0.9998927283082005291, 0.08295993751796004734, 2.795959937517960014 ) ) ;
#29 = FILL_AREA_STYLE_COLOUR ( '', #68 ) ;
#30 = DIRECTION ( 'NONE',  ( -1.000000000000000000, -0.000000000000000000, -0.000000000000000000 ) ) ;
#31 = FACE_OUTER_BOUND ( 'NONE', #157, .T. ) ;
#32 = CARTESIAN_POINT ( 'NONE',  ( -1.000000000000000444, 0.08699999999999999400, -2.799999999999999822 ) ) ;
#33 = CARTESIAN_POINT ( 'NONE',  ( 0.9975686316102995166, -0.08627573251035132451, -2.799275732510351666 ) ) ;
#34 = PRESENTATION_LAYER_ASSIGNMENT (  '', '', ( #60 ) ) ;
#35 = DIRECTION ( 'NONE',  ( -1.000000000000000000, 0.000000000000000000, 0.000000000000000000 ) ) ;
#36 = VECTOR ( 'NONE', #110, 1000.000000000000000 ) ;
#37 = CARTESIAN_POINT ( 'NONE',  ( 0.9971111658241323950, 0.08650247068055810784, 2.799502470680558464 ) ) ;
#38 = CARTESIAN_POINT ( 'NONE',  ( 0.9998015137294511412, 0.08343150025756081167, 2.796431500257561265 ) ) ;
#39 = ORIENTED_EDGE ( 'NONE', *, *, #358, .F. ) ;
#40 = CARTESIAN_POINT ( 'NONE',  ( -1.000000000000000444, -0.08167987200253366831, -2.794679872002534093 ) ) ;
#41 = VERTEX_POINT ( 'NONE', #464 ) ;
#42 = CARTESIAN_POINT ( 'NONE',  ( 0.9983057463143290011, -0.08567125605033981683, -2.798671256050340173 ) ) ;
#43 = FACE_OUTER_BOUND ( 'NONE', #199, .T. ) ;
#44 = VERTEX_POINT ( 'NONE', #402 ) ;
#45 = EDGE_CURVE ( 'NONE', #400, #346, #403, .T. ) ;
#46 = CARTESIAN_POINT ( 'NONE',  ( -0.9961451776889496124, 0.07750739757202347591, -2.635492602427979669 ) ) ;
#47 = ORIENTED_EDGE ( 'NONE', *, *, #70, .T. ) ;
#48 = EDGE_CURVE ( 'NONE', #240, #94, #296, .T. ) ;
#49 = DIRECTION ( 'NONE',  ( 0.000000000000000000, 0.000000000000000000, -1.000000000000000000 ) ) ;
#50 = ORIENTED_EDGE ( 'NONE', *, *, #266, .T. ) ;
#51 = AXIS2_PLACEMENT_3D ( 'NONE', #427, #285, #394 ) ;
#52 = AXIS2_PLACEMENT_3D ( 'NONE', #169, #216, #209 ) ;
#53 = CARTESIAN_POINT ( 'NONE',  ( 0.9999999999999995559, 0.08699999999999999400, -2.799999999999999822 ) ) ;
#54 = EDGE_LOOP ( 'NONE', ( #301, #197, #423, #458, #315 ) ) ;
#55 = EDGE_CURVE ( 'NONE', #91, #44, #406, .T. ) ;
#56 = ORIENTED_EDGE ( 'NONE', *, *, #293, .T. ) ;
#57 = CARTESIAN_POINT ( 'NONE',  ( -0.9950000000000006617, -47.85087804878074280, 0.000000000000000000 ) ) ;
#58 = ORIENTED_EDGE ( 'NONE', *, *, #165, .F. ) ;
#59 = AXIS2_PLACEMENT_3D ( 'NONE', #64, #475, #227 ) ;
#60 = STYLED_ITEM ( 'NONE', ( #174 ), #373 ) ;
#61 = CARTESIAN_POINT ( 'NONE',  ( -0.9950000000000006617, -47.85087804878074280, 0.000000000000000000 ) ) ;
#62 = CARTESIAN_POINT ( 'NONE',  ( -0.9958629984937213964, 0.08693846207045974328, 2.799938462070460155 ) ) ;
#63 = CARTESIAN_POINT ( 'NONE',  ( 0.9999999999999995559, 0.08167987200253372382, 2.794679872002534093 ) ) ;
#64 = CARTESIAN_POINT ( 'NONE',  ( -1.000000000000000444, 47.85087804878074280, 0.000000000000000000 ) ) ;
#65 = PRODUCT_RELATED_PRODUCT_CATEGORY ( 'part', '', ( #212 ) ) ;
#66 = DIRECTION ( 'NONE',  ( -1.000000000000000000, 0.000000000000000000, 0.000000000000000000 ) ) ;
#67 = CYLINDRICAL_SURFACE ( 'NONE', #436, 47.84587804878074735 ) ;
#68 = COLOUR_RGB ( '',0.7921568627450980005, 0.8196078431372548767, 0.9333333333333333481 ) ;
#69 = DIRECTION ( 'NONE',  ( 0.000000000000000000, 0.000000000000000000, 1.000000000000000000 ) ) ;
#70 = EDGE_CURVE ( 'NONE', #94, #235, #221, .T. ) ;
#71 = CARTESIAN_POINT ( 'NONE',  ( -0.9950000000000006617, -0.08699999999999999400, -2.799999999999999822 ) ) ;
#72 = CARTESIAN_POINT ( 'NONE',  ( 0.9999999999999995559, -0.08167987200253366831, -2.794679872002534093 ) ) ;
#73 = CARTESIAN_POINT ( 'NONE',  ( -0.9998927283082005291, -0.08295993751795997795, -2.795959937517960459 ) ) ;
#74 = AXIS2_PLACEMENT_3D ( 'NONE', #125, #17, #160 ) ;
#75 = AXIS2_PLACEMENT_3D ( 'NONE', #298, #376, #109 ) ;
#76 = CARTESIAN_POINT ( 'NONE',  ( 0.9999999999999995559, 0.08699999999999999400, 2.800000000000000266 ) ) ;
#77 = CARTESIAN_POINT ( 'NONE',  ( 0.9963675561695453098, -0.08681650027686597937, -2.799816500276866460 ) ) ;
#78 = CARTESIAN_POINT ( 'NONE',  ( 0.9997406115519716918, 0.07439655704748941722, -2.638603442952514033 ) ) ;
#79 = EDGE_LOOP ( 'NONE', ( #462, #340, #201, #469, #225, #287, #359, #398 ) ) ;
#80 = CARTESIAN_POINT ( 'NONE',  ( 0.9956472653865273692, 0.08696586433878158995, 2.799965864338782140 ) ) ;
#81 =( LENGTH_UNIT ( ) NAMED_UNIT ( * ) SI_UNIT ( .MILLI., .METRE. ) );
#82 = CARTESIAN_POINT ( 'NONE',  ( 0.9991179619992966998, 0.08475192185264218692, 2.797751921852642543 ) ) ;
#83 = ADVANCED_FACE ( 'NONE', ( #295 ), #375, .F. ) ;
#84 = AXIS2_PLACEMENT_3D ( 'NONE', #152, #339, #148 ) ;
#85 = CARTESIAN_POINT ( 'NONE',  ( -0.9978812173038357214, 0.07679992410463616637, -2.636200075895367423 ) ) ;
#86 = ORIENTED_EDGE ( 'NONE', *, *, #420, .F. ) ;
#87 = EDGE_CURVE ( 'NONE', #155, #361, #329, .T. ) ;
#88 = CARTESIAN_POINT ( 'NONE',  ( 0.9980246340370632074, -0.07670451682347628752, 2.636295483176523291 ) ) ;
#89 = VERTEX_POINT ( 'NONE', #483 ) ;
#90 = CARTESIAN_POINT ( 'NONE',  ( -0.9998813553147612998, 0.07408534169292402272, -2.638914658307078831 ) ) ;
#91 = VERTEX_POINT ( 'NONE', #180 ) ;
#92 = ADVANCED_FACE ( 'NONE', ( #145 ), #67, .F. ) ;
#93 = CARTESIAN_POINT ( 'NONE',  ( 0.9954579252738529060, -0.07763355007212036085, 2.635366449927879717 ) ) ;
#94 = VERTEX_POINT ( 'NONE', #26 ) ;
#95 = CARTESIAN_POINT ( 'NONE',  ( -0.9957767842720308682, -0.07758966997138537491, 2.635410330028614467 ) ) ;
#96 = EDGE_LOOP ( 'NONE', ( #191, #456, #112, #246 ) ) ;
#97 = DIRECTION ( 'NONE',  ( -1.000000000000000000, -0.000000000000000000, -0.000000000000000000 ) ) ;
#98 = ORIENTED_EDGE ( 'NONE', *, *, #259, .F. ) ;
#99 = AXIS2_PLACEMENT_3D ( 'NONE', #383, #35, #9 ) ;
#100 = CARTESIAN_POINT ( 'NONE',  ( 0.9999999999999995559, 47.85087804878074280, 0.000000000000000000 ) ) ;
#101 = ADVANCED_FACE ( 'NONE', ( #289 ), #299, .F. ) ;
#102 = DIRECTION ( 'NONE',  ( 0.000000000000000000, 0.7071067811865486830, -0.7071067811865464625 ) ) ;
#103 = CARTESIAN_POINT ( 'NONE',  ( -1.000000000000000444, 47.85087804878074280, 0.000000000000000000 ) ) ;
#104 = EDGE_CURVE ( 'NONE', #41, #400, #288, .T. ) ;
#105 = CARTESIAN_POINT ( 'NONE',  ( 0.9999999999999995559, 0.08699999999999999400, 2.800000000000000266 ) ) ;
#106 = CARTESIAN_POINT ( 'NONE',  ( -0.9994451427763608731, 0.08420705802239940307, 2.797207058022399551 ) ) ;
#107 = AXIS2_PLACEMENT_3D ( 'NONE', #105, #102, #367 ) ;
#108 = LINE ( 'NONE', #414, #459 ) ;
#109 = DIRECTION ( 'NONE',  ( 1.000000000000000000, 0.000000000000000000, 0.000000000000000000 ) ) ;
#110 = DIRECTION ( 'NONE',  ( 0.000000000000000000, 0.7071067811865535679, 0.7071067811865415775 ) ) ;
#111 = CARTESIAN_POINT ( 'NONE',  ( 1.000000000000144773, 0.07339451849166987729, -2.639605481508333185 ) ) ;
#112 = ORIENTED_EDGE ( 'NONE', *, *, #176, .T. ) ;
#113 = AXIS2_PLACEMENT_3D ( 'NONE', #103, #175, #255 ) ;
#114 = CARTESIAN_POINT ( 'NONE',  ( -0.9958629984937213964, -0.08693846207045974328, -2.799938462070460155 ) ) ;
#115 =( NAMED_UNIT ( * ) PLANE_ANGLE_UNIT ( ) SI_UNIT ( $, .RADIAN. ) );
#116 = CARTESIAN_POINT ( 'NONE',  ( 0.9993795618995751084, 0.08424658751968595871, 2.797246587519686134 ) ) ;
#117 = ORIENTED_EDGE ( 'NONE', *, *, #448, .F. ) ;
#118 = CARTESIAN_POINT ( 'NONE',  ( 0.9967777323287362323, 0.07734336586368122102, -2.635656634136321674 ) ) ;
#119 = CARTESIAN_POINT ( 'NONE',  ( 0.9967602942313551484, 0.08667637654484217080, 2.799676376544842693 ) ) ;
#120 = CIRCLE ( 'NONE', #312, 47.84587804878074735 ) ;
#121 = CARTESIAN_POINT ( 'NONE',  ( -1.000000000000000444, -0.07348327417852124066, 2.639516725821478893 ) ) ;
#122 = CARTESIAN_POINT ( 'NONE',  ( 0.9949999999999995515, 0.07763355007211342196, -2.635366449927883270 ) ) ;
#123 = ADVANCED_FACE ( 'NONE', ( #478 ), #182, .T. ) ;
#124 = CARTESIAN_POINT ( 'NONE',  ( 0.9999999999999995559, -0.07288794480800320219, 2.640112055191996987 ) ) ;
#125 = CARTESIAN_POINT ( 'NONE',  ( 0.9999999999999995559, 47.85087804878074280, 0.000000000000000000 ) ) ;
#126 = CARTESIAN_POINT ( 'NONE',  ( 0.9949999999999995515, -0.07763355007212036085, 2.635366449927879717 ) ) ;
#127 = VERTEX_POINT ( 'NONE', #263 ) ;
#128 = AXIS2_PLACEMENT_3D ( 'NONE', #53, #134, #369 ) ;
#129 = CARTESIAN_POINT ( 'NONE',  ( -0.9950000000000006617, -0.07763355007212036085, 2.635366449927879717 ) ) ;
#130 = DIRECTION ( 'NONE',  ( -1.000000000000000000, -0.000000000000000000, -0.000000000000000000 ) ) ;
#131 = EDGE_CURVE ( 'NONE', #471, #361, #144, .T. ) ;
#132 = LINE ( 'NONE', #278, #242 ) ;
#133 = VERTEX_POINT ( 'NONE', #72 ) ;
#134 = DIRECTION ( 'NONE',  ( -1.000000000000000000, 0.000000000000000000, 0.000000000000000000 ) ) ;
#135 = CARTESIAN_POINT ( 'NONE',  ( -1.000000000000000444, -0.08699999999999999400, -2.800000000000000266 ) ) ;
#136 =( GEOMETRIC_REPRESENTATION_CONTEXT ( 3 ) GLOBAL_UNCERTAINTY_ASSIGNED_CONTEXT ( ( #466 ) ) GLOBAL_UNIT_ASSIGNED_CONTEXT ( ( #258, #331, #409 ) ) REPRESENTATION_CONTEXT ( 'NONE', 'WORKASPACE' ) );
#137 = CARTESIAN_POINT ( 'NONE',  ( -1.000000000000000444, 0.08699999999999999400, 2.799999999999999822 ) ) ;
#138 = B_SPLINE_CURVE_WITH_KNOTS ( 'NONE', 3,
 ( #357, #243, #90, #425, #393, #11, #194, #236, #85, #399, #391, #360, #46, #192, #351, #154 ),
 .UNSPECIFIED., .F., .F.,
 ( 4, 3, 3, 3, 3, 4 ),
 ( 1.084202172485504434E-19, 2.525768609668361486E-06, 4.871191486687424705E-06, 6.627982770221323646E-06, 8.046505712686779742E-06, 9.198675655816457606E-06 ),
 .UNSPECIFIED. ) ;
#139 = CARTESIAN_POINT ( 'NONE',  ( -0.9990949630984925500, 0.08482553422745810201, 2.797825534227458721 ) ) ;
#140 = FILL_AREA_STYLE ('',( #29 ) ) ;
#141 = CARTESIAN_POINT ( 'NONE',  ( -0.9996710168333317048, 0.08357769860876616830, 2.796577698608766482 ) ) ;
#142 = EDGE_CURVE ( 'NONE', #400, #133, #1, .T. ) ;
#143 = CARTESIAN_POINT ( 'NONE',  ( -1.000000000000000444, 0.07288794480801003006, -2.640112055191992990 ) ) ;
#144 = LINE ( 'NONE', #135, #36 ) ;
#145 = FACE_OUTER_BOUND ( 'NONE', #317, .T. ) ;
#146 = CARTESIAN_POINT ( 'NONE',  ( 0.9992227334363714686, 0.07550946811486199117, -2.637490531885140932 ) ) ;
#147 = ORIENTED_EDGE ( 'NONE', *, *, #131, .F. ) ;
#148 = DIRECTION ( 'NONE',  ( 0.000000000000000000, 0.000000000000000000, 1.000000000000000000 ) ) ;
#149 = PRODUCT_DEFINITION ( 'UNKNOWN', '', #438, #281 ) ;
#150 = CARTESIAN_POINT ( 'NONE',  ( 0.9953221424704318254, 0.08700000000040063186, 2.800000000000401279 ) ) ;
#151 = CARTESIAN_POINT ( 'NONE',  ( -0.9950000000000006617, 0.07763355007211342196, -2.635366449927883270 ) ) ;
#152 = CARTESIAN_POINT ( 'NONE',  ( 0.9949999999999995515, -47.85087804878074280, 0.000000000000000000 ) ) ;
#153 = AXIS2_PLACEMENT_3D ( 'NONE', #257, #415, #442 ) ;
#154 = CARTESIAN_POINT ( 'NONE',  ( -0.9950000000000006617, 0.07763355007211342196, -2.635366449927883270 ) ) ;
#155 = VERTEX_POINT ( 'NONE', #446 ) ;
#156 = CARTESIAN_POINT ( 'NONE',  ( 0.9999142384383499227, -0.07390508604212507604, 2.639094913957874322 ) ) ;
#157 = EDGE_LOOP ( 'NONE', ( #382, #10, #356 ) ) ;
#158 = B_SPLINE_CURVE_WITH_KNOTS ( 'NONE', 3,
 ( #422, #379, #114, #190, #377, #185, #269, #306, #341, #345, #349, #264, #267, #73, #455, #40 ),
 .UNSPECIFIED., .F., .F.,
 ( 4, 3, 3, 3, 3, 4 ),
 ( 0.000000000000000000, 1.285013747378234916E-06, 2.557497526646698852E-06, 4.432566183455870978E-06, 7.195801936941688908E-06, 9.898898396336210144E-06 ),
 .UNSPECIFIED. ) ;
#159 = CARTESIAN_POINT ( 'NONE',  ( 1.000000000000146327, -0.07339451849166624131, 2.639605481508333629 ) ) ;
#160 = DIRECTION ( 'NONE',  ( 0.000000000000000000, 0.000000000000000000, 1.000000000000000000 ) ) ;
#161 = CARTESIAN_POINT ( 'NONE',  ( 0.9971807391522697905, -0.07717652363796928539, 2.635823476362030515 ) ) ;
#162 = AXIS2_PLACEMENT_3D ( 'NONE', #57, #247, #49 ) ;
#163 = VERTEX_POINT ( 'NONE', #71 ) ;
#164 = CIRCLE ( 'NONE', #181, 47.85087804878074280 ) ;
#165 = EDGE_CURVE ( 'NONE', #44, #279, #108, .T. ) ;
#166 = CARTESIAN_POINT ( 'NONE',  ( -0.9994163731770820958, -0.07518477396985673300, 2.637815226030143290 ) ) ;
#167 = CARTESIAN_POINT ( 'NONE',  ( -0.9954283379157922163, 0.08699999999999999400, 2.799999999999999822 ) ) ;
#168 = ADVANCED_FACE ( 'NONE', ( #412 ), #444, .F. ) ;
#169 = CARTESIAN_POINT ( 'NONE',  ( 0.9999999999999995559, 0.08699999999999999400, -2.799999999999999822 ) ) ;
#170 = DIRECTION ( 'NONE',  ( -1.000000000000000000, 0.000000000000000000, 0.000000000000000000 ) ) ;
#171 = CARTESIAN_POINT ( 'NONE',  ( -1.000000000000000444, -0.08699999999999999400, -2.799999999999999822 ) ) ;
#172 = DIRECTION ( 'NONE',  ( 1.000000000000000000, 0.000000000000000000, 0.000000000000000000 ) ) ;
#173 = AXIS2_PLACEMENT_3D ( 'NONE', #407, #256, #25 ) ;
#174 = PRESENTATION_STYLE_ASSIGNMENT (( #374 ) ) ;
#175 = DIRECTION ( 'NONE',  ( 1.000000000000000000, 0.000000000000000000, 0.000000000000000000 ) ) ;
#176 = EDGE_CURVE ( 'NONE', #3, #240, #208, .T. ) ;
#177 = DIRECTION ( 'NONE',  ( 1.000000000000000000, -0.000000000000000000, -0.000000000000000000 ) ) ;
#178 = CARTESIAN_POINT ( 'NONE',  ( -0.9973623449334881874, 0.08636871567441133102, 2.799368715674411590 ) ) ;
#179 = CARTESIAN_POINT ( 'NONE',  ( 0.9998015137294511412, -0.08343150025756075616, -2.796431500257561265 ) ) ;
#180 = CARTESIAN_POINT ( 'NONE',  ( 0.9949999999999997735, -0.08699999999999999400, -2.799999999999999822 ) ) ;
#181 = AXIS2_PLACEMENT_3D ( 'NONE', #326, #328, #441 ) ;
#182 = TOROIDAL_SURFACE ( 'NONE', #395, 47.85087804878074280, 0.005000000000000000104 ) ;
#183 = CARTESIAN_POINT ( 'NONE',  ( 0.9983057463143290011, 0.08567125605033983071, 2.798671256050340173 ) ) ;
#184 = CARTESIAN_POINT ( 'NONE',  ( 0.9949999999999997735, 0.08699999999999999400, 2.799999999999999822 ) ) ;
#185 = CARTESIAN_POINT ( 'NONE',  ( -0.9970308217411253393, -0.08655782550412337295, -2.799557825504123798 ) ) ;
#186 = ORIENTED_EDGE ( 'NONE', *, *, #309, .F. ) ;
#187 = FACE_OUTER_BOUND ( 'NONE', #54, .T. ) ;
#188 = EDGE_CURVE ( 'NONE', #235, #155, #386, .T. ) ;
#189 =( NAMED_UNIT ( * ) SI_UNIT ( $, .STERADIAN. ) SOLID_ANGLE_UNIT ( ) );
#190 = CARTESIAN_POINT ( 'NONE',  ( -0.9962617306406352791, -0.08682781387769962500, -2.799827813877699967 ) ) ;
#191 = ORIENTED_EDGE ( 'NONE', *, *, #448, .T. ) ;
#192 = CARTESIAN_POINT ( 'NONE',  ( -0.9957767842720302021, 0.07758966997138824762, -2.635410330028614911 ) ) ;
#193 = ORIENTED_EDGE ( 'NONE', *, *, #45, .F. ) ;
#194 = CARTESIAN_POINT ( 'NONE',  ( -0.9986307217673185965, 0.07615070674710007481, -2.636849293252903070 ) ) ;
#195 = CIRCLE ( 'NONE', #206, 47.85087804878074280 ) ;
#196 = UNCERTAINTY_MEASURE_WITH_UNIT (LENGTH_MEASURE( 1.000000000000000082E-05 ), #81, 'distance_accuracy_value', 'NONE');
#197 = ORIENTED_EDGE ( 'NONE', *, *, #55, .F. ) ;
#198 = CARTESIAN_POINT ( 'NONE',  ( -0.9970278821157302351, -0.07724534085846256060, 2.635754659141537282 ) ) ;
#199 = EDGE_LOOP ( 'NONE', ( #392, #232, #431, #193, #467 ) ) ;
#200 = CARTESIAN_POINT ( 'NONE',  ( -0.9953863304355486941, -0.07763355007325770107, 2.635366449926742405 ) ) ;
#201 = ORIENTED_EDGE ( 'NONE', *, *, #347, .T. ) ;
#202 = EDGE_CURVE ( 'NONE', #163, #471, #158, .T. ) ;
#203 = CARTESIAN_POINT ( 'NONE',  ( -0.9961451776889513887, -0.07750739757202028402, 2.635492602427979669 ) ) ;
#204 = AXIS2_PLACEMENT_3D ( 'NONE', #32, #210, #410 ) ;
#205 = ORIENTED_EDGE ( 'NONE', *, *, #358, .T. ) ;
#206 = AXIS2_PLACEMENT_3D ( 'NONE', #472, #207, #371 ) ;
#207 = DIRECTION ( 'NONE',  ( 1.000000000000000000, 0.000000000000000000, 0.000000000000000000 ) ) ;
#208 = LINE ( 'NONE', #327, #223 ) ;
#209 = DIRECTION ( 'NONE',  ( 0.000000000000000000, 0.000000000000000000, 1.000000000000000000 ) ) ;
#210 = DIRECTION ( 'NONE',  ( 1.000000000000000000, 0.000000000000000000, 0.000000000000000000 ) ) ;
#211 = DIRECTION ( 'NONE',  ( 0.000000000000000000, 9.716738630813600023E-15, -1.000000000000000000 ) ) ;
#212 = PRODUCT ( 'lightsheet_red', 'lightsheet_red', '', ( #262 ) ) ;
#213 = CARTESIAN_POINT ( 'NONE',  ( 0.9999999999999995559, -0.08699999999999999400, -2.800000000000000266 ) ) ;
#214 = DIRECTION ( 'NONE',  ( 1.000000000000000000, 0.000000000000000000, 0.000000000000000000 ) ) ;
#215 = CARTESIAN_POINT ( 'NONE',  ( -0.9970308217411253393, 0.08655782550412338683, 2.799557825504123798 ) ) ;
#216 = DIRECTION ( 'NONE',  ( -1.000000000000000000, 0.000000000000000000, 0.000000000000000000 ) ) ;
#217 = CARTESIAN_POINT ( 'NONE',  ( -1.000000000000000444, 0.08167987200253372382, 2.794679872002534093 ) ) ;
#218 = EDGE_CURVE ( 'NONE', #346, #89, #24, .T. ) ;
#219 = CARTESIAN_POINT ( 'NONE',  ( 0.9991179619992966998, -0.08475192185264214528, -2.797751921852642543 ) ) ;
#220 = CARTESIAN_POINT ( 'NONE',  ( 0.9980246340370579894, 0.07670451682347524669, -2.636295483176528176 ) ) ;
#221 = B_SPLINE_CURVE_WITH_KNOTS ( 'NONE', 3,
 ( #364, #167, #62, #12, #372, #215, #178, #408, #260, #473, #139, #106, #141, #28, #291, #217 ),
 .UNSPECIFIED., .F., .F.,
 ( 4, 3, 3, 3, 3, 4 ),
 ( 0.000000000000000000, 1.285013747378236187E-06, 2.557497526646693770E-06, 4.432566183455849803E-06, 7.195801936941620298E-06, 9.898898396336106806E-06 ),
 .UNSPECIFIED. ) ;
#222 = ADVANCED_FACE ( 'NONE', ( #187 ), #354, .T. ) ;
#223 = VECTOR ( 'NONE', #252, 1000.000000000000000 ) ;
#224 = CARTESIAN_POINT ( 'NONE',  ( 0.9963509092825130198, 0.07745705061274649195, -2.635542949387256417 ) ) ;
#225 = ORIENTED_EDGE ( 'NONE', *, *, #131, .T. ) ;
#226 = SHAPE_DEFINITION_REPRESENTATION ( #308, #253 ) ;
#227 = DIRECTION ( 'NONE',  ( 0.000000000000000000, 0.000000000000000000, -1.000000000000000000 ) ) ;
#228 = EDGE_LOOP ( 'NONE', ( #86, #39, #417, #433, #98 ) ) ;
#229 = B_SPLINE_CURVE_WITH_KNOTS ( 'NONE', 3,
 ( #460, #121, #18, #426, #166, #430, #284, #355, #16, #14, #198, #401, #203, #95, #200, #323 ),
 .UNSPECIFIED., .F., .F.,
 ( 4, 3, 3, 3, 3, 4 ),
 ( 5.421010862427522170E-20, 2.525768609668218338E-06, 4.871191486692902467E-06, 6.627982770229878679E-06, 8.046505712692607329E-06, 9.198675655825876613E-06 ),
 .UNSPECIFIED. ) ;
#230 = ADVANCED_FACE ( 'NONE', ( #43 ), #314, .T. ) ;
#231 = LINE ( 'NONE', #76, #337 ) ;
#232 = ORIENTED_EDGE ( 'NONE', *, *, #461, .F. ) ;
#233 = VECTOR ( 'NONE', #214, 1000.000000000000000 ) ;
#234 = CARTESIAN_POINT ( 'NONE',  ( 0.9999999999999995559, 0.08254785179391528616, 2.795547851793915406 ) ) ;
#235 = VERTEX_POINT ( 'NONE', #338 ) ;
#236 = CARTESIAN_POINT ( 'NONE',  ( -0.9982926688217997890, 0.07648957950548052054, -2.636510420494522666 ) ) ;
#237 = ORIENTED_EDGE ( 'NONE', *, *, #55, .T. ) ;
#238 = EDGE_CURVE ( 'NONE', #346, #127, #231, .T. ) ;
#239 = CARTESIAN_POINT ( 'NONE',  ( 0.9987781450945809603, -0.07599627056109606316, 2.637003729438903932 ) ) ;
#240 = VERTEX_POINT ( 'NONE', #151 ) ;
#241 = EDGE_CURVE ( 'NONE', #3, #41, #476, .T. ) ;
#242 = VECTOR ( 'NONE', #428, 1000.000000000000000 ) ;
#243 = CARTESIAN_POINT ( 'NONE',  ( -1.000000000000000444, 0.07348327417852823507, -2.639516725821475784 ) ) ;
#244 = ORIENTED_EDGE ( 'NONE', *, *, #325, .T. ) ;
#245 = CARTESIAN_POINT ( 'NONE',  ( 0.9995419935583782500, -0.07495876827541278486, 2.638041231724586932 ) ) ;
#246 = ORIENTED_EDGE ( 'NONE', *, *, #48, .T. ) ;
#247 = DIRECTION ( 'NONE',  ( 1.000000000000000000, 0.000000000000000000, 0.000000000000000000 ) ) ;
#248 = ORIENTED_EDGE ( 'NONE', *, *, #304, .T. ) ;
#249 = ORIENTED_EDGE ( 'NONE', *, *, #259, .T. ) ;
#250 = AXIS2_PLACEMENT_3D ( 'NONE', #27, #66, #69 ) ;
#251 = AXIS2_PLACEMENT_3D ( 'NONE', #277, #130, #405 ) ;
#252 = DIRECTION ( 'NONE',  ( -1.000000000000000000, -0.000000000000000000, -0.000000000000000000 ) ) ;
#253 = ADVANCED_BREP_SHAPE_REPRESENTATION ( 'lightsheet_red', ( #373, #75 ), #13 ) ;
#254 = CARTESIAN_POINT ( 'NONE',  ( 0.9949999999999995515, 47.85087804878074280, 0.000000000000000000 ) ) ;
#255 = DIRECTION ( 'NONE',  ( 0.000000000000000000, 0.000000000000000000, -1.000000000000000000 ) ) ;
#256 = DIRECTION ( 'NONE',  ( 1.000000000000000000, 0.000000000000000000, 0.000000000000000000 ) ) ;
#257 = CARTESIAN_POINT ( 'NONE',  ( 0.9999999999999995559, 47.85087804878074280, 0.000000000000000000 ) ) ;
#258 =( LENGTH_UNIT ( ) NAMED_UNIT ( * ) SI_UNIT ( .MILLI., .METRE. ) );
#259 = EDGE_CURVE ( 'NONE', #273, #279, #229, .T. ) ;
#260 = CARTESIAN_POINT ( 'NONE',  ( -0.9982623994384798305, 0.08574444021467281241, 2.798744440214673279 ) ) ;
#261 = APPLICATION_CONTEXT ( 'automotive_design' ) ;
#262 = PRODUCT_CONTEXT ( 'NONE', #261, 'mechanical' ) ;
#263 = CARTESIAN_POINT ( 'NONE',  ( 0.9999999999999995559, -0.07288794480800320219, 2.640112055191996987 ) ) ;
#264 = CARTESIAN_POINT ( 'NONE',  ( -0.9994451427763608731, -0.08420705802239934756, -2.797207058022399551 ) ) ;
#265 = ORIENTED_EDGE ( 'NONE', *, *, #48, .F. ) ;
#266 = EDGE_CURVE ( 'NONE', #44, #127, #454, .T. ) ;
#267 = CARTESIAN_POINT ( 'NONE',  ( -0.9996710168333317048, -0.08357769860876609891, -2.796577698608766482 ) ) ;
#268 = CARTESIAN_POINT ( 'NONE',  ( 0.9967602942313553704, -0.08667637654484192100, -2.799676376544842693 ) ) ;
#269 = CARTESIAN_POINT ( 'NONE',  ( -0.9973623449334881874, -0.08636871567441131714, -2.799368715674411590 ) ) ;
#270 = ORIENTED_EDGE ( 'NONE', *, *, #87, .T. ) ;
#271 = APPLICATION_PROTOCOL_DEFINITION ( 'draft international standard', 'automotive_design', 1998, #353 ) ;
#272 = CARTESIAN_POINT ( 'NONE',  ( 0.9971807391522656827, 0.07717652363796691228, -2.635823476362036288 ) ) ;
#273 = VERTEX_POINT ( 'NONE', #319 ) ;
#274 = AXIS2_PLACEMENT_3D ( 'NONE', #213, #368, #332 ) ;
#275 = CARTESIAN_POINT ( 'NONE',  ( 0.9949999999999995515, 0.07763355007211342196, -2.635366449927883270 ) ) ;
#276 = CARTESIAN_POINT ( 'NONE',  ( 0.9975384582459703164, -0.07697644439475617717, 2.636023555605243374 ) ) ;
#277 = CARTESIAN_POINT ( 'NONE',  ( -0.9950000000000006617, 47.85087804878074280, 0.000000000000000000 ) ) ;
#278 = CARTESIAN_POINT ( 'NONE',  ( 0.9999999999999995559, -0.08699999999999999400, -2.800000000000000266 ) ) ;
#279 = VERTEX_POINT ( 'NONE', #129 ) ;
#280 = FACE_OUTER_BOUND ( 'NONE', #228, .T. ) ;
#281 = PRODUCT_DEFINITION_CONTEXT ( 'detailed design', #353, 'design' ) ;
#282 = ORIENTED_EDGE ( 'NONE', *, *, #333, .T. ) ;
#283 = ADVANCED_FACE ( 'NONE', ( #280 ), #385, .T. ) ;
#284 = CARTESIAN_POINT ( 'NONE',  ( -0.9986307217673185965, -0.07615070674709627230, 2.636849293252903514 ) ) ;
#285 = DIRECTION ( 'NONE',  ( 1.000000000000000000, -0.000000000000000000, -0.000000000000000000 ) ) ;
#286 = CARTESIAN_POINT ( 'NONE',  ( -1.000000000000000444, -0.08167987200253366831, -2.794679872002534093 ) ) ;
#287 = ORIENTED_EDGE ( 'NONE', *, *, #309, .T. ) ;
#288 = CIRCLE ( 'NONE', #362, 47.85087804878074280 ) ;
#289 = FACE_OUTER_BOUND ( 'NONE', #79, .T. ) ;
#290 = PLANE ( 'NONE',  #173 ) ;
#291 = CARTESIAN_POINT ( 'NONE',  ( -1.000000000000208278, 0.08231721551619572419, 2.795317215516196274 ) ) ;
#292 = SURFACE_STYLE_FILL_AREA ( #140 ) ;
#293 = EDGE_CURVE ( 'NONE', #235, #273, #363, .T. ) ;
#294 = LINE ( 'NONE', #171, #396 ) ;
#295 = FACE_OUTER_BOUND ( 'NONE', #435, .T. ) ;
#296 = CIRCLE ( 'NONE', #251, 47.84587804878074735 ) ;
#297 = CIRCLE ( 'NONE', #411, 47.84587804878074735 ) ;
#298 = CARTESIAN_POINT ( 'NONE',  ( 0.000000000000000000, 0.000000000000000000, 0.000000000000000000 ) ) ;
#299 = PLANE ( 'NONE',  #274 ) ;
#300 = CARTESIAN_POINT ( 'NONE',  ( 0.9995419935583814697, 0.07495876827541333998, -2.638041231724590041 ) ) ;
#301 = ORIENTED_EDGE ( 'NONE', *, *, #266, .F. ) ;
#302 = CARTESIAN_POINT ( 'NONE',  ( 0.9979693847162076636, 0.08598665755357016993, 2.798986657553570456 ) ) ;
#303 = ORIENTED_EDGE ( 'NONE', *, *, #238, .F. ) ;
#304 = EDGE_CURVE ( 'NONE', #133, #41, #132, .T. ) ;
#305 = APPLICATION_PROTOCOL_DEFINITION ( 'draft international standard', 'automotive_design', 1998, #261 ) ;
#306 = CARTESIAN_POINT ( 'NONE',  ( -0.9978488633033356647, -0.08609119238737403257, -2.799091192387374250 ) ) ;
#307 = CARTESIAN_POINT ( 'NONE',  ( 0.9954579252738524620, 0.07763355007212034697, -2.635366449927882826 ) ) ;
#308 = PRODUCT_DEFINITION_SHAPE ( 'NONE', 'NONE',  #149 ) ;
#309 = EDGE_CURVE ( 'NONE', #361, #240, #138, .T. ) ;
#310 = CARTESIAN_POINT ( 'NONE',  ( 0.9963675561695450877, 0.08681650027686640958, 2.799816500276866904 ) ) ;
#311 = ORIENTED_EDGE ( 'NONE', *, *, #188, .F. ) ;
#312 = AXIS2_PLACEMENT_3D ( 'NONE', #254, #177, #334 ) ;
#313 = FACE_OUTER_BOUND ( 'NONE', #342, .T. ) ;
#314 = TOROIDAL_SURFACE ( 'NONE', #99, 47.85087804878074280, 0.005000000000000000104 ) ;
#315 = ORIENTED_EDGE ( 'NONE', *, *, #325, .F. ) ;
#316 = CARTESIAN_POINT ( 'NONE',  ( 0.9967777323287374536, -0.07734336586368038835, 2.635656634136319454 ) ) ;
#317 = EDGE_LOOP ( 'NONE', ( #19, #237, #389, #282 ) ) ;
#318 = ADVANCED_FACE ( 'NONE', ( #313 ), #397, .F. ) ;
#319 = CARTESIAN_POINT ( 'NONE',  ( -1.000000000000000444, -0.07288794480800320219, 2.640112055191996987 ) ) ;
#320 = ORIENTED_EDGE ( 'NONE', *, *, #142, .T. ) ;
#321 = CARTESIAN_POINT ( 'NONE',  ( 0.9963509092825143520, -0.07745705061274579806, 2.635542949387254197 ) ) ;
#322 = ORIENTED_EDGE ( 'NONE', *, *, #87, .F. ) ;
#323 = CARTESIAN_POINT ( 'NONE',  ( -0.9950000000000006617, -0.07763355007212036085, 2.635366449927879717 ) ) ;
#324 = EDGE_LOOP ( 'NONE', ( #322, #311, #21, #265, #186 ) ) ;
#325 = EDGE_CURVE ( 'NONE', #127, #400, #404, .T. ) ;
#326 = CARTESIAN_POINT ( 'NONE',  ( -1.000000000000000444, -47.85087804878074280, 0.000000000000000000 ) ) ;
#327 = CARTESIAN_POINT ( 'NONE',  ( 0.9999999999999995559, 0.07763355007211342196, -2.635366449927883270 ) ) ;
#328 = DIRECTION ( 'NONE',  ( 1.000000000000000000, 0.000000000000000000, 0.000000000000000000 ) ) ;
#329 = CIRCLE ( 'NONE', #113, 47.85087804878074280 ) ;
#330 = CARTESIAN_POINT ( 'NONE',  ( 0.9999999999999995559, -47.85087804878074280, 0.000000000000000000 ) ) ;
#331 =( NAMED_UNIT ( * ) PLANE_ANGLE_UNIT ( ) SI_UNIT ( $, .RADIAN. ) );
#332 = DIRECTION ( 'NONE',  ( 0.000000000000000000, -0.7071067811865535679, -0.7071067811865415775 ) ) ;
#333 = EDGE_CURVE ( 'NONE', #279, #163, #297, .T. ) ;
#334 = DIRECTION ( 'NONE',  ( 0.000000000000000000, 0.000000000000000000, 1.000000000000000000 ) ) ;
#335 = DIRECTION ( 'NONE',  ( 0.000000000000000000, 0.000000000000000000, 1.000000000000000000 ) ) ;
#336 = DIRECTION ( 'NONE',  ( -1.000000000000000000, -0.000000000000000000, -0.000000000000000000 ) ) ;
#337 = VECTOR ( 'NONE', #8, 999.9999999999998863 ) ;
#338 = CARTESIAN_POINT ( 'NONE',  ( -1.000000000000000444, 0.08167987200253372382, 2.794679872002534093 ) ) ;
#339 = DIRECTION ( 'NONE',  ( -1.000000000000000000, 0.000000000000000000, 0.000000000000000000 ) ) ;
#340 = ORIENTED_EDGE ( 'NONE', *, *, #481, .T. ) ;
#341 = CARTESIAN_POINT ( 'NONE',  ( -0.9982623994384798305, -0.08574444021467279853, -2.798744440214673279 ) ) ;
#342 = EDGE_LOOP ( 'NONE', ( #429, #244, #350 ) ) ;
#343 = MECHANICAL_DESIGN_GEOMETRIC_PRESENTATION_REPRESENTATION (  '', ( #60 ), #136 ) ;
#344 = CARTESIAN_POINT ( 'NONE',  ( 0.9979693847162076636, -0.08598665755357010054, -2.798986657553570456 ) ) ;
#345 = CARTESIAN_POINT ( 'NONE',  ( -0.9985996054052503901, -0.08537226377138998346, -2.798372263771390589 ) ) ;
#346 = VERTEX_POINT ( 'NONE', #63 ) ;
#347 = EDGE_CURVE ( 'NONE', #91, #163, #294, .T. ) ;
#348 = CARTESIAN_POINT ( 'NONE',  ( 0.9949999999999997735, -0.08699999999999999400, -2.799999999999999822 ) ) ;
#349 = CARTESIAN_POINT ( 'NONE',  ( -0.9990949630984925500, -0.08482553422745806038, -2.797825534227458721 ) ) ;
#350 = ORIENTED_EDGE ( 'NONE', *, *, #45, .T. ) ;
#351 = CARTESIAN_POINT ( 'NONE',  ( -0.9953863304355486941, 0.07763355007325983825, -2.635366449926743737 ) ) ;
#352 = EDGE_LOOP ( 'NONE', ( #58, #50, #303, #451, #117, #47, #56, #249 ) ) ;
#353 = APPLICATION_CONTEXT ( 'automotive_design' ) ;
#354 = TOROIDAL_SURFACE ( 'NONE', #84, 47.85087804878074280, 0.005000000000000000104 ) ;
#355 = CARTESIAN_POINT ( 'NONE',  ( -0.9982926688217993449, -0.07648957950547725926, 2.636510420494522222 ) ) ;
#356 = ORIENTED_EDGE ( 'NONE', *, *, #293, .F. ) ;
#357 = CARTESIAN_POINT ( 'NONE',  ( -1.000000000000000444, 0.07288794480801003006, -2.640112055191992990 ) ) ;
#358 = EDGE_CURVE ( 'NONE', #471, #155, #195, .T. ) ;
#359 = ORIENTED_EDGE ( 'NONE', *, *, #176, .F. ) ;
#360 = CARTESIAN_POINT ( 'NONE',  ( -0.9965973376881502865, 0.07740641778703687137, -2.635593582212965913 ) ) ;
#361 = VERTEX_POINT ( 'NONE', #143 ) ;
#362 = AXIS2_PLACEMENT_3D ( 'NONE', #100, #449, #480 ) ;
#363 = LINE ( 'NONE', #465, #6 ) ;
#364 = CARTESIAN_POINT ( 'NONE',  ( -0.9950000000000006617, 0.08699999999999999400, 2.799999999999999822 ) ) ;
#365 = DIRECTION ( 'NONE',  ( -1.000000000000000000, -0.000000000000000000, -0.000000000000000000 ) ) ;
#366 = DIRECTION ( 'NONE',  ( 0.000000000000000000, 0.000000000000000000, 1.000000000000000000 ) ) ;
#367 = DIRECTION ( 'NONE',  ( 0.000000000000000000, 0.7071067811865464625, 0.7071067811865486830 ) ) ;
#368 = DIRECTION ( 'NONE',  ( 0.000000000000000000, -0.7071067811865415775, 0.7071067811865535679 ) ) ;
#369 = DIRECTION ( 'NONE',  ( 0.000000000000000000, 0.000000000000000000, 1.000000000000000000 ) ) ;
#370 = CARTESIAN_POINT ( 'NONE',  ( 0.9999999999999995559, -47.85087804878074280, 0.000000000000000000 ) ) ;
#371 = DIRECTION ( 'NONE',  ( 0.000000000000000000, 0.000000000000000000, -1.000000000000000000 ) ) ;
#372 = CARTESIAN_POINT ( 'NONE',  ( -0.9966582391324171342, 0.08671778274936126074, 2.799717782749361561 ) ) ;
#373 = MANIFOLD_SOLID_BREP ( 'Fillet1', #424 ) ;
#374 = SURFACE_STYLE_USAGE ( .BOTH. , #445 ) ;
#375 = PLANE ( 'NONE',  #204 ) ;
#376 = DIRECTION ( 'NONE',  ( 0.000000000000000000, 0.000000000000000000, 1.000000000000000000 ) ) ;
#377 = CARTESIAN_POINT ( 'NONE',  ( -0.9966582391324171342, -0.08671778274936126074, -2.799717782749361561 ) ) ;
#378 = AXIS2_PLACEMENT_3D ( 'NONE', #330, #170, #366 ) ;
#379 = CARTESIAN_POINT ( 'NONE',  ( -0.9954283379157922163, -0.08699999999999999400, -2.799999999999999822 ) ) ;
#380 = CARTESIAN_POINT ( 'NONE',  ( 0.9953221424704316034, -0.08700000000040035431, -2.800000000000400835 ) ) ;
#381 = CARTESIAN_POINT ( 'NONE',  ( 0.9959563894067318124, 0.08690176242274728902, 2.799901762422747797 ) ) ;
#382 = ORIENTED_EDGE ( 'NONE', *, *, #188, .T. ) ;
#383 = CARTESIAN_POINT ( 'NONE',  ( 0.9949999999999995515, 47.85087804878074280, 0.000000000000000000 ) ) ;
#384 = EDGE_LOOP ( 'NONE', ( #15, #320, #248 ) ) ;
#385 = TOROIDAL_SURFACE ( 'NONE', #162, 47.85087804878074280, 0.005000000000000000104 ) ;
#386 = CIRCLE ( 'NONE', #59, 47.85087804878074280 ) ;
#387 = CARTESIAN_POINT ( 'NONE',  ( 0.9971111658241326170, -0.08650247068055785804, -2.799502470680558464 ) ) ;
#388 = CARTESIAN_POINT ( 'NONE',  ( 0.9987639536898922366, 0.08524160148854985353, 2.798241601488550501 ) ) ;
#389 = ORIENTED_EDGE ( 'NONE', *, *, #165, .T. ) ;
#390 = ADVANCED_FACE ( 'NONE', ( #437 ), #22, .F. ) ;
#391 = CARTESIAN_POINT ( 'NONE',  ( -0.9970278821157295690, 0.07724534085846425369, -2.635754659141539058 ) ) ;
#392 = ORIENTED_EDGE ( 'NONE', *, *, #241, .F. ) ;
#393 = CARTESIAN_POINT ( 'NONE',  ( -0.9994163731770787651, 0.07518477396986207595, -2.637815226030141069 ) ) ;
#394 = DIRECTION ( 'NONE',  ( 0.000000000000000000, 0.000000000000000000, 1.000000000000000000 ) ) ;
#395 = AXIS2_PLACEMENT_3D ( 'NONE', #439, #172, #23 ) ;
#396 = VECTOR ( 'NONE', #365, 1000.000000000000000 ) ;
#397 = PLANE ( 'NONE',  #128 ) ;
#398 = ORIENTED_EDGE ( 'NONE', *, *, #241, .T. ) ;
#399 = CARTESIAN_POINT ( 'NONE',  ( -0.9974093761798002999, 0.07704621178235032675, -2.635953788217653138 ) ) ;
#400 = VERTEX_POINT ( 'NONE', #413 ) ;
#401 = CARTESIAN_POINT ( 'NONE',  ( -0.9965973376881509527, -0.07740641778703376275, 2.635593582212965913 ) ) ;
#402 = CARTESIAN_POINT ( 'NONE',  ( 0.9949999999999995515, -0.07763355007212036085, 2.635366449927879717 ) ) ;
#403 = CIRCLE ( 'NONE', #74, 47.85087804878074280 ) ;
#404 = CIRCLE ( 'NONE', #250, 47.85087804878074280 ) ;
#405 = DIRECTION ( 'NONE',  ( 0.000000000000000000, 0.000000000000000000, -1.000000000000000000 ) ) ;
#406 = CIRCLE ( 'NONE', #51, 47.84587804878074735 ) ;
#407 = CARTESIAN_POINT ( 'NONE',  ( -1.000000000000000444, 0.08699999999999999400, -2.799999999999999822 ) ) ;
#408 = CARTESIAN_POINT ( 'NONE',  ( -0.9978488633033356647, 0.08609119238737404645, 2.799091192387374250 ) ) ;
#409 =( NAMED_UNIT ( * ) SI_UNIT ( $, .STERADIAN. ) SOLID_ANGLE_UNIT ( ) );
#410 = DIRECTION ( 'NONE',  ( 0.000000000000000000, 0.000000000000000000, -1.000000000000000000 ) ) ;
#411 = AXIS2_PLACEMENT_3D ( 'NONE', #61, #97, #211 ) ;
#412 = FACE_OUTER_BOUND ( 'NONE', #96, .T. ) ;
#413 = CARTESIAN_POINT ( 'NONE',  ( 0.9999999999999995559, 0.000000000000000000, 0.000000000000000000 ) ) ;
#414 = CARTESIAN_POINT ( 'NONE',  ( 0.9999999999999995559, -0.07763355007212036085, 2.635366449927879717 ) ) ;
#415 = DIRECTION ( 'NONE',  ( -1.000000000000000000, -0.000000000000000000, -0.000000000000000000 ) ) ;
#416 = CARTESIAN_POINT ( 'NONE',  ( 0.9999999999999995559, 0.07288794480801003006, -2.640112055191992990 ) ) ;
#417 = ORIENTED_EDGE ( 'NONE', *, *, #202, .F. ) ;
#418 = ADVANCED_FACE ( 'NONE', ( #443 ), #477, .F. ) ;
#419 = CARTESIAN_POINT ( 'NONE',  ( 0.9987781450945798500, 0.07599627056110082324, -2.637003729438902155 ) ) ;
#420 = EDGE_CURVE ( 'NONE', #155, #273, #164, .T. ) ;
#421 = CARTESIAN_POINT ( 'NONE',  ( 0.9956472653865273692, -0.08696586433878124300, -2.799965864338781696 ) ) ;
#422 = CARTESIAN_POINT ( 'NONE',  ( -0.9950000000000006617, -0.08699999999999999400, -2.799999999999999822 ) ) ;
#423 = ORIENTED_EDGE ( 'NONE', *, *, #481, .F. ) ;
#424 = CLOSED_SHELL ( 'NONE', ( #83, #318, #390, #440, #92, #168, #101, #418, #222, #230, #283, #123 ) ) ;
#425 = CARTESIAN_POINT ( 'NONE',  ( -0.9996401290936687278, 0.07465571176097633710, -2.638344288239026891 ) ) ;
#426 = CARTESIAN_POINT ( 'NONE',  ( -0.9996401290936715034, -0.07465571176096968964, 2.638344288239030444 ) ) ;
#427 = CARTESIAN_POINT ( 'NONE',  ( 0.9949999999999995515, -47.85087804878074280, 0.000000000000000000 ) ) ;
#428 = DIRECTION ( 'NONE',  ( 0.000000000000000000, 0.7071067811865535679, 0.7071067811865415775 ) ) ;
#429 = ORIENTED_EDGE ( 'NONE', *, *, #238, .T. ) ;
#430 = CARTESIAN_POINT ( 'NONE',  ( -0.9990808744461308066, -0.07569946240213899780, 2.637300537597860650 ) ) ;
#431 = ORIENTED_EDGE ( 'NONE', *, *, #218, .F. ) ;
#432 = CARTESIAN_POINT ( 'NONE',  ( 0.9997406115519675840, -0.07439655704749148502, 2.638603442952508260 ) ) ;
#433 = ORIENTED_EDGE ( 'NONE', *, *, #333, .F. ) ;
#434 = CARTESIAN_POINT ( 'NONE',  ( 0.9993795618995751084, -0.08424658751968590320, -2.797246587519686134 ) ) ;
#435 = EDGE_LOOP ( 'NONE', ( #147, #205, #270 ) ) ;
#436 = AXIS2_PLACEMENT_3D ( 'NONE', #370, #30, #335 ) ;
#437 = FACE_OUTER_BOUND ( 'NONE', #384, .T. ) ;
#438 = PRODUCT_DEFINITION_FORMATION_WITH_SPECIFIED_SOURCE ( 'ANY', '', #212, .NOT_KNOWN. ) ;
#439 = CARTESIAN_POINT ( 'NONE',  ( -0.9950000000000006617, 47.85087804878074280, 0.000000000000000000 ) ) ;
#440 = ADVANCED_FACE ( 'NONE', ( #31 ), #290, .F. ) ;
#441 = DIRECTION ( 'NONE',  ( 0.000000000000000000, 0.000000000000000000, -1.000000000000000000 ) ) ;
#442 = DIRECTION ( 'NONE',  ( 0.000000000000000000, 0.000000000000000000, 1.000000000000000000 ) ) ;
#443 = FACE_OUTER_BOUND ( 'NONE', #352, .T. ) ;
#444 = CYLINDRICAL_SURFACE ( 'NONE', #153, 47.84587804878074735 ) ;
#445 = SURFACE_SIDE_STYLE ('',( #292 ) ) ;
#446 = CARTESIAN_POINT ( 'NONE',  ( -1.000000000000000444, 0.000000000000000000, 0.000000000000000000 ) ) ;
#447 = CARTESIAN_POINT ( 'NONE',  ( 0.9959563894067320344, -0.08690176242274688656, -2.799901762422747353 ) ) ;
#448 = EDGE_CURVE ( 'NONE', #94, #89, #474, .T. ) ;
#449 = DIRECTION ( 'NONE',  ( -1.000000000000000000, 0.000000000000000000, 0.000000000000000000 ) ) ;
#450 = CARTESIAN_POINT ( 'NONE',  ( 0.9999142384383530313, 0.07390508604212596422, -2.639094913957876987 ) ) ;
#451 = ORIENTED_EDGE ( 'NONE', *, *, #218, .T. ) ;
#452 = B_SPLINE_CURVE_WITH_KNOTS ( 'NONE', 3,
 ( #479, #482, #179, #434, #219, #7, #42, #344, #33, #387, #268, #77, #447, #421, #380, #348 ),
 .UNSPECIFIED., .F., .F.,
 ( 4, 3, 3, 3, 3, 4 ),
 ( 8.131516293641283255E-20, 3.682526378543541967E-06, 5.949850216027487304E-06, 7.611928525839887323E-06, 8.884767629191378874E-06, 9.837449744278849241E-06 ),
 .UNSPECIFIED. ) ;
#453 = CARTESIAN_POINT ( 'NONE',  ( 0.9975384582459662086, 0.07697644439475405387, -2.636023555605249147 ) ) ;
#454 = B_SPLINE_CURVE_WITH_KNOTS ( 'NONE', 3,
 ( #126, #93, #463, #321, #316, #161, #276, #88, #468, #239, #470, #245, #432, #156, #159, #124 ),
 .UNSPECIFIED., .F., .F.,
 ( 4, 3, 3, 3, 3, 4 ),
 ( 0.000000000000000000, 1.373775821563039891E-06, 2.737902105178363101E-06, 4.598658819369499830E-06, 7.064745935381224720E-06, 9.210299136943854719E-06 ),
 .UNSPECIFIED. ) ;
#455 = CARTESIAN_POINT ( 'NONE',  ( -1.000000000000209166, -0.08231721551619565480, -2.795317215516196274 ) ) ;
#456 = ORIENTED_EDGE ( 'NONE', *, *, #461, .T. ) ;
#457 = CARTESIAN_POINT ( 'NONE',  ( 0.9959223772478928982, 0.07757119055259584228, -2.635428809447406984 ) ) ;
#458 = ORIENTED_EDGE ( 'NONE', *, *, #142, .F. ) ;
#459 = VECTOR ( 'NONE', #336, 1000.000000000000000 ) ;
#460 = CARTESIAN_POINT ( 'NONE',  ( -1.000000000000000444, -0.07288794480800320219, 2.640112055191996987 ) ) ;
#461 = EDGE_CURVE ( 'NONE', #89, #3, #120, .T. ) ;
#462 = ORIENTED_EDGE ( 'NONE', *, *, #304, .F. ) ;
#463 = CARTESIAN_POINT ( 'NONE',  ( 0.9959223772478936754, -0.07757119055259535656, 2.635428809447404319 ) ) ;
#464 = CARTESIAN_POINT ( 'NONE',  ( 0.9999999999999995559, 0.07288794480801003006, -2.640112055191992990 ) ) ;
#465 = CARTESIAN_POINT ( 'NONE',  ( -1.000000000000000444, 0.08699999999999999400, 2.800000000000000266 ) ) ;
#466 = UNCERTAINTY_MEASURE_WITH_UNIT (LENGTH_MEASURE( 1.000000000000000082E-05 ), #258, 'distance_accuracy_value', 'NONE');
#467 = ORIENTED_EDGE ( 'NONE', *, *, #104, .F. ) ;
#468 = CARTESIAN_POINT ( 'NONE',  ( 0.9984418587562705616, -0.07636448762109936117, 2.636635512378900703 ) ) ;
#469 = ORIENTED_EDGE ( 'NONE', *, *, #202, .T. ) ;
#470 = CARTESIAN_POINT ( 'NONE',  ( 0.9992227334363703584, -0.07550946811485945154, 2.637490531885140488 ) ) ;
#471 = VERTEX_POINT ( 'NONE', #286 ) ;
#472 = CARTESIAN_POINT ( 'NONE',  ( -1.000000000000000444, -47.85087804878074280, 0.000000000000000000 ) ) ;
#473 = CARTESIAN_POINT ( 'NONE',  ( -0.9985996054052503901, 0.08537226377139001121, 2.798372263771390589 ) ) ;
#474 = LINE ( 'NONE', #137, #233 ) ;
#475 = DIRECTION ( 'NONE',  ( 1.000000000000000000, 0.000000000000000000, 0.000000000000000000 ) ) ;
#476 = B_SPLINE_CURVE_WITH_KNOTS ( 'NONE', 3,
 ( #275, #307, #457, #224, #118, #272, #453, #220, #2, #419, #146, #300, #78, #450, #111, #416 ),
 .UNSPECIFIED., .F., .F.,
 ( 4, 3, 3, 3, 3, 4 ),
 ( 8.758959612327588609E-19, 1.373775821561536408E-06, 2.737902105177245017E-06, 4.598658819363893319E-06, 7.064745935386284895E-06, 9.210299136935399636E-06 ),
 .UNSPECIFIED. ) ;
#477 = PLANE ( 'NONE',  #107 ) ;
#478 = FACE_OUTER_BOUND ( 'NONE', #324, .T. ) ;
#479 = CARTESIAN_POINT ( 'NONE',  ( 0.9999999999999995559, -0.08167987200253366831, -2.794679872002534093 ) ) ;
#480 = DIRECTION ( 'NONE',  ( 0.000000000000000000, 0.000000000000000000, 1.000000000000000000 ) ) ;
#481 = EDGE_CURVE ( 'NONE', #133, #91, #452, .T. ) ;
#482 = CARTESIAN_POINT ( 'NONE',  ( 0.9999999999999995559, -0.08254785179391528616, -2.795547851793915406 ) ) ;
#483 = CARTESIAN_POINT ( 'NONE',  ( 0.9949999999999997735, 0.08699999999999999400, 2.799999999999999822 ) ) ;
ENDSEC;
END-ISO-10303-21;
