ISO-10303-21;
HEADER;
FILE_DESCRIPTION (( 'STEP AP214' ),
    '1' );
FILE_NAME ('lightsheet_green.STEP',
    '2026-07-18T20:10:06',
    ( '' ),
    ( '' ),
    'SwSTEP 2.0',
    'SolidWorks 2025',
    '' );
FILE_SCHEMA (( 'AUTOMOTIVE_DESIGN' ));
ENDSEC;

DATA;
#1 = ORIENTED_EDGE ( 'NONE', *, *, #154, .F. ) ;
#2 = CARTESIAN_POINT ( 'NONE',  ( 0.9998015137294511412, 0.08343150025756285171, 2.796431500257562597 ) ) ;
#3 = VERTEX_POINT ( 'NONE', #191 ) ;
#4 = CARTESIAN_POINT ( 'NONE',  ( -0.9994451427763717533, 0.08420705802239158988, 2.797207058022391557 ) ) ;
#5 = ORIENTED_EDGE ( 'NONE', *, *, #438, .T. ) ;
#6 = CARTESIAN_POINT ( 'NONE',  ( 0.9959223772478926762, -0.07757119055257967466, 2.635428809447419862 ) ) ;
#7 = ORIENTED_EDGE ( 'NONE', *, *, #84, .T. ) ;
#8 = PLANE ( 'NONE',  #373 ) ;
#9 = DIRECTION ( 'NONE',  ( 0.000000000000000000, -0.7071067811865464625, -0.7071067811865486830 ) ) ;
#10 = AXIS2_PLACEMENT_3D ( 'NONE', #310, #483, #147 ) ;
#11 = DIRECTION ( 'NONE',  ( -1.000000000000000000, 0.000000000000000000, 0.000000000000000000 ) ) ;
#12 = EDGE_CURVE ( 'NONE', #92, #3, #432, .T. ) ;
#13 = DIRECTION ( 'NONE',  ( 0.000000000000000000, 0.000000000000000000, -1.000000000000000000 ) ) ;
#14 = DIRECTION ( 'NONE',  ( 0.000000000000000000, 0.000000000000000000, 1.000000000000000000 ) ) ;
#15 = AXIS2_PLACEMENT_3D ( 'NONE', #426, #245, #393 ) ;
#16 = DIRECTION ( 'NONE',  ( -1.000000000000000000, -0.000000000000000000, -0.000000000000000000 ) ) ;
#17 = DIRECTION ( 'NONE',  ( 0.000000000000000000, 0.000000000000000000, 1.000000000000000000 ) ) ;
#18 = CARTESIAN_POINT ( 'NONE',  ( 0.9993795618995751084, -0.08424658751968629178, -2.797246587519686134 ) ) ;
#19 = ORIENTED_EDGE ( 'NONE', *, *, #225, .T. ) ;
#20 = FILL_AREA_STYLE_COLOUR ( '', #47 ) ;
#21 = CARTESIAN_POINT ( 'NONE',  ( -1.000000000000000444, 0.08699999999999999400, -2.799999999999999822 ) ) ;
#22 = EDGE_LOOP ( 'NONE', ( #220, #336, #455, #224, #481 ) ) ;
#23 = CARTESIAN_POINT ( 'NONE',  ( 0.9999999999999995559, -0.08167987200253390423, -2.794679872002534093 ) ) ;
#24 = CIRCLE ( 'NONE', #213, 47.85087804878048701 ) ;
#25 =( GEOMETRIC_REPRESENTATION_CONTEXT ( 3 ) GLOBAL_UNCERTAINTY_ASSIGNED_CONTEXT ( ( #294 ) ) GLOBAL_UNIT_ASSIGNED_CONTEXT ( ( #193, #45, #246 ) ) REPRESENTATION_CONTEXT ( 'NONE', 'WORKASPACE' ) );
#26 = PRODUCT_RELATED_PRODUCT_CATEGORY ( 'part', '', ( #260 ) ) ;
#27 = CARTESIAN_POINT ( 'NONE',  ( -0.9990808744461358026, 0.07569946240214434074, -2.637300537597857097 ) ) ;
#28 = CARTESIAN_POINT ( 'NONE',  ( -0.9962617306406352791, -0.08682781387769966663, -2.799827813877699523 ) ) ;
#29 = CARTESIAN_POINT ( 'NONE',  ( 0.9975686316102947426, 0.08627573251034072188, 2.799275732510341008 ) ) ;
#30 = FACE_OUTER_BOUND ( 'NONE', #273, .T. ) ;
#31 = ORIENTED_EDGE ( 'NONE', *, *, #271, .T. ) ;
#32 = PRESENTATION_LAYER_ASSIGNMENT (  '', '', ( #267 ) ) ;
#33 = CARTESIAN_POINT ( 'NONE',  ( -1.000000000000000444, 0.08699999999999999400, -2.799999999999999822 ) ) ;
#34 = EDGE_LOOP ( 'NONE', ( #406, #182, #152 ) ) ;
#35 = CARTESIAN_POINT ( 'NONE',  ( 0.9999999999999995559, 0.08699999999999999400, -2.799999999999999822 ) ) ;
#36 = ORIENTED_EDGE ( 'NONE', *, *, #244, .T. ) ;
#37 = APPLICATION_CONTEXT ( 'automotive_design' ) ;
#38 = CARTESIAN_POINT ( 'NONE',  ( -1.000000000000000444, 0.07288794480800786513, -2.640112055191994322 ) ) ;
#39 = ORIENTED_EDGE ( 'NONE', *, *, #412, .T. ) ;
#40 = CARTESIAN_POINT ( 'NONE',  ( 0.9997406115519746894, 0.07439655704747764886, -2.638603442952524247 ) ) ;
#41 = ORIENTED_EDGE ( 'NONE', *, *, #154, .T. ) ;
#42 = B_SPLINE_CURVE_WITH_KNOTS ( 'NONE', 3,
 ( #413, #272, #2, #307, #105, #75, #301, #416, #29, #180, #335, #219, #296, #443, #259, #370 ),
 .UNSPECIFIED., .F., .F.,
 ( 4, 3, 3, 3, 3, 4 ),
 ( 4.065758146820641628E-20, 3.682526378543604224E-06, 5.949850216021897734E-06, 7.611928525833088189E-06, 8.884767629189081720E-06, 9.837449744280234986E-06 ),
 .UNSPECIFIED. ) ;
#43 = CARTESIAN_POINT ( 'NONE',  ( 0.9980246340370693137, -0.07670451682347011191, 2.636295483176529508 ) ) ;
#44 = CARTESIAN_POINT ( 'NONE',  ( 0.9999999999999995559, 0.08167987200253568059, 2.794679872002535870 ) ) ;
#45 =( NAMED_UNIT ( * ) PLANE_ANGLE_UNIT ( ) SI_UNIT ( $, .RADIAN. ) );
#46 = CARTESIAN_POINT ( 'NONE',  ( 0.9999999999999995559, -47.85087804878048701, 0.000000000000000000 ) ) ;
#47 = COLOUR_RGB ( '',0.7921568627450980005, 0.8196078431372548767, 0.9333333333333333481 ) ;
#48 = PLANE ( 'NONE',  #478 ) ;
#49 = EDGE_CURVE ( 'NONE', #71, #184, #150, .T. ) ;
#50 = DIRECTION ( 'NONE',  ( 0.000000000000000000, 0.000000000000000000, 1.000000000000000000 ) ) ;
#51 = CARTESIAN_POINT ( 'NONE',  ( -1.000000000000000444, -0.07288794480800667164, 2.640112055191992990 ) ) ;
#52 = CARTESIAN_POINT ( 'NONE',  ( -0.9953863304355480279, 0.07763355007325217771, -2.635366449926749510 ) ) ;
#53 = EDGE_CURVE ( 'NONE', #292, #139, #192, .T. ) ;
#54 = CARTESIAN_POINT ( 'NONE',  ( 0.9999999999999995559, -0.07288794480800667164, 2.640112055191992990 ) ) ;
#55 = CARTESIAN_POINT ( 'NONE',  ( -0.9965973376881613888, 0.07740641778704356046, -2.635593582212958808 ) ) ;
#56 = ORIENTED_EDGE ( 'NONE', *, *, #244, .F. ) ;
#57 = LINE ( 'NONE', #445, #204 ) ;
#58 = CARTESIAN_POINT ( 'NONE',  ( -0.9965973376881593904, -0.07740641778704289433, 2.635593582212956587 ) ) ;
#59 = PRODUCT_DEFINITION_CONTEXT ( 'detailed design', #37, 'design' ) ;
#60 = CARTESIAN_POINT ( 'NONE',  ( -0.9998813553147612998, -0.07408534169292078919, 2.638914658307078387 ) ) ;
#61 = ORIENTED_EDGE ( 'NONE', *, *, #187, .T. ) ;
#62 = CARTESIAN_POINT ( 'NONE',  ( -0.9966582391324164680, -0.08671778274936130237, -2.799717782749361117 ) ) ;
#63 = EDGE_CURVE ( 'NONE', #268, #414, #102, .T. ) ;
#64 = CARTESIAN_POINT ( 'NONE',  ( -0.9990808744461358026, -0.07569946240214324440, 2.637300537597855765 ) ) ;
#65 =( NAMED_UNIT ( * ) PLANE_ANGLE_UNIT ( ) SI_UNIT ( $, .RADIAN. ) );
#66 = FACE_OUTER_BOUND ( 'NONE', #287, .T. ) ;
#67 = ADVANCED_FACE ( 'NONE', ( #124 ), #174, .T. ) ;
#68 = ORIENTED_EDGE ( 'NONE', *, *, #238, .T. ) ;
#69 = CARTESIAN_POINT ( 'NONE',  ( -1.000000000000208278, -0.08231721551619172739, -2.795317215516191833 ) ) ;
#70 = DIRECTION ( 'NONE',  ( -1.000000000000000000, -0.000000000000000000, -0.000000000000000000 ) ) ;
#71 = VERTEX_POINT ( 'NONE', #85 ) ;
#72 = MECHANICAL_DESIGN_GEOMETRIC_PRESENTATION_REPRESENTATION (  '', ( #267 ), #25 ) ;
#73 = PLANE ( 'NONE',  #317 ) ;
#74 = ORIENTED_EDGE ( 'NONE', *, *, #238, .F. ) ;
#75 = CARTESIAN_POINT ( 'NONE',  ( 0.9987639536898970105, 0.08524160148855101926, 2.798241601488550945 ) ) ;
#76 = ORIENTED_EDGE ( 'NONE', *, *, #449, .F. ) ;
#77 = CARTESIAN_POINT ( 'NONE',  ( -0.9982623994384779431, 0.08574444021467082788, 2.798744440214671059 ) ) ;
#78 = ORIENTED_EDGE ( 'NONE', *, *, #198, .F. ) ;
#79 = AXIS2_PLACEMENT_3D ( 'NONE', #201, #359, #314 ) ;
#80 = CARTESIAN_POINT ( 'NONE',  ( 0.9999999999999995559, 0.08699999999999999400, 2.799999999999999822 ) ) ;
#81 = CARTESIAN_POINT ( 'NONE',  ( 0.9999999999999995559, 47.85087804878048701, 0.000000000000000000 ) ) ;
#82 = CARTESIAN_POINT ( 'NONE',  ( 0.9999142384383525872, 0.07390508604211698529, -2.639094913957884980 ) ) ;
#83 = DIRECTION ( 'NONE',  ( 1.000000000000000000, 0.000000000000000000, 0.000000000000000000 ) ) ;
#84 = EDGE_CURVE ( 'NONE', #111, #92, #24, .T. ) ;
#85 = CARTESIAN_POINT ( 'NONE',  ( -1.000000000000000444, 0.08167987200253568059, 2.794679872002535870 ) ) ;
#86 = ADVANCED_FACE ( 'NONE', ( #390 ), #48, .F. ) ;
#87 = CARTESIAN_POINT ( 'NONE',  ( -1.000000000000000444, -47.85087804878048701, 0.000000000000000000 ) ) ;
#88 = DIRECTION ( 'NONE',  ( 1.000000000000000000, 0.000000000000000000, 0.000000000000000000 ) ) ;
#89 = SURFACE_STYLE_USAGE ( .BOTH. , #386 ) ;
#90 = EDGE_CURVE ( 'NONE', #434, #453, #120, .T. ) ;
#91 = CARTESIAN_POINT ( 'NONE',  ( -0.9953863304355486941, -0.07763355007325045687, 2.635366449926748622 ) ) ;
#92 = VERTEX_POINT ( 'NONE', #321 ) ;
#93 = FILL_AREA_STYLE ('',( #20 ) ) ;
#94 = AXIS2_PLACEMENT_3D ( 'NONE', #33, #446, #454 ) ;
#95 = CARTESIAN_POINT ( 'NONE',  ( -1.000000000000000444, 0.07348327417852822119, -2.639516725821478449 ) ) ;
#96 = UNCERTAINTY_MEASURE_WITH_UNIT (LENGTH_MEASURE( 1.000000000000000082E-05 ), #372, 'distance_accuracy_value', 'NONE');
#97 = CARTESIAN_POINT ( 'NONE',  ( -0.9950000000000006617, 0.08699999999999999400, 2.799999999999999822 ) ) ;
#98 = CARTESIAN_POINT ( 'NONE',  ( 0.9953221424704331577, -0.08700000000039771753, -2.800000000000397726 ) ) ;
#99 = EDGE_CURVE ( 'NONE', #71, #453, #361, .T. ) ;
#100 = CARTESIAN_POINT ( 'NONE',  ( -0.9958629984937213964, -0.08693846207045993757, -2.799938462070459710 ) ) ;
#101 = CARTESIAN_POINT ( 'NONE',  ( -0.9998813553147612998, 0.07408534169292188554, -2.638914658307079719 ) ) ;
#102 = CIRCLE ( 'NONE', #418, 47.84587804878049155 ) ;
#103 = CARTESIAN_POINT ( 'NONE',  ( -0.9985996054052503901, -0.08537226377138650013, -2.798372263771386592 ) ) ;
#104 = EDGE_CURVE ( 'NONE', #434, #270, #157, .T. ) ;
#105 = CARTESIAN_POINT ( 'NONE',  ( 0.9991179619992973659, 0.08475192185264326938, 2.797751921852642987 ) ) ;
#106 = DIRECTION ( 'NONE',  ( -1.000000000000000000, 0.000000000000000000, 0.000000000000000000 ) ) ;
#107 = CARTESIAN_POINT ( 'NONE',  ( -0.9954283379157922163, -0.08699999999999999400, -2.799999999999999822 ) ) ;
#108 = DIRECTION ( 'NONE',  ( 0.000000000000000000, 0.000000000000000000, -1.000000000000000000 ) ) ;
#109 = ORIENTED_EDGE ( 'NONE', *, *, #12, .F. ) ;
#110 = CARTESIAN_POINT ( 'NONE',  ( -0.9990949630984955476, 0.08482553422745212068, 2.797825534227452060 ) ) ;
#111 = VERTEX_POINT ( 'NONE', #197 ) ;
#112 = VECTOR ( 'NONE', #357, 999.9999999999998863 ) ;
#113 = AXIS2_PLACEMENT_3D ( 'NONE', #81, #239, #385 ) ;
#114 = CARTESIAN_POINT ( 'NONE',  ( -0.9978488633033415489, 0.08609119238737948654, 2.799091192387379579 ) ) ;
#115 = ORIENTED_EDGE ( 'NONE', *, *, #198, .T. ) ;
#116 = FACE_OUTER_BOUND ( 'NONE', #376, .T. ) ;
#117 = ORIENTED_EDGE ( 'NONE', *, *, #99, .F. ) ;
#118 = CARTESIAN_POINT ( 'NONE',  ( 0.9999999999999995559, -0.08699999999999999400, -2.799999999999999822 ) ) ;
#119 = DIRECTION ( 'NONE',  ( 0.000000000000000000, -0.7071067811865433539, 0.7071067811865517916 ) ) ;
#120 = CIRCLE ( 'NONE', #306, 47.85087804878048701 ) ;
#121 = DIRECTION ( 'NONE',  ( -1.000000000000000000, -0.000000000000000000, -0.000000000000000000 ) ) ;
#122 = DIRECTION ( 'NONE',  ( 0.000000000000000000, -0.7071067811865517916, -0.7071067811865433539 ) ) ;
#123 = CARTESIAN_POINT ( 'NONE',  ( 0.9995419935583871318, -0.07495876827539910137, 2.638041231724600255 ) ) ;
#124 = FACE_OUTER_BOUND ( 'NONE', #429, .T. ) ;
#125 = CARTESIAN_POINT ( 'NONE',  ( 0.9999999999999995559, -0.08699999999999999400, -2.799999999999999822 ) ) ;
#126 = CLOSED_SHELL ( 'NONE', ( #282, #328, #170, #217, #360, #318, #86, #419, #135, #285, #181, #67 ) ) ;
#127 = DIRECTION ( 'NONE',  ( -1.000000000000000000, 0.000000000000000000, 0.000000000000000000 ) ) ;
#128 = CARTESIAN_POINT ( 'NONE',  ( 0.9999999999999995559, -0.07763355007212383030, 2.635366449927876165 ) ) ;
#129 = B_SPLINE_CURVE_WITH_KNOTS ( 'NONE', 3,
 ( #169, #363, #324, #315, #326, #465, #467, #288, #130, #430, #435, #384, #40, #82, #349, #156 ),
 .UNSPECIFIED., .F., .F.,
 ( 4, 3, 3, 3, 3, 4 ),
 ( 8.758959612327588609E-19, 1.373775821568190910E-06, 2.737902105182086234E-06, 4.598658819374729411E-06, 7.064745935393270376E-06, 9.210299136925741766E-06 ),
 .UNSPECIFIED. ) ;
#130 = CARTESIAN_POINT ( 'NONE',  ( 0.9984418587562703395, 0.07636448762109000754, -2.636635512378911805 ) ) ;
#131 = CARTESIAN_POINT ( 'NONE',  ( -0.9986307217673240366, -0.07615070674709976950, 2.636849293252899518 ) ) ;
#132 = ORIENTED_EDGE ( 'NONE', *, *, #63, .F. ) ;
#133 = CARTESIAN_POINT ( 'NONE',  ( 0.9984418587562791103, -0.07636448762109357413, 2.636635512378906032 ) ) ;
#134 = VECTOR ( 'NONE', #190, 1000.000000000000000 ) ;
#135 = ADVANCED_FACE ( 'NONE', ( #463 ), #402, .T. ) ;
#136 = FACE_OUTER_BOUND ( 'NONE', #333, .T. ) ;
#137 = CARTESIAN_POINT ( 'NONE',  ( -0.9996710168333414748, -0.08357769860875473300, -2.796577698608754936 ) ) ;
#138 = CARTESIAN_POINT ( 'NONE',  ( 0.9975686316102947426, -0.08627573251034029167, -2.799275732510340564 ) ) ;
#139 = VERTEX_POINT ( 'NONE', #320 ) ;
#140 = CARTESIAN_POINT ( 'NONE',  ( -1.000000000000000444, 0.000000000000000000, 0.000000000000000000 ) ) ;
#141 = CARTESIAN_POINT ( 'NONE',  ( -1.000000000000000444, -0.07348327417852826282, 2.639516725821478005 ) ) ;
#142 = SHAPE_DEFINITION_REPRESENTATION ( #183, #322 ) ;
#143 = LINE ( 'NONE', #369, #134 ) ;
#144 = AXIS2_PLACEMENT_3D ( 'NONE', #431, #347, #108 ) ;
#145 = ORIENTED_EDGE ( 'NONE', *, *, #242, .T. ) ;
#146 = PRODUCT_DEFINITION ( 'UNKNOWN', '', #425, #59 ) ;
#147 = DIRECTION ( 'NONE',  ( 0.000000000000000000, 0.000000000000000000, 1.000000000000000000 ) ) ;
#148 = ORIENTED_EDGE ( 'NONE', *, *, #53, .T. ) ;
#149 = CARTESIAN_POINT ( 'NONE',  ( -1.000000000000000444, 0.08167987200253568059, 2.794679872002535870 ) ) ;
#150 = LINE ( 'NONE', #319, #112 ) ;
#151 = CARTESIAN_POINT ( 'NONE',  ( 0.9999999999999995559, 0.07763355007212383030, -2.635366449927869503 ) ) ;
#152 = ORIENTED_EDGE ( 'NONE', *, *, #229, .T. ) ;
#153 = CARTESIAN_POINT ( 'NONE',  ( -1.000000000000208278, 0.08231721551619289312, 2.795317215516192721 ) ) ;
#154 = EDGE_CURVE ( 'NONE', #234, #92, #381, .T. ) ;
#155 = EDGE_LOOP ( 'NONE', ( #168, #383, #172, #400, #74 ) ) ;
#156 = CARTESIAN_POINT ( 'NONE',  ( 0.9999999999999995559, 0.07288794480800786513, -2.640112055191994322 ) ) ;
#157 = LINE ( 'NONE', #241, #275 ) ;
#158 = DIRECTION ( 'NONE',  ( 0.000000000000000000, 0.7071067811865464625, 0.7071067811865486830 ) ) ;
#159 = DIRECTION ( 'NONE',  ( 0.000000000000000000, 0.7071067811865516806, 0.7071067811865434649 ) ) ;
#160 = VECTOR ( 'NONE', #70, 1000.000000000000000 ) ;
#161 = CARTESIAN_POINT ( 'NONE',  ( 0.9999999999999995559, -47.85087804878048701, 0.000000000000000000 ) ) ;
#162 = DIRECTION ( 'NONE',  ( 0.000000000000000000, 0.000000000000000000, 1.000000000000000000 ) ) ;
#163 = DIRECTION ( 'NONE',  ( 1.000000000000000000, -0.000000000000000000, -0.000000000000000000 ) ) ;
#164 = AXIS2_PLACEMENT_3D ( 'NONE', #46, #127, #462 ) ;
#165 = CARTESIAN_POINT ( 'NONE',  ( -1.000000000000000444, 47.85087804878048701, 0.000000000000000000 ) ) ;
#166 = CARTESIAN_POINT ( 'NONE',  ( 0.9992227334363783520, -0.07550946811484883503, 2.637490531885150702 ) ) ;
#167 = CARTESIAN_POINT ( 'NONE',  ( -0.9974093761798016322, 0.07704621178234892509, -2.635953788217653138 ) ) ;
#168 = ORIENTED_EDGE ( 'NONE', *, *, #264, .F. ) ;
#169 = CARTESIAN_POINT ( 'NONE',  ( 0.9949999999999995515, 0.07763355007212383030, -2.635366449927869503 ) ) ;
#170 = ADVANCED_FACE ( 'NONE', ( #392 ), #196, .F. ) ;
#171 = CARTESIAN_POINT ( 'NONE',  ( -1.000000000000000444, 0.07288794480800786513, -2.640112055191994322 ) ) ;
#172 = ORIENTED_EDGE ( 'NONE', *, *, #438, .F. ) ;
#173 = EDGE_CURVE ( 'NONE', #444, #232, #235, .T. ) ;
#174 = TOROIDAL_SURFACE ( 'NONE', #202, 47.85087804878048701, 0.005000000000000000104 ) ;
#175 = CARTESIAN_POINT ( 'NONE',  ( 0.9998015137294511412, -0.08343150025756107535, -2.796431500257560820 ) ) ;
#176 = DIRECTION ( 'NONE',  ( 1.000000000000000000, 0.000000000000000000, 0.000000000000000000 ) ) ;
#177 = DIRECTION ( 'NONE',  ( 1.000000000000000000, 0.000000000000000000, 0.000000000000000000 ) ) ;
#178 = ORIENTED_EDGE ( 'NONE', *, *, #449, .T. ) ;
#179 =( NAMED_UNIT ( * ) SI_UNIT ( $, .STERADIAN. ) SOLID_ANGLE_UNIT ( ) );
#180 = CARTESIAN_POINT ( 'NONE',  ( 0.9971111658241293974, 0.08650247068054717214, 2.799502470680547361 ) ) ;
#181 = ADVANCED_FACE ( 'NONE', ( #459 ), #295, .T. ) ;
#182 = ORIENTED_EDGE ( 'NONE', *, *, #90, .T. ) ;
#183 = PRODUCT_DEFINITION_SHAPE ( 'NONE', 'NONE',  #146 ) ;
#184 = VERTEX_POINT ( 'NONE', #51 ) ;
#185 = FACE_OUTER_BOUND ( 'NONE', #22, .T. ) ;
#186 = ORIENTED_EDGE ( 'NONE', *, *, #173, .T. ) ;
#187 = EDGE_CURVE ( 'NONE', #92, #189, #338, .T. ) ;
#188 = DIRECTION ( 'NONE',  ( 0.000000000000000000, 0.000000000000000000, 1.000000000000000000 ) ) ;
#189 = VERTEX_POINT ( 'NONE', #44 ) ;
#190 = DIRECTION ( 'NONE',  ( 1.000000000000000000, 0.000000000000000000, 0.000000000000000000 ) ) ;
#191 = CARTESIAN_POINT ( 'NONE',  ( 0.9999999999999995559, -0.08167987200253390423, -2.794679872002534093 ) ) ;
#192 = CIRCLE ( 'NONE', #389, 47.84587804878049155 ) ;
#193 =( LENGTH_UNIT ( ) NAMED_UNIT ( * ) SI_UNIT ( .MILLI., .METRE. ) );
#194 = ORIENTED_EDGE ( 'NONE', *, *, #312, .F. ) ;
#195 = LINE ( 'NONE', #352, #457 ) ;
#196 = PLANE ( 'NONE',  #441 ) ;
#197 = CARTESIAN_POINT ( 'NONE',  ( 0.9999999999999995559, 0.07288794480800786513, -2.640112055191994322 ) ) ;
#198 = EDGE_CURVE ( 'NONE', #189, #234, #195, .T. ) ;
#199 = CARTESIAN_POINT ( 'NONE',  ( 0.9999999999999995559, 47.85087804878048701, 0.000000000000000000 ) ) ;
#200 = B_SPLINE_CURVE_WITH_KNOTS ( 'NONE', 3,
 ( #354, #394, #6, #233, #397, #207, #203, #43, #133, #460, #166, #123, #382, #458, #351, #54 ),
 .UNSPECIFIED., .F., .F.,
 ( 4, 3, 3, 3, 3, 4 ),
 ( 8.758959612327588609E-19, 1.373775821567141225E-06, 2.737902105180461201E-06, 4.598658819371376855E-06, 7.064745935390718266E-06, 9.210299136917659378E-06 ),
 .UNSPECIFIED. ) ;
#201 = CARTESIAN_POINT ( 'NONE',  ( -0.9950000000000006617, -47.85087804878048701, 0.000000000000000000 ) ) ;
#202 = AXIS2_PLACEMENT_3D ( 'NONE', #355, #424, #13 ) ;
#203 = CARTESIAN_POINT ( 'NONE',  ( 0.9975384582459762006, -0.07697644439475111178, 2.636023555605248259 ) ) ;
#204 = VECTOR ( 'NONE', #216, 1000.000000000000000 ) ;
#205 = CARTESIAN_POINT ( 'NONE',  ( -1.000000000000000444, -0.07288794480800667164, 2.640112055191992990 ) ) ;
#206 = EDGE_CURVE ( 'NONE', #380, #473, #277, .T. ) ;
#207 = CARTESIAN_POINT ( 'NONE',  ( 0.9971807391522770070, -0.07717652363796428938, 2.635823476362034956 ) ) ;
#208 = CARTESIAN_POINT ( 'NONE',  ( -0.9978812173038341671, -0.07679992410463412633, 2.636200075895365647 ) ) ;
#209 = ORIENTED_EDGE ( 'NONE', *, *, #49, .T. ) ;
#210 = CARTESIAN_POINT ( 'NONE',  ( -0.9973623449334918512, -0.08636871567441803399, -2.799368715674418251 ) ) ;
#211 = CARTESIAN_POINT ( 'NONE',  ( -0.9996401290936687278, 0.07465571176097421380, -2.638344288239027779 ) ) ;
#212 = CARTESIAN_POINT ( 'NONE',  ( -0.9950000000000006617, -0.08699999999999999400, -2.799999999999999822 ) ) ;
#213 = AXIS2_PLACEMENT_3D ( 'NONE', #199, #358, #14 ) ;
#214 = CARTESIAN_POINT ( 'NONE',  ( 0.9999999999999995559, -0.07288794480800667164, 2.640112055191992990 ) ) ;
#215 = ORIENTED_EDGE ( 'NONE', *, *, #415, .F. ) ;
#216 = DIRECTION ( 'NONE',  ( -1.000000000000000000, -0.000000000000000000, -0.000000000000000000 ) ) ;
#217 = ADVANCED_FACE ( 'NONE', ( #136 ), #464, .F. ) ;
#218 = CARTESIAN_POINT ( 'NONE',  ( 0.9987639536898974546, -0.08524160148855053354, -2.798241601488550945 ) ) ;
#219 = CARTESIAN_POINT ( 'NONE',  ( 0.9963675561695463090, 0.08681650027686234339, 2.799816500276862019 ) ) ;
#220 = ORIENTED_EDGE ( 'NONE', *, *, #412, .F. ) ;
#221 = CARTESIAN_POINT ( 'NONE',  ( -0.9994451427763717533, -0.08420705802239156212, -2.797207058022391557 ) ) ;
#222 = DIRECTION ( 'NONE',  ( 0.000000000000000000, 0.000000000000000000, 1.000000000000000000 ) ) ;
#223 = AXIS2_PLACEMENT_3D ( 'NONE', #165, #177, #474 ) ;
#224 = ORIENTED_EDGE ( 'NONE', *, *, #187, .F. ) ;
#225 = EDGE_CURVE ( 'NONE', #414, #380, #290, .T. ) ;
#226 = B_SPLINE_CURVE_WITH_KNOTS ( 'NONE', 3,
 ( #205, #141, #60, #404, #252, #64, #131, #284, #208, #332, #291, #58, #428, #395, #91, #247 ),
 .UNSPECIFIED., .F., .F.,
 ( 4, 3, 3, 3, 3, 4 ),
 ( 4.065758146820641628E-20, 2.525768609668441954E-06, 4.871191486687799941E-06, 6.627982770225220845E-06, 8.046505712681050412E-06, 9.198675655824019916E-06 ),
 .UNSPECIFIED. ) ;
#227 = CARTESIAN_POINT ( 'NONE',  ( -0.9970308217411294471, 0.08655782550412985388, 2.799557825504130015 ) ) ;
#228 = ORIENTED_EDGE ( 'NONE', *, *, #49, .F. ) ;
#229 = EDGE_CURVE ( 'NONE', #453, #270, #479, .T. ) ;
#230 = B_SPLINE_CURVE_WITH_KNOTS ( 'NONE', 3,
 ( #480, #379, #375, #304, #342, #227, #476, #114, #77, #377, #110, #4, #405, #263, #153, #149 ),
 .UNSPECIFIED., .F., .F.,
 ( 4, 3, 3, 3, 3, 4 ),
 ( 0.000000000000000000, 1.285013747378261810E-06, 2.557497526643184936E-06, 4.432566183458118157E-06, 7.195801936956649204E-06, 9.898898396328781665E-06 ),
 .UNSPECIFIED. ) ;
#231 = PLANE ( 'NONE',  #94 ) ;
#232 = VERTEX_POINT ( 'NONE', #97 ) ;
#233 = CARTESIAN_POINT ( 'NONE',  ( 0.9963509092825143520, -0.07745705061272947778, 2.635542949387270184 ) ) ;
#234 = VERTEX_POINT ( 'NONE', #214 ) ;
#235 = CIRCLE ( 'NONE', #15, 47.84587804878049155 ) ;
#236 = B_SPLINE_CURVE_WITH_KNOTS ( 'NONE', 3,
 ( #212, #107, #100, #28, #62, #442, #210, #337, #303, #103, #334, #221, #137, #331, #69, #368 ),
 .UNSPECIFIED., .F., .F.,
 ( 4, 3, 3, 3, 3, 4 ),
 ( 0.000000000000000000, 1.285013747378263080E-06, 2.557497526643188748E-06, 4.432566183458143568E-06, 7.195801936956702567E-06, 9.898898396331299047E-06 ),
 .UNSPECIFIED. ) ;
#237 = DIRECTION ( 'NONE',  ( 0.000000000000000000, 0.7071067811865486830, -0.7071067811865464625 ) ) ;
#238 = EDGE_CURVE ( 'NONE', #184, #380, #226, .T. ) ;
#239 = DIRECTION ( 'NONE',  ( -1.000000000000000000, 0.000000000000000000, 0.000000000000000000 ) ) ;
#240 = CYLINDRICAL_SURFACE ( 'NONE', #470, 47.84587804878049155 ) ;
#241 = CARTESIAN_POINT ( 'NONE',  ( -1.000000000000000444, -0.08699999999999999400, -2.799999999999999822 ) ) ;
#242 = EDGE_CURVE ( 'NONE', #270, #444, #250, .T. ) ;
#243 = DIRECTION ( 'NONE',  ( 0.000000000000000000, 0.000000000000000000, 1.000000000000000000 ) ) ;
#244 = EDGE_CURVE ( 'NONE', #3, #268, #297, .T. ) ;
#245 = DIRECTION ( 'NONE',  ( -1.000000000000000000, -0.000000000000000000, -0.000000000000000000 ) ) ;
#246 =( NAMED_UNIT ( * ) SI_UNIT ( $, .STERADIAN. ) SOLID_ANGLE_UNIT ( ) );
#247 = CARTESIAN_POINT ( 'NONE',  ( -0.9950000000000006617, -0.07763355007212383030, 2.635366449927876165 ) ) ;
#248 = CARTESIAN_POINT ( 'NONE',  ( -0.9950000000000006617, -0.07763355007212383030, 2.635366449927876165 ) ) ;
#249 = CIRCLE ( 'NONE', #144, 47.85087804878048701 ) ;
#250 = B_SPLINE_CURVE_WITH_KNOTS ( 'NONE', 3,
 ( #171, #95, #101, #211, #293, #27, #399, #365, #440, #167, #327, #55, #401, #468, #52, #362 ),
 .UNSPECIFIED., .F., .F.,
 ( 4, 3, 3, 3, 3, 4 ),
 ( 9.486769009248163798E-20, 2.525768609668103141E-06, 4.871191486687313744E-06, 6.627982770220636702E-06, 8.046505712679359734E-06, 9.198675655824482396E-06 ),
 .UNSPECIFIED. ) ;
#251 = CARTESIAN_POINT ( 'NONE',  ( 0.9956472653865324762, -0.08696586433878435163, -2.799965864338784360 ) ) ;
#252 = CARTESIAN_POINT ( 'NONE',  ( -0.9994163731770787651, -0.07518477396985920325, 2.637815226030140181 ) ) ;
#253 = EDGE_LOOP ( 'NONE', ( #305, #132, #56, #109, #1 ) ) ;
#254 = CARTESIAN_POINT ( 'NONE',  ( -0.9950000000000006617, 0.07763355007212383030, -2.635366449927869503 ) ) ;
#255 = CARTESIAN_POINT ( 'NONE',  ( 0.9963675561695519711, -0.08681650027686765858, -2.799816500276867792 ) ) ;
#256 = AXIS2_PLACEMENT_3D ( 'NONE', #387, #11, #243 ) ;
#257 = CARTESIAN_POINT ( 'NONE',  ( 0.9991179619992971439, -0.08475192185264196487, -2.797751921852641654 ) ) ;
#258 = APPLICATION_CONTEXT ( 'automotive_design' ) ;
#259 = CARTESIAN_POINT ( 'NONE',  ( 0.9953221424704311593, 0.08700000000039785630, 2.800000000000397726 ) ) ;
#260 = PRODUCT ( 'lightsheet_green', 'lightsheet_green', '', ( #475 ) ) ;
#261 = ORIENTED_EDGE ( 'NONE', *, *, #63, .T. ) ;
#262 = CARTESIAN_POINT ( 'NONE',  ( -0.9950000000000006617, -0.08699999999999999400, -2.799999999999999822 ) ) ;
#263 = CARTESIAN_POINT ( 'NONE',  ( -0.9998927283082065243, 0.08295993751795277538, 2.795959937517952909 ) ) ;
#264 = EDGE_CURVE ( 'NONE', #453, #184, #249, .T. ) ;
#265 = ORIENTED_EDGE ( 'NONE', *, *, #99, .T. ) ;
#266 = CARTESIAN_POINT ( 'NONE',  ( 0.9999999999999995559, 47.85087804878048701, 0.000000000000000000 ) ) ;
#267 = STYLED_ITEM ( 'NONE', ( #427 ), #374 ) ;
#268 = VERTEX_POINT ( 'NONE', #339 ) ;
#269 = DIRECTION ( 'NONE',  ( -1.000000000000000000, 0.000000000000000000, 0.000000000000000000 ) ) ;
#270 = VERTEX_POINT ( 'NONE', #38 ) ;
#271 = EDGE_CURVE ( 'NONE', #232, #71, #230, .T. ) ;
#272 = CARTESIAN_POINT ( 'NONE',  ( 0.9999999999999995559, 0.08254785179391881111, 2.795547851793915406 ) ) ;
#273 = EDGE_LOOP ( 'NONE', ( #76, #261, #19, #330 ) ) ;
#274 = DIRECTION ( 'NONE',  ( 0.000000000000000000, 0.7071067811865516806, 0.7071067811865434649 ) ) ;
#275 = VECTOR ( 'NONE', #159, 999.9999999999998863 ) ;
#276 = DIRECTION ( 'NONE',  ( -1.000000000000000000, 0.000000000000000000, 0.000000000000000000 ) ) ;
#277 = CIRCLE ( 'NONE', #409, 47.84587804878049155 ) ;
#278 = SURFACE_STYLE_FILL_AREA ( #93 ) ;
#279 = CARTESIAN_POINT ( 'NONE',  ( 0.9949999999999995515, 47.85087804878048701, 0.000000000000000000 ) ) ;
#280 = CARTESIAN_POINT ( 'NONE',  ( 0.9949999999999995515, -47.85087804878048701, 0.000000000000000000 ) ) ;
#281 = CARTESIAN_POINT ( 'NONE',  ( 0.9999999999999995559, 0.08699999999999999400, -2.799999999999999822 ) ) ;
#282 = ADVANCED_FACE ( 'NONE', ( #451 ), #231, .F. ) ;
#283 = DIRECTION ( 'NONE',  ( 0.000000000000000000, 0.000000000000000000, -1.000000000000000000 ) ) ;
#284 = CARTESIAN_POINT ( 'NONE',  ( -0.9982926688218043410, -0.07648957950548102014, 2.636510420494518225 ) ) ;
#285 = ADVANCED_FACE ( 'NONE', ( #185 ), #391, .T. ) ;
#286 = CARTESIAN_POINT ( 'NONE',  ( 0.9949999999999997735, -0.08699999999999999400, -2.799999999999999822 ) ) ;
#287 = EDGE_LOOP ( 'NONE', ( #411, #148, #477, #186 ) ) ;
#288 = CARTESIAN_POINT ( 'NONE',  ( 0.9980246340370695357, 0.07670451682347192990, -2.636295483176530396 ) ) ;
#289 = AXIS2_PLACEMENT_3D ( 'NONE', #266, #410, #222 ) ;
#290 = LINE ( 'NONE', #128, #356 ) ;
#291 = CARTESIAN_POINT ( 'NONE',  ( -0.9970278821157297910, -0.07724534085846238018, 2.635754659141537282 ) ) ;
#292 = VERTEX_POINT ( 'NONE', #344 ) ;
#293 = CARTESIAN_POINT ( 'NONE',  ( -0.9994163731770787651, 0.07518477396986027184, -2.637815226030141513 ) ) ;
#294 = UNCERTAINTY_MEASURE_WITH_UNIT (LENGTH_MEASURE( 1.000000000000000082E-05 ), #193, 'distance_accuracy_value', 'NONE');
#295 = TOROIDAL_SURFACE ( 'NONE', #79, 47.85087804878048701, 0.005000000000000000104 ) ;
#296 = CARTESIAN_POINT ( 'NONE',  ( 0.9959563894067329226, 0.08690176242274347262, 2.799901762422743356 ) ) ;
#297 = B_SPLINE_CURVE_WITH_KNOTS ( 'NONE', 3,
 ( #23, #364, #175, #18, #257, #218, #329, #472, #138, #437, #325, #255, #466, #251, #98, #286 ),
 .UNSPECIFIED., .F., .F.,
 ( 4, 3, 3, 3, 3, 4 ),
 ( 2.710505431213761085E-20, 3.682526378543735090E-06, 5.949850216024094938E-06, 7.611928525834573885E-06, 8.884767629187241965E-06, 9.837449744282035778E-06 ),
 .UNSPECIFIED. ) ;
#298 = ORIENTED_EDGE ( 'NONE', *, *, #415, .T. ) ;
#299 = CARTESIAN_POINT ( 'NONE',  ( -1.000000000000000444, -0.08167987200253390423, -2.794679872002534093 ) ) ;
#300 = EDGE_CURVE ( 'NONE', #232, #292, #143, .T. ) ;
#301 = CARTESIAN_POINT ( 'NONE',  ( 0.9983057463143366617, 0.08567125605034106584, 2.798671256050341061 ) ) ;
#302 = ORIENTED_EDGE ( 'NONE', *, *, #264, .T. ) ;
#303 = CARTESIAN_POINT ( 'NONE',  ( -0.9982623994384779431, -0.08574444021467080013, -2.798744440214671059 ) ) ;
#304 = CARTESIAN_POINT ( 'NONE',  ( -0.9962617306406352791, 0.08682781387769966663, 2.799827813877699523 ) ) ;
#305 = ORIENTED_EDGE ( 'NONE', *, *, #388, .F. ) ;
#306 = AXIS2_PLACEMENT_3D ( 'NONE', #87, #83, #422 ) ;
#307 = CARTESIAN_POINT ( 'NONE',  ( 0.9993795618995751084, 0.08424658751968806814, 2.797246587519687910 ) ) ;
#308 = VECTOR ( 'NONE', #274, 999.9999999999998863 ) ;
#309 = ORIENTED_EDGE ( 'NONE', *, *, #225, .F. ) ;
#310 = CARTESIAN_POINT ( 'NONE',  ( 0.9949999999999995515, 47.85087804878048701, 0.000000000000000000 ) ) ;
#311 = ORIENTED_EDGE ( 'NONE', *, *, #12, .T. ) ;
#312 = EDGE_CURVE ( 'NONE', #139, #444, #407, .T. ) ;
#313 = CARTESIAN_POINT ( 'NONE',  ( 0.9949999999999995515, -0.07763355007212383030, 2.635366449927876165 ) ) ;
#314 = DIRECTION ( 'NONE',  ( 0.000000000000000000, 0.000000000000000000, -1.000000000000000000 ) ) ;
#315 = CARTESIAN_POINT ( 'NONE',  ( 0.9963509092825143520, 0.07745705061272999126, -2.635542949387271960 ) ) ;
#316 = CARTESIAN_POINT ( 'NONE',  ( -0.9950000000000006617, -47.85087804878048701, 0.000000000000000000 ) ) ;
#317 = AXIS2_PLACEMENT_3D ( 'NONE', #35, #269, #188 ) ;
#318 = ADVANCED_FACE ( 'NONE', ( #66 ), #448, .F. ) ;
#319 = CARTESIAN_POINT ( 'NONE',  ( -1.000000000000000444, 0.08699999999999999400, 2.799999999999999822 ) ) ;
#320 = CARTESIAN_POINT ( 'NONE',  ( 0.9949999999999995515, 0.07763355007212383030, -2.635366449927869503 ) ) ;
#321 = CARTESIAN_POINT ( 'NONE',  ( 0.9999999999999995559, 0.000000000000000000, 0.000000000000000000 ) ) ;
#322 = ADVANCED_BREP_SHAPE_REPRESENTATION ( 'lightsheet_green', ( #374, #452 ), #396 ) ;
#323 = DIRECTION ( 'NONE',  ( 0.000000000000000000, -1.058689432909547114E-14, -1.000000000000000000 ) ) ;
#324 = CARTESIAN_POINT ( 'NONE',  ( 0.9959223772478924541, 0.07757119055258027140, -2.635428809447421195 ) ) ;
#325 = CARTESIAN_POINT ( 'NONE',  ( 0.9967602942313530390, -0.08667637654483099918, -2.799676376544831147 ) ) ;
#326 = CARTESIAN_POINT ( 'NONE',  ( 0.9967777323287364544, 0.07734336586366453992, -2.635656634136337217 ) ) ;
#327 = CARTESIAN_POINT ( 'NONE',  ( -0.9970278821157325666, 0.07724534085846265774, -2.635754659141539058 ) ) ;
#328 = ADVANCED_FACE ( 'NONE', ( #116 ), #73, .F. ) ;
#329 = CARTESIAN_POINT ( 'NONE',  ( 0.9983057463143366617, -0.08567125605034098257, -2.798671256050341061 ) ) ;
#330 = ORIENTED_EDGE ( 'NONE', *, *, #206, .T. ) ;
#331 = CARTESIAN_POINT ( 'NONE',  ( -0.9998927283082067463, -0.08295993751795217863, -2.795959937517952465 ) ) ;
#332 = CARTESIAN_POINT ( 'NONE',  ( -0.9974093761797980795, -0.07704621178234925816, 2.635953788217650473 ) ) ;
#333 = EDGE_LOOP ( 'NONE', ( #265, #302, #228 ) ) ;
#334 = CARTESIAN_POINT ( 'NONE',  ( -0.9990949630984955476, -0.08482553422745209293, -2.797825534227452060 ) ) ;
#335 = CARTESIAN_POINT ( 'NONE',  ( 0.9967602942313523728, 0.08667637654483170695, 2.799676376544832035 ) ) ;
#336 = ORIENTED_EDGE ( 'NONE', *, *, #53, .F. ) ;
#337 = CARTESIAN_POINT ( 'NONE',  ( -0.9978488633033415489, -0.08609119238737948654, -2.799091192387379579 ) ) ;
#338 = CIRCLE ( 'NONE', #113, 47.85087804878048701 ) ;
#339 = CARTESIAN_POINT ( 'NONE',  ( 0.9949999999999997735, -0.08699999999999999400, -2.799999999999999822 ) ) ;
#340 = ORIENTED_EDGE ( 'NONE', *, *, #229, .F. ) ;
#341 = CARTESIAN_POINT ( 'NONE',  ( 0.000000000000000000, 0.000000000000000000, 0.000000000000000000 ) ) ;
#342 = CARTESIAN_POINT ( 'NONE',  ( -0.9966582391324164680, 0.08671778274936130237, 2.799717782749361117 ) ) ;
#343 = EDGE_LOOP ( 'NONE', ( #7, #311, #298 ) ) ;
#344 = CARTESIAN_POINT ( 'NONE',  ( 0.9949999999999997735, 0.08699999999999999400, 2.799999999999999822 ) ) ;
#345 = ORIENTED_EDGE ( 'NONE', *, *, #271, .F. ) ;
#346 = AXIS2_PLACEMENT_3D ( 'NONE', #421, #88, #283 ) ;
#347 = DIRECTION ( 'NONE',  ( 1.000000000000000000, 0.000000000000000000, 0.000000000000000000 ) ) ;
#348 = ORIENTED_EDGE ( 'NONE', *, *, #353, .T. ) ;
#349 = CARTESIAN_POINT ( 'NONE',  ( 1.000000000000145439, 0.07339451849166453434, -2.639605481508337181 ) ) ;
#350 = CARTESIAN_POINT ( 'NONE',  ( 0.9999999999999995559, -47.85087804878048701, 0.000000000000000000 ) ) ;
#351 = CARTESIAN_POINT ( 'NONE',  ( 1.000000000000145439, -0.07339451849166257758, 2.639605481508336737 ) ) ;
#352 = CARTESIAN_POINT ( 'NONE',  ( 0.9999999999999995559, 0.08699999999999999400, 2.799999999999999822 ) ) ;
#353 = EDGE_CURVE ( 'NONE', #189, #292, #42, .T. ) ;
#354 = CARTESIAN_POINT ( 'NONE',  ( 0.9949999999999995515, -0.07763355007212383030, 2.635366449927876165 ) ) ;
#355 = CARTESIAN_POINT ( 'NONE',  ( -0.9950000000000006617, 47.85087804878048701, 0.000000000000000000 ) ) ;
#356 = VECTOR ( 'NONE', #366, 1000.000000000000000 ) ;
#357 = DIRECTION ( 'NONE',  ( 0.000000000000000000, -0.7071067811865464625, -0.7071067811865486830 ) ) ;
#358 = DIRECTION ( 'NONE',  ( -1.000000000000000000, 0.000000000000000000, 0.000000000000000000 ) ) ;
#359 = DIRECTION ( 'NONE',  ( 1.000000000000000000, 0.000000000000000000, 0.000000000000000000 ) ) ;
#360 = ADVANCED_FACE ( 'NONE', ( #30 ), #240, .F. ) ;
#361 = CIRCLE ( 'NONE', #346, 47.85087804878048701 ) ;
#362 = CARTESIAN_POINT ( 'NONE',  ( -0.9950000000000006617, 0.07763355007212383030, -2.635366449927869503 ) ) ;
#363 = CARTESIAN_POINT ( 'NONE',  ( 0.9954579252738546824, 0.07763355007211690528, -2.635366449927869947 ) ) ;
#364 = CARTESIAN_POINT ( 'NONE',  ( 0.9999999999999995559, -0.08254785179391534167, -2.795547851793915406 ) ) ;
#365 = CARTESIAN_POINT ( 'NONE',  ( -0.9982926688218050071, 0.07648957950548138096, -2.636510420494520002 ) ) ;
#366 = DIRECTION ( 'NONE',  ( -1.000000000000000000, -0.000000000000000000, -0.000000000000000000 ) ) ;
#367 = ORIENTED_EDGE ( 'NONE', *, *, #388, .T. ) ;
#368 = CARTESIAN_POINT ( 'NONE',  ( -1.000000000000000444, -0.08167987200253390423, -2.794679872002534093 ) ) ;
#369 = CARTESIAN_POINT ( 'NONE',  ( -1.000000000000000444, 0.08699999999999999400, 2.799999999999999822 ) ) ;
#370 = CARTESIAN_POINT ( 'NONE',  ( 0.9949999999999997735, 0.08699999999999999400, 2.799999999999999822 ) ) ;
#371 = ORIENTED_EDGE ( 'NONE', *, *, #300, .F. ) ;
#372 =( LENGTH_UNIT ( ) NAMED_UNIT ( * ) SI_UNIT ( .MILLI., .METRE. ) );
#373 = AXIS2_PLACEMENT_3D ( 'NONE', #80, #237, #158 ) ;
#374 = MANIFOLD_SOLID_BREP ( 'Fillet1', #126 ) ;
#375 = CARTESIAN_POINT ( 'NONE',  ( -0.9958629984937213964, 0.08693846207045993757, 2.799938462070459710 ) ) ;
#376 = EDGE_LOOP ( 'NONE', ( #115, #41, #61 ) ) ;
#377 = CARTESIAN_POINT ( 'NONE',  ( -0.9985996054052503901, 0.08537226377138652789, 2.798372263771386592 ) ) ;
#378 = EDGE_LOOP ( 'NONE', ( #309, #367, #78, #348, #371, #31, #209, #68 ) ) ;
#379 = CARTESIAN_POINT ( 'NONE',  ( -0.9954283379157922163, 0.08699999999999999400, 2.799999999999999822 ) ) ;
#380 = VERTEX_POINT ( 'NONE', #248 ) ;
#381 = CIRCLE ( 'NONE', #164, 47.85087804878048701 ) ;
#382 = CARTESIAN_POINT ( 'NONE',  ( 0.9997406115519749115, -0.07439655704747427656, 2.638603442952525135 ) ) ;
#383 = ORIENTED_EDGE ( 'NONE', *, *, #90, .F. ) ;
#384 = CARTESIAN_POINT ( 'NONE',  ( 0.9995419935583873539, 0.07495876827540126630, -2.638041231724600699 ) ) ;
#385 = DIRECTION ( 'NONE',  ( 0.000000000000000000, 0.000000000000000000, 1.000000000000000000 ) ) ;
#386 = SURFACE_SIDE_STYLE ('',( #278 ) ) ;
#387 = CARTESIAN_POINT ( 'NONE',  ( 0.9949999999999995515, -47.85087804878048701, 0.000000000000000000 ) ) ;
#388 = EDGE_CURVE ( 'NONE', #414, #234, #200, .T. ) ;
#389 = AXIS2_PLACEMENT_3D ( 'NONE', #279, #163, #162 ) ;
#390 = FACE_OUTER_BOUND ( 'NONE', #471, .T. ) ;
#391 = TOROIDAL_SURFACE ( 'NONE', #10, 47.85087804878048701, 0.005000000000000000104 ) ;
#392 = FACE_OUTER_BOUND ( 'NONE', #343, .T. ) ;
#393 = DIRECTION ( 'NONE',  ( 0.000000000000000000, 0.000000000000000000, -1.000000000000000000 ) ) ;
#394 = CARTESIAN_POINT ( 'NONE',  ( 0.9954579252738544604, -0.07763355007211690528, 2.635366449927876609 ) ) ;
#395 = CARTESIAN_POINT ( 'NONE',  ( -0.9957767842720384177, -0.07758966997139608857, 2.635410330028603365 ) ) ;
#396 =( GEOMETRIC_REPRESENTATION_CONTEXT ( 3 ) GLOBAL_UNCERTAINTY_ASSIGNED_CONTEXT ( ( #96 ) ) GLOBAL_UNIT_ASSIGNED_CONTEXT ( ( #372, #65, #179 ) ) REPRESENTATION_CONTEXT ( 'NONE', 'WORKASPACE' ) );
#397 = CARTESIAN_POINT ( 'NONE',  ( 0.9967777323287364544, -0.07734336586366401256, 2.635656634136335441 ) ) ;
#398 = DIRECTION ( 'NONE',  ( 0.000000000000000000, 0.000000000000000000, -1.000000000000000000 ) ) ;
#399 = CARTESIAN_POINT ( 'NONE',  ( -0.9986307217673240366, 0.07615070674710087972, -2.636849293252900850 ) ) ;
#400 = ORIENTED_EDGE ( 'NONE', *, *, #206, .F. ) ;
#401 = CARTESIAN_POINT ( 'NONE',  ( -0.9961451776889623799, 0.07750739757203073399, -2.635492602427971232 ) ) ;
#402 = TOROIDAL_SURFACE ( 'NONE', #256, 47.85087804878048701, 0.005000000000000000104 ) ;
#403 = DIRECTION ( 'NONE',  ( 0.000000000000000000, 0.000000000000000000, 1.000000000000000000 ) ) ;
#404 = CARTESIAN_POINT ( 'NONE',  ( -0.9996401290936687278, -0.07465571176097314521, 2.638344288239026447 ) ) ;
#405 = CARTESIAN_POINT ( 'NONE',  ( -0.9996710168333414748, 0.08357769860875477463, 2.796577698608754936 ) ) ;
#406 = ORIENTED_EDGE ( 'NONE', *, *, #104, .F. ) ;
#407 = LINE ( 'NONE', #151, #160 ) ;
#408 = ORIENTED_EDGE ( 'NONE', *, *, #242, .F. ) ;
#409 = AXIS2_PLACEMENT_3D ( 'NONE', #316, #16, #323 ) ;
#410 = DIRECTION ( 'NONE',  ( -1.000000000000000000, -0.000000000000000000, -0.000000000000000000 ) ) ;
#411 = ORIENTED_EDGE ( 'NONE', *, *, #300, .T. ) ;
#412 = EDGE_CURVE ( 'NONE', #139, #111, #129, .T. ) ;
#413 = CARTESIAN_POINT ( 'NONE',  ( 0.9999999999999995559, 0.08167987200253568059, 2.794679872002535870 ) ) ;
#414 = VERTEX_POINT ( 'NONE', #313 ) ;
#415 = EDGE_CURVE ( 'NONE', #3, #111, #456, .T. ) ;
#416 = CARTESIAN_POINT ( 'NONE',  ( 0.9979693847162174336, 0.08598665755357125240, 2.798986657553571344 ) ) ;
#417 = ORIENTED_EDGE ( 'NONE', *, *, #173, .F. ) ;
#418 = AXIS2_PLACEMENT_3D ( 'NONE', #280, #423, #461 ) ;
#419 = ADVANCED_FACE ( 'NONE', ( #420 ), #8, .F. ) ;
#420 = FACE_OUTER_BOUND ( 'NONE', #378, .T. ) ;
#421 = CARTESIAN_POINT ( 'NONE',  ( -1.000000000000000444, 47.85087804878048701, 0.000000000000000000 ) ) ;
#422 = DIRECTION ( 'NONE',  ( 0.000000000000000000, 0.000000000000000000, -1.000000000000000000 ) ) ;
#423 = DIRECTION ( 'NONE',  ( 1.000000000000000000, -0.000000000000000000, -0.000000000000000000 ) ) ;
#424 = DIRECTION ( 'NONE',  ( 1.000000000000000000, 0.000000000000000000, 0.000000000000000000 ) ) ;
#425 = PRODUCT_DEFINITION_FORMATION_WITH_SPECIFIED_SOURCE ( 'ANY', '', #260, .NOT_KNOWN. ) ;
#426 = CARTESIAN_POINT ( 'NONE',  ( -0.9950000000000006617, 47.85087804878048701, 0.000000000000000000 ) ) ;
#427 = PRESENTATION_STYLE_ASSIGNMENT (( #89 ) ) ;
#428 = CARTESIAN_POINT ( 'NONE',  ( -0.9961451776889616028, -0.07750739757202979030, 2.635492602427969455 ) ) ;
#429 = EDGE_LOOP ( 'NONE', ( #340, #117, #345, #417, #408 ) ) ;
#430 = CARTESIAN_POINT ( 'NONE',  ( 0.9987781450945802941, 0.07599627056108579359, -2.637003729438915922 ) ) ;
#431 = CARTESIAN_POINT ( 'NONE',  ( -1.000000000000000444, -47.85087804878048701, 0.000000000000000000 ) ) ;
#432 = CIRCLE ( 'NONE', #469, 47.85087804878048701 ) ;
#433 = AXIS2_PLACEMENT_3D ( 'NONE', #21, #436, #398 ) ;
#434 = VERTEX_POINT ( 'NONE', #299 ) ;
#435 = CARTESIAN_POINT ( 'NONE',  ( 0.9992227334363699143, 0.07550946811484700316, -2.637490531885155143 ) ) ;
#436 = DIRECTION ( 'NONE',  ( 1.000000000000000000, 0.000000000000000000, 0.000000000000000000 ) ) ;
#437 = CARTESIAN_POINT ( 'NONE',  ( 0.9971111658241295084, -0.08650247068054667254, -2.799502470680546917 ) ) ;
#438 = EDGE_CURVE ( 'NONE', #473, #434, #236, .T. ) ;
#439 = APPLICATION_PROTOCOL_DEFINITION ( 'draft international standard', 'automotive_design', 1998, #37 ) ;
#440 = CARTESIAN_POINT ( 'NONE',  ( -0.9978812173038364985, 0.07679992410463408470, -2.636200075895367867 ) ) ;
#441 = AXIS2_PLACEMENT_3D ( 'NONE', #281, #276, #50 ) ;
#442 = CARTESIAN_POINT ( 'NONE',  ( -0.9970308217411294471, -0.08655782550412985388, -2.799557825504130015 ) ) ;
#443 = CARTESIAN_POINT ( 'NONE',  ( 0.9956472653865275912, 0.08696586433877812050, 2.799965864338778143 ) ) ;
#444 = VERTEX_POINT ( 'NONE', #254 ) ;
#445 = CARTESIAN_POINT ( 'NONE',  ( -1.000000000000000444, -0.08699999999999999400, -2.799999999999999822 ) ) ;
#446 = DIRECTION ( 'NONE',  ( 1.000000000000000000, 0.000000000000000000, 0.000000000000000000 ) ) ;
#447 = DIRECTION ( 'NONE',  ( 0.000000000000000000, 0.000000000000000000, 1.000000000000000000 ) ) ;
#448 = CYLINDRICAL_SURFACE ( 'NONE', #289, 47.84587804878049155 ) ;
#449 = EDGE_CURVE ( 'NONE', #268, #473, #57, .T. ) ;
#450 = ORIENTED_EDGE ( 'NONE', *, *, #104, .T. ) ;
#451 = FACE_OUTER_BOUND ( 'NONE', #34, .T. ) ;
#452 = AXIS2_PLACEMENT_3D ( 'NONE', #341, #403, #176 ) ;
#453 = VERTEX_POINT ( 'NONE', #140 ) ;
#454 = DIRECTION ( 'NONE',  ( 0.000000000000000000, 0.000000000000000000, -1.000000000000000000 ) ) ;
#455 = ORIENTED_EDGE ( 'NONE', *, *, #353, .F. ) ;
#456 = LINE ( 'NONE', #118, #308 ) ;
#457 = VECTOR ( 'NONE', #9, 999.9999999999998863 ) ;
#458 = CARTESIAN_POINT ( 'NONE',  ( 0.9999142384383525872, -0.07390508604211432075, 2.639094913957885424 ) ) ;
#459 = FACE_OUTER_BOUND ( 'NONE', #155, .T. ) ;
#460 = CARTESIAN_POINT ( 'NONE',  ( 0.9987781450945885098, -0.07599627056108895773, 2.637003729438910593 ) ) ;
#461 = DIRECTION ( 'NONE',  ( 0.000000000000000000, 1.769316586506366292E-14, 1.000000000000000000 ) ) ;
#462 = DIRECTION ( 'NONE',  ( 0.000000000000000000, 0.000000000000000000, 1.000000000000000000 ) ) ;
#463 = FACE_OUTER_BOUND ( 'NONE', #253, .T. ) ;
#464 = PLANE ( 'NONE',  #433 ) ;
#465 = CARTESIAN_POINT ( 'NONE',  ( 0.9971807391522776731, 0.07717652363796606574, -2.635823476362035844 ) ) ;
#466 = CARTESIAN_POINT ( 'NONE',  ( 0.9959563894067391399, -0.08690176242274909313, -2.799901762422749130 ) ) ;
#467 = CARTESIAN_POINT ( 'NONE',  ( 0.9975384582459768668, 0.07697644439475287426, -2.636023555605249147 ) ) ;
#468 = CARTESIAN_POINT ( 'NONE',  ( -0.9957767842720384177, 0.07758966997139726818, -2.635410330028604697 ) ) ;
#469 = AXIS2_PLACEMENT_3D ( 'NONE', #350, #106, #447 ) ;
#470 = AXIS2_PLACEMENT_3D ( 'NONE', #161, #121, #17 ) ;
#471 = EDGE_LOOP ( 'NONE', ( #215, #36, #178, #5, #450, #145, #194, #39 ) ) ;
#472 = CARTESIAN_POINT ( 'NONE',  ( 0.9979693847162174336, -0.08598665755357107199, -2.798986657553571344 ) ) ;
#473 = VERTEX_POINT ( 'NONE', #262 ) ;
#474 = DIRECTION ( 'NONE',  ( 0.000000000000000000, 0.000000000000000000, -1.000000000000000000 ) ) ;
#475 = PRODUCT_CONTEXT ( 'NONE', #258, 'mechanical' ) ;
#476 = CARTESIAN_POINT ( 'NONE',  ( -0.9973623449334918512, 0.08636871567441803399, 2.799368715674418251 ) ) ;
#477 = ORIENTED_EDGE ( 'NONE', *, *, #312, .T. ) ;
#478 = AXIS2_PLACEMENT_3D ( 'NONE', #125, #119, #122 ) ;
#479 = CIRCLE ( 'NONE', #223, 47.85087804878048701 ) ;
#480 = CARTESIAN_POINT ( 'NONE',  ( -0.9950000000000006617, 0.08699999999999999400, 2.799999999999999822 ) ) ;
#481 = ORIENTED_EDGE ( 'NONE', *, *, #84, .F. ) ;
#482 = APPLICATION_PROTOCOL_DEFINITION ( 'draft international standard', 'automotive_design', 1998, #258 ) ;
#483 = DIRECTION ( 'NONE',  ( -1.000000000000000000, 0.000000000000000000, 0.000000000000000000 ) ) ;
ENDSEC;
END-ISO-10303-21;
