ISO-10303-21;
HEADER;
FILE_DESCRIPTION (( 'STEP AP214' ),
    '1' );
FILE_NAME ('rr_dl_volume_current_design.STEP',
    '2026-06-12T17:20:26',
    ( '' ),
    ( '' ),
    'SwSTEP 2.0',
    'SolidWorks 2025',
    '' );
FILE_SCHEMA (( 'AUTOMOTIVE_DESIGN' ));
ENDSEC;

DATA;
#1 = PRODUCT ( 'rr_dl_volume_current_design', 'rr_dl_volume_current_design', '', ( #77 ) ) ;
#2 = ADVANCED_FACE ( 'NONE', ( #95 ), #85, .F. ) ;
#3 = CARTESIAN_POINT ( 'NONE',  ( 2.200000000000000622, 1.099999999999999423, -0.2420000000000001039 ) ) ;
#4 = UNCERTAINTY_MEASURE_WITH_UNIT (LENGTH_MEASURE( 1.000000000000000082E-05 ), #55, 'distance_accuracy_value', 'NONE');
#5 = PRODUCT_DEFINITION ( 'UNKNOWN', '', #28, #83 ) ;
#6 = CARTESIAN_POINT ( 'NONE',  ( 0.000000000000000000, -1.010333609296566377E-16, -0.2419999999999999929 ) ) ;
#7 =( NAMED_UNIT ( * ) SI_UNIT ( $, .STERADIAN. ) SOLID_ANGLE_UNIT ( ) );
#8 = PRESENTATION_LAYER_ASSIGNMENT (  '', '', ( #59 ) ) ;
#9 = SURFACE_STYLE_FILL_AREA ( #69 ) ;
#10 = CARTESIAN_POINT ( 'NONE',  ( 0.000000000000000000, -8.606145592508974596E-34, 0.2419999999999999929 ) ) ;
#11 = PRODUCT_DEFINITION_SHAPE ( 'NONE', 'NONE',  #5 ) ;
#12 = ORIENTED_EDGE ( 'NONE', *, *, #30, .T. ) ;
#13 =( LENGTH_UNIT ( ) NAMED_UNIT ( * ) SI_UNIT ( .MILLI., .METRE. ) );
#14 =( NAMED_UNIT ( * ) PLANE_ANGLE_UNIT ( ) SI_UNIT ( $, .RADIAN. ) );
#15 = DIRECTION ( 'NONE',  ( 1.000000000000000000, 0.000000000000000000, 0.000000000000000000 ) ) ;
#16 = CARTESIAN_POINT ( 'NONE',  ( -2.474603641392065053E-32, -1.010333609296566377E-16, -0.2419999999999999929 ) ) ;
#17 = CARTESIAN_POINT ( 'NONE',  ( 0.000000000000000000, 0.000000000000000000, -0.2419999999999999929 ) ) ;
#18 = CARTESIAN_POINT ( 'NONE',  ( -1.347111479062088257E-16, -1.099999999999999867, -0.2420000000000000484 ) ) ;
#19 = CARTESIAN_POINT ( 'NONE',  ( 0.000000000000000000, 0.000000000000000000, -0.2419999999999999929 ) ) ;
#20 = FACE_OUTER_BOUND ( 'NONE', #36, .T. ) ;
#21 =( NAMED_UNIT ( * ) SI_UNIT ( $, .STERADIAN. ) SOLID_ANGLE_UNIT ( ) );
#22 = CLOSED_SHELL ( 'NONE', ( #42, #2 ) ) ;
#23 = CARTESIAN_POINT ( 'NONE',  ( 2.694222958124176513E-16, 1.099999999999999867, 0.2420000000000000207 ) ) ;
#24 = VERTEX_POINT ( 'NONE', #17 ) ;
#25 = MANIFOLD_SOLID_BREP ( 'Revolve1', #22 ) ;
#26 = CARTESIAN_POINT ( 'NONE',  ( -4.124339402320108422E-33, -3.367778697655221258E-17, 0.2419999999999999929 ) ) ;
#27 = CARTESIAN_POINT ( 'NONE',  ( -1.347111479062088010E-16, -1.099999999999999867, -0.2420000000000001039 ) ) ;
#28 = PRODUCT_DEFINITION_FORMATION_WITH_SPECIFIED_SOURCE ( 'ANY', '', #1, .NOT_KNOWN. ) ;
#29 = CARTESIAN_POINT ( 'NONE',  ( -1.347111479062088257E-16, -1.099999999999999867, 0.2420000000000000207 ) ) ;
#30 = EDGE_CURVE ( 'NONE', #24, #84, #79, .T. ) ;
#31 = DIRECTION ( 'NONE',  ( 0.000000000000000000, 0.000000000000000000, 1.000000000000000000 ) ) ;
#32 = APPLICATION_CONTEXT ( 'automotive_design' ) ;
#33 = CARTESIAN_POINT ( 'NONE',  ( 2.694222958124176020E-16, 1.099999999999999867, -0.2420000000000000484 ) ) ;
#34 = EDGE_CURVE ( 'NONE', #24, #84, #97, .T. ) ;
#35 = ORIENTED_EDGE ( 'NONE', *, *, #34, .F. ) ;
#36 = EDGE_LOOP ( 'NONE', ( #74, #43 ) ) ;
#37 = CARTESIAN_POINT ( 'NONE',  ( 0.000000000000000000, -8.606145592508974596E-34, 0.2419999999999999929 ) ) ;
#38 = CARTESIAN_POINT ( 'NONE',  ( -2.199999999999999289, 1.100000000000000311, -0.2420000000000001039 ) ) ;
#39 = CARTESIAN_POINT ( 'NONE',  ( 2.020667218593132508E-16, 1.010333609296566131E-16, -0.2419999999999999651 ) ) ;
#40 = CARTESIAN_POINT ( 'NONE',  ( 0.000000000000000000, 3.367778697655221258E-17, 0.2419999999999999929 ) ) ;
#41 = CARTESIAN_POINT ( 'NONE',  ( -2.199999999999999289, -1.099999999999999645, -0.2420000000000001039 ) ) ;
#42 = ADVANCED_FACE ( 'NONE', ( #20 ), #87, .F. ) ;
#43 = ORIENTED_EDGE ( 'NONE', *, *, #34, .T. ) ;
#44 =( GEOMETRIC_REPRESENTATION_CONTEXT ( 3 ) GLOBAL_UNCERTAINTY_ASSIGNED_CONTEXT ( ( #4 ) ) GLOBAL_UNIT_ASSIGNED_CONTEXT ( ( #55, #14, #7 ) ) REPRESENTATION_CONTEXT ( 'NONE', 'WORKASPACE' ) );
#45 = CARTESIAN_POINT ( 'NONE',  ( 2.199999999999999289, -1.100000000000000311, -0.2420000000000001039 ) ) ;
#46 = CARTESIAN_POINT ( 'NONE',  ( 0.000000000000000000, 0.000000000000000000, -0.2419999999999999929 ) ) ;
#47 =( NAMED_UNIT ( * ) PLANE_ANGLE_UNIT ( ) SI_UNIT ( $, .RADIAN. ) );
#48 = CARTESIAN_POINT ( 'NONE',  ( 0.000000000000000000, 1.099999999999999867, 0.2420000000000000207 ) ) ;
#49 = SURFACE_STYLE_USAGE ( .BOTH. , #82 ) ;
#50 = CARTESIAN_POINT ( 'NONE',  ( 0.000000000000000000, 0.000000000000000000, 0.000000000000000000 ) ) ;
#51 = CARTESIAN_POINT ( 'NONE',  ( -1.347111479062088010E-16, -1.099999999999999867, -0.2420000000000000484 ) ) ;
#52 = CARTESIAN_POINT ( 'NONE',  ( 2.199999999999999289, -1.100000000000000311, 0.2419999999999999929 ) ) ;
#53 = AXIS2_PLACEMENT_3D ( 'NONE', #50, #31, #15 ) ;
#54 = ADVANCED_BREP_SHAPE_REPRESENTATION ( 'rr_dl_volume_current_design', ( #25, #53 ), #44 ) ;
#55 =( LENGTH_UNIT ( ) NAMED_UNIT ( * ) SI_UNIT ( .MILLI., .METRE. ) );
#56 = CARTESIAN_POINT ( 'NONE',  ( 2.020667218593132262E-16, -1.010333609296566501E-16, -0.2419999999999999651 ) ) ;
#57 = CARTESIAN_POINT ( 'NONE',  ( 1.237301820696032526E-32, 1.010333609296566377E-16, -0.2419999999999999929 ) ) ;
#58 = SHAPE_DEFINITION_REPRESENTATION ( #11, #54 ) ;
#59 = STYLED_ITEM ( 'NONE', ( #66 ), #25 ) ;
#60 = UNCERTAINTY_MEASURE_WITH_UNIT (LENGTH_MEASURE( 1.000000000000000082E-05 ), #13, 'distance_accuracy_value', 'NONE');
#61 = CARTESIAN_POINT ( 'NONE',  ( 1.237301820696032526E-32, 1.010333609296566377E-16, -0.2419999999999999929 ) ) ;
#62 = CARTESIAN_POINT ( 'NONE',  ( -4.124339402320108422E-33, -3.367778697655221258E-17, 0.2419999999999999929 ) ) ;
#63 = CARTESIAN_POINT ( 'NONE',  ( 2.200000000000000622, 1.099999999999999423, 0.2419999999999999929 ) ) ;
#64 = CARTESIAN_POINT ( 'NONE',  ( -2.199999999999999289, 1.100000000000000311, 0.2419999999999999929 ) ) ;
#65 = APPLICATION_CONTEXT ( 'automotive_design' ) ;
#66 = PRESENTATION_STYLE_ASSIGNMENT (( #49 ) ) ;
#67 = COLOUR_RGB ( '',0.7921568627450980005, 0.8196078431372548767, 0.9333333333333333481 ) ;
#68 = CARTESIAN_POINT ( 'NONE',  ( 0.000000000000000000, -8.606145592508974596E-34, 0.2419999999999999929 ) ) ;
#69 = FILL_AREA_STYLE ('',( #96 ) ) ;
#70 = CARTESIAN_POINT ( 'NONE',  ( 0.000000000000000000, 1.099999999999999867, -0.2420000000000000484 ) ) ;
#71 = APPLICATION_PROTOCOL_DEFINITION ( 'draft international standard', 'automotive_design', 1998, #65 ) ;
#72 = CARTESIAN_POINT ( 'NONE',  ( -2.020667218593132508E-16, -1.010333609296565884E-16, -0.2419999999999999651 ) ) ;
#73 = CARTESIAN_POINT ( 'NONE',  ( 6.735557395310441284E-17, -3.367778697655221874E-17, 0.2419999999999999651 ) ) ;
#74 = ORIENTED_EDGE ( 'NONE', *, *, #30, .F. ) ;
#75 = EDGE_LOOP ( 'NONE', ( #35, #12 ) ) ;
#76 = CARTESIAN_POINT ( 'NONE',  ( 0.000000000000000000, 1.099999999999999867, 0.2420000000000000207 ) ) ;
#77 = PRODUCT_CONTEXT ( 'NONE', #32, 'mechanical' ) ;
#78 =( GEOMETRIC_REPRESENTATION_CONTEXT ( 3 ) GLOBAL_UNCERTAINTY_ASSIGNED_CONTEXT ( ( #60 ) ) GLOBAL_UNIT_ASSIGNED_CONTEXT ( ( #13, #47, #21 ) ) REPRESENTATION_CONTEXT ( 'NONE', 'WORKASPACE' ) );
#79 =( BOUNDED_CURVE ( )  B_SPLINE_CURVE ( 3, ( #19, #86, #76, #10 ),
 .UNSPECIFIED., .F., .F. ) 
 B_SPLINE_CURVE_WITH_KNOTS ( ( 4, 4 ),
 ( 4.712388980384689674, 7.853981633974482790 ),
 .UNSPECIFIED. ) 
 CURVE ( )  GEOMETRIC_REPRESENTATION_ITEM ( )  RATIONAL_B_SPLINE_CURVE ( ( 1.000000000000000000, 0.3333333333333333703, 0.3333333333333333703, 1.000000000000000000 ) ) 
 REPRESENTATION_ITEM ( '' )  );
#80 = CARTESIAN_POINT ( 'NONE',  ( -1.347111479062088257E-16, -1.099999999999999867, 0.2420000000000000207 ) ) ;
#81 = CARTESIAN_POINT ( 'NONE',  ( -2.199999999999999289, -1.099999999999999645, 0.2419999999999999929 ) ) ;
#82 = SURFACE_SIDE_STYLE ('',( #9 ) ) ;
#83 = PRODUCT_DEFINITION_CONTEXT ( 'detailed design', #65, 'design' ) ;
#84 = VERTEX_POINT ( 'NONE', #68 ) ;
#85 =( BOUNDED_SURFACE ( )  B_SPLINE_SURFACE ( 3, 3, ( 
 ( #61, #89, #72, #16 ),
 ( #51, #45, #3, #33 ),
 ( #93, #52, #63, #23 ),
 ( #62, #73, #90, #94 ) ),
 .UNSPECIFIED., .F., .F., .F. ) 
 B_SPLINE_SURFACE_WITH_KNOTS ( ( 4, 4 ),
 ( 4, 4 ),
 ( 0.000000000000000000, 1.000000000000000000 ),
 ( 0.000000000000000000, 1.000000000000000000 ),
 .UNSPECIFIED. ) 
 GEOMETRIC_REPRESENTATION_ITEM ( )  RATIONAL_B_SPLINE_SURFACE ( (
 ( 1.000000000000000000, 0.3333333333333334259, 0.3333333333333334259, 1.000000000000000000),
 ( 0.3333333333333333703, 0.1111111111111111605, 0.1111111111111111605, 0.3333333333333333703),
 ( 0.3333333333333333703, 0.1111111111111111605, 0.1111111111111111605, 0.3333333333333333703),
 ( 1.000000000000000000, 0.3333333333333334259, 0.3333333333333334259, 1.000000000000000000) ) ) 
 REPRESENTATION_ITEM ( '' )  SURFACE ( )  );
#86 = CARTESIAN_POINT ( 'NONE',  ( 0.000000000000000000, 1.099999999999999867, -0.2420000000000001039 ) ) ;
#87 =( BOUNDED_SURFACE ( )  B_SPLINE_SURFACE ( 3, 3, ( 
 ( #6, #56, #39, #57 ),
 ( #70, #38, #41, #18 ),
 ( #48, #64, #81, #29 ),
 ( #40, #91, #99, #26 ) ),
 .UNSPECIFIED., .F., .F., .T. ) 
 B_SPLINE_SURFACE_WITH_KNOTS ( ( 4, 4 ),
 ( 4, 4 ),
 ( 0.000000000000000000, 1.000000000000000000 ),
 ( 0.000000000000000000, 1.000000000000000000 ),
 .UNSPECIFIED. ) 
 GEOMETRIC_REPRESENTATION_ITEM ( )  RATIONAL_B_SPLINE_SURFACE ( (
 ( 1.000000000000000000, 0.3333333333333334259, 0.3333333333333334259, 1.000000000000000000),
 ( 0.3333333333333333703, 0.1111111111111111605, 0.1111111111111111605, 0.3333333333333333703),
 ( 0.3333333333333333703, 0.1111111111111111605, 0.1111111111111111605, 0.3333333333333333703),
 ( 1.000000000000000000, 0.3333333333333334259, 0.3333333333333334259, 1.000000000000000000) ) ) 
 REPRESENTATION_ITEM ( '' )  SURFACE ( )  );
#88 = MECHANICAL_DESIGN_GEOMETRIC_PRESENTATION_REPRESENTATION (  '', ( #59 ), #78 ) ;
#89 = CARTESIAN_POINT ( 'NONE',  ( -2.020667218593132262E-16, 1.010333609296566624E-16, -0.2419999999999999651 ) ) ;
#90 = CARTESIAN_POINT ( 'NONE',  ( 6.735557395310442516E-17, 3.367778697655219409E-17, 0.2419999999999999651 ) ) ;
#91 = CARTESIAN_POINT ( 'NONE',  ( -6.735557395310441284E-17, 3.367778697655221258E-17, 0.2419999999999999651 ) ) ;
#92 = PRODUCT_RELATED_PRODUCT_CATEGORY ( 'part', '', ( #1 ) ) ;
#93 = CARTESIAN_POINT ( 'NONE',  ( -1.347111479062088257E-16, -1.099999999999999867, 0.2420000000000000207 ) ) ;
#94 = CARTESIAN_POINT ( 'NONE',  ( 8.248678804640216843E-33, 3.367778697655221258E-17, 0.2419999999999999929 ) ) ;
#95 = FACE_OUTER_BOUND ( 'NONE', #75, .T. ) ;
#96 = FILL_AREA_STYLE_COLOUR ( '', #67 ) ;
#97 =( BOUNDED_CURVE ( )  B_SPLINE_CURVE ( 3, ( #46, #27, #80, #37 ),
 .UNSPECIFIED., .F., .F. ) 
 B_SPLINE_CURVE_WITH_KNOTS ( ( 4, 4 ),
 ( 4.712388980384689674, 7.853981633974482790 ),
 .UNSPECIFIED. ) 
 CURVE ( )  GEOMETRIC_REPRESENTATION_ITEM ( )  RATIONAL_B_SPLINE_CURVE ( ( 1.000000000000000000, 0.3333333333333333703, 0.3333333333333333703, 1.000000000000000000 ) ) 
 REPRESENTATION_ITEM ( '' )  );
#98 = APPLICATION_PROTOCOL_DEFINITION ( 'draft international standard', 'automotive_design', 1998, #32 ) ;
#99 = CARTESIAN_POINT ( 'NONE',  ( -6.735557395310441284E-17, -3.367778697655220642E-17, 0.2419999999999999651 ) ) ;
ENDSEC;
END-ISO-10303-21;
