ISO-10303-21;
HEADER;
FILE_DESCRIPTION (( 'STEP AP214' ),
    '1' );
FILE_NAME ('rr_dl_volume_improved_design.STEP',
    '2026-06-12T17:38:21',
    ( '' ),
    ( '' ),
    'SwSTEP 2.0',
    'SolidWorks 2025',
    '' );
FILE_SCHEMA (( 'AUTOMOTIVE_DESIGN' ));
ENDSEC;

DATA;
#1 = ADVANCED_FACE ( 'NONE', ( #18 ), #35, .F. ) ;
#2 = CARTESIAN_POINT ( 'NONE',  ( 7.654042494670956620E-17, -3.827021247335479543E-17, 0.2419999999999999651 ) ) ;
#3 = PRESENTATION_STYLE_ASSIGNMENT (( #39 ) ) ;
#4 = APPLICATION_CONTEXT ( 'automotive_design' ) ;
#5 = STYLED_ITEM ( 'NONE', ( #3 ), #97 ) ;
#6 = PRODUCT_DEFINITION_CONTEXT ( 'detailed design', #4, 'design' ) ;
#7 = DIRECTION ( 'NONE',  ( 0.000000000000000000, 0.000000000000000000, 1.000000000000000000 ) ) ;
#8 = PRODUCT_DEFINITION_FORMATION_WITH_SPECIFIED_SOURCE ( 'ANY', '', #70, .NOT_KNOWN. ) ;
#9 =( BOUNDED_CURVE ( )  B_SPLINE_CURVE ( 3, ( #45, #21, #54, #83 ),
 .UNSPECIFIED., .F., .T. ) 
 B_SPLINE_CURVE_WITH_KNOTS ( ( 4, 4 ),
 ( 4.712388980384689674, 7.853981633974482790 ),
 .UNSPECIFIED. ) 
 CURVE ( )  GEOMETRIC_REPRESENTATION_ITEM ( )  RATIONAL_B_SPLINE_CURVE ( ( 1.000000000000000000, 0.3333333333333333703, 0.3333333333333333703, 1.000000000000000000 ) ) 
 REPRESENTATION_ITEM ( '' )  );
#10 =( GEOMETRIC_REPRESENTATION_CONTEXT ( 3 ) GLOBAL_UNCERTAINTY_ASSIGNED_CONTEXT ( ( #42 ) ) GLOBAL_UNIT_ASSIGNED_CONTEXT ( ( #69, #32, #38 ) ) REPRESENTATION_CONTEXT ( 'NONE', 'WORKASPACE' ) );
#11 = CARTESIAN_POINT ( 'NONE',  ( -2.499999999999999556, 1.249999999999999778, -0.2420000000000001039 ) ) ;
#12 = CARTESIAN_POINT ( 'NONE',  ( -4.686749320818305024E-33, -3.827021247335478926E-17, 0.2419999999999999929 ) ) ;
#13 = CARTESIAN_POINT ( 'NONE',  ( 2.499999999999999556, 1.249999999999999112, -0.2420000000000001039 ) ) ;
#14 =( LENGTH_UNIT ( ) NAMED_UNIT ( * ) SI_UNIT ( .MILLI., .METRE. ) );
#15 = FILL_AREA_STYLE_COLOUR ( '', #62 ) ;
#16 = CARTESIAN_POINT ( 'NONE',  ( 0.000000000000000000, 0.000000000000000000, 0.000000000000000000 ) ) ;
#17 = MECHANICAL_DESIGN_GEOMETRIC_PRESENTATION_REPRESENTATION (  '', ( #5 ), #10 ) ;
#18 = FACE_OUTER_BOUND ( 'NONE', #57, .T. ) ;
#19 = CARTESIAN_POINT ( 'NONE',  ( -2.499999999999999556, -1.249999999999999778, 0.2419999999999999929 ) ) ;
#20 = CARTESIAN_POINT ( 'NONE',  ( -1.530808498934191324E-16, -1.249999999999999778, 0.2420000000000000207 ) ) ;
#21 = CARTESIAN_POINT ( 'NONE',  ( 0.000000000000000000, 1.249999999999999556, -0.2420000000000001039 ) ) ;
#22 = PRODUCT_DEFINITION_SHAPE ( 'NONE', 'NONE',  #90 ) ;
#23 = CARTESIAN_POINT ( 'NONE',  ( 0.000000000000000000, 0.000000000000000000, -0.2419999999999999929 ) ) ;
#24 = DIRECTION ( 'NONE',  ( 1.000000000000000000, 0.000000000000000000, 0.000000000000000000 ) ) ;
#25 = APPLICATION_CONTEXT ( 'automotive_design' ) ;
#26 = ADVANCED_FACE ( 'NONE', ( #46 ), #88, .F. ) ;
#27 = CARTESIAN_POINT ( 'NONE',  ( 2.296212748401286493E-16, 1.148106374200643247E-16, -0.2419999999999999651 ) ) ;
#28 = PRODUCT_RELATED_PRODUCT_CATEGORY ( 'part', '', ( #70 ) ) ;
#29 = VERTEX_POINT ( 'NONE', #59 ) ;
#30 = CARTESIAN_POINT ( 'NONE',  ( -4.686749320818305024E-33, -3.827021247335478926E-17, 0.2419999999999999929 ) ) ;
#31 = CARTESIAN_POINT ( 'NONE',  ( -2.296212748401286986E-16, -1.148106374200643000E-16, -0.2419999999999999651 ) ) ;
#32 =( NAMED_UNIT ( * ) PLANE_ANGLE_UNIT ( ) SI_UNIT ( $, .RADIAN. ) );
#33 = CARTESIAN_POINT ( 'NONE',  ( -1.530808498934191078E-16, -1.249999999999999556, -0.2420000000000000484 ) ) ;
#34 = APPLICATION_PROTOCOL_DEFINITION ( 'draft international standard', 'automotive_design', 1998, #4 ) ;
#35 =( BOUNDED_SURFACE ( )  B_SPLINE_SURFACE ( 3, 3, ( 
 ( #91, #98, #27, #99 ),
 ( #56, #11, #68, #40 ),
 ( #94, #52, #19, #20 ),
 ( #50, #41, #58, #30 ) ),
 .UNSPECIFIED., .F., .F., .F. ) 
 B_SPLINE_SURFACE_WITH_KNOTS ( ( 4, 4 ),
 ( 4, 4 ),
 ( 0.000000000000000000, 1.000000000000000000 ),
 ( 0.000000000000000000, 1.000000000000000000 ),
 .UNSPECIFIED. ) 
 GEOMETRIC_REPRESENTATION_ITEM ( )  RATIONAL_B_SPLINE_SURFACE ( (
 ( 1.000000000000000000, 0.3333333333333334259, 0.3333333333333334259, 1.000000000000000000),
 ( 0.3333333333333333703, 0.1111111111111111605, 0.1111111111111111605, 0.3333333333333333703),
 ( 0.3333333333333333703, 0.1111111111111111605, 0.1111111111111111605, 0.3333333333333333703),
 ( 1.000000000000000000, 0.3333333333333334259, 0.3333333333333334259, 1.000000000000000000) ) ) 
 REPRESENTATION_ITEM ( '' )  SURFACE ( )  );
#36 = EDGE_LOOP ( 'NONE', ( #81, #74 ) ) ;
#37 = CLOSED_SHELL ( 'NONE', ( #1, #26 ) ) ;
#38 =( NAMED_UNIT ( * ) SI_UNIT ( $, .STERADIAN. ) SOLID_ANGLE_UNIT ( ) );
#39 = SURFACE_STYLE_USAGE ( .BOTH. , #72 ) ;
#40 = CARTESIAN_POINT ( 'NONE',  ( -1.530808498934191078E-16, -1.249999999999999556, -0.2420000000000000484 ) ) ;
#41 = CARTESIAN_POINT ( 'NONE',  ( -7.654042494670956620E-17, 3.827021247335478926E-17, 0.2419999999999999651 ) ) ;
#42 = UNCERTAINTY_MEASURE_WITH_UNIT (LENGTH_MEASURE( 1.000000000000000082E-05 ), #69, 'distance_accuracy_value', 'NONE');
#43 = PRESENTATION_LAYER_ASSIGNMENT (  '', '', ( #5 ) ) ;
#44 =( BOUNDED_CURVE ( )  B_SPLINE_CURVE ( 3, ( #23, #77, #86, #65 ),
 .UNSPECIFIED., .F., .T. ) 
 B_SPLINE_CURVE_WITH_KNOTS ( ( 4, 4 ),
 ( 4.712388980384689674, 7.853981633974482790 ),
 .UNSPECIFIED. ) 
 CURVE ( )  GEOMETRIC_REPRESENTATION_ITEM ( )  RATIONAL_B_SPLINE_CURVE ( ( 1.000000000000000000, 0.3333333333333333703, 0.3333333333333333703, 1.000000000000000000 ) ) 
 REPRESENTATION_ITEM ( '' )  );
#45 = CARTESIAN_POINT ( 'NONE',  ( 0.000000000000000000, 0.000000000000000000, -0.2419999999999999929 ) ) ;
#46 = FACE_OUTER_BOUND ( 'NONE', #36, .T. ) ;
#47 = CARTESIAN_POINT ( 'NONE',  ( 2.499999999999999556, -1.250000000000000000, 0.2419999999999999929 ) ) ;
#48 = CARTESIAN_POINT ( 'NONE',  ( -2.812049592490982741E-32, -1.148106374200643493E-16, -0.2419999999999999929 ) ) ;
#49 = SHAPE_DEFINITION_REPRESENTATION ( #22, #79 ) ;
#50 = CARTESIAN_POINT ( 'NONE',  ( 0.000000000000000000, 3.827021247335478926E-17, 0.2419999999999999929 ) ) ;
#51 = CARTESIAN_POINT ( 'NONE',  ( 2.499999999999999556, -1.249999999999999778, -0.2420000000000001039 ) ) ;
#52 = CARTESIAN_POINT ( 'NONE',  ( -2.499999999999999556, 1.249999999999999778, 0.2419999999999999929 ) ) ;
#53 = AXIS2_PLACEMENT_3D ( 'NONE', #16, #7, #24 ) ;
#54 = CARTESIAN_POINT ( 'NONE',  ( 0.000000000000000000, 1.249999999999999778, 0.2420000000000000207 ) ) ;
#55 = ORIENTED_EDGE ( 'NONE', *, *, #75, .F. ) ;
#56 = CARTESIAN_POINT ( 'NONE',  ( 0.000000000000000000, 1.249999999999999556, -0.2420000000000000484 ) ) ;
#57 = EDGE_LOOP ( 'NONE', ( #55, #63 ) ) ;
#58 = CARTESIAN_POINT ( 'NONE',  ( -7.654042494670956620E-17, -3.827021247335477694E-17, 0.2419999999999999651 ) ) ;
#59 = CARTESIAN_POINT ( 'NONE',  ( 0.000000000000000000, -8.606145592508974596E-34, 0.2419999999999999929 ) ) ;
#60 = UNCERTAINTY_MEASURE_WITH_UNIT (LENGTH_MEASURE( 1.000000000000000082E-05 ), #14, 'distance_accuracy_value', 'NONE');
#61 =( NAMED_UNIT ( * ) PLANE_ANGLE_UNIT ( ) SI_UNIT ( $, .RADIAN. ) );
#62 = COLOUR_RGB ( '',0.7921568627450980005, 0.8196078431372548767, 0.9333333333333333481 ) ;
#63 = ORIENTED_EDGE ( 'NONE', *, *, #64, .T. ) ;
#64 = EDGE_CURVE ( 'NONE', #93, #29, #44, .T. ) ;
#65 = CARTESIAN_POINT ( 'NONE',  ( 0.000000000000000000, -8.606145592508974596E-34, 0.2419999999999999929 ) ) ;
#66 = CARTESIAN_POINT ( 'NONE',  ( 7.654042494670957853E-17, 3.827021247335477078E-17, 0.2419999999999999651 ) ) ;
#67 = CARTESIAN_POINT ( 'NONE',  ( -2.296212748401286493E-16, 1.148106374200643740E-16, -0.2419999999999999651 ) ) ;
#68 = CARTESIAN_POINT ( 'NONE',  ( -2.499999999999999556, -1.249999999999999778, -0.2420000000000001039 ) ) ;
#69 =( LENGTH_UNIT ( ) NAMED_UNIT ( * ) SI_UNIT ( .MILLI., .METRE. ) );
#70 = PRODUCT ( 'rr_dl_volume_improved_design', 'rr_dl_volume_improved_design', '', ( #87 ) ) ;
#71 = CARTESIAN_POINT ( 'NONE',  ( 3.061616997868382648E-16, 1.249999999999999778, 0.2420000000000000207 ) ) ;
#72 = SURFACE_SIDE_STYLE ('',( #95 ) ) ;
#73 =( NAMED_UNIT ( * ) SI_UNIT ( $, .STERADIAN. ) SOLID_ANGLE_UNIT ( ) );
#74 = ORIENTED_EDGE ( 'NONE', *, *, #75, .T. ) ;
#75 = EDGE_CURVE ( 'NONE', #93, #29, #9, .T. ) ;
#76 = CARTESIAN_POINT ( 'NONE',  ( -1.530808498934191324E-16, -1.249999999999999778, 0.2420000000000000207 ) ) ;
#77 = CARTESIAN_POINT ( 'NONE',  ( -1.530808498934191078E-16, -1.249999999999999556, -0.2420000000000001039 ) ) ;
#78 = CARTESIAN_POINT ( 'NONE',  ( 3.061616997868382155E-16, 1.249999999999999556, -0.2420000000000000484 ) ) ;
#79 = ADVANCED_BREP_SHAPE_REPRESENTATION ( 'rr_dl_volume_improved_design', ( #97, #53 ), #92 ) ;
#80 = CARTESIAN_POINT ( 'NONE',  ( 0.000000000000000000, 0.000000000000000000, -0.2419999999999999929 ) ) ;
#81 = ORIENTED_EDGE ( 'NONE', *, *, #64, .F. ) ;
#82 = CARTESIAN_POINT ( 'NONE',  ( 2.499999999999999556, 1.249999999999999334, 0.2419999999999999929 ) ) ;
#83 = CARTESIAN_POINT ( 'NONE',  ( 0.000000000000000000, -8.606145592508974596E-34, 0.2419999999999999929 ) ) ;
#84 = CARTESIAN_POINT ( 'NONE',  ( 9.373498641636610049E-33, 3.827021247335478926E-17, 0.2419999999999999929 ) ) ;
#85 = FILL_AREA_STYLE ('',( #15 ) ) ;
#86 = CARTESIAN_POINT ( 'NONE',  ( -1.530808498934191324E-16, -1.249999999999999778, 0.2420000000000000207 ) ) ;
#87 = PRODUCT_CONTEXT ( 'NONE', #25, 'mechanical' ) ;
#88 =( BOUNDED_SURFACE ( )  B_SPLINE_SURFACE ( 3, 3, ( 
 ( #96, #67, #31, #48 ),
 ( #33, #51, #13, #78 ),
 ( #76, #47, #82, #71 ),
 ( #12, #2, #66, #84 ) ),
 .UNSPECIFIED., .F., .F., .F. ) 
 B_SPLINE_SURFACE_WITH_KNOTS ( ( 4, 4 ),
 ( 4, 4 ),
 ( 0.000000000000000000, 1.000000000000000000 ),
 ( 0.000000000000000000, 1.000000000000000000 ),
 .UNSPECIFIED. ) 
 GEOMETRIC_REPRESENTATION_ITEM ( )  RATIONAL_B_SPLINE_SURFACE ( (
 ( 1.000000000000000000, 0.3333333333333334259, 0.3333333333333334259, 1.000000000000000000),
 ( 0.3333333333333333703, 0.1111111111111111605, 0.1111111111111111605, 0.3333333333333333703),
 ( 0.3333333333333333703, 0.1111111111111111605, 0.1111111111111111605, 0.3333333333333333703),
 ( 1.000000000000000000, 0.3333333333333334259, 0.3333333333333334259, 1.000000000000000000) ) ) 
 REPRESENTATION_ITEM ( '' )  SURFACE ( )  );
#89 = APPLICATION_PROTOCOL_DEFINITION ( 'draft international standard', 'automotive_design', 1998, #25 ) ;
#90 = PRODUCT_DEFINITION ( 'UNKNOWN', '', #8, #6 ) ;
#91 = CARTESIAN_POINT ( 'NONE',  ( 0.000000000000000000, -1.148106374200643493E-16, -0.2419999999999999929 ) ) ;
#92 =( GEOMETRIC_REPRESENTATION_CONTEXT ( 3 ) GLOBAL_UNCERTAINTY_ASSIGNED_CONTEXT ( ( #60 ) ) GLOBAL_UNIT_ASSIGNED_CONTEXT ( ( #14, #61, #73 ) ) REPRESENTATION_CONTEXT ( 'NONE', 'WORKASPACE' ) );
#93 = VERTEX_POINT ( 'NONE', #80 ) ;
#94 = CARTESIAN_POINT ( 'NONE',  ( 0.000000000000000000, 1.249999999999999778, 0.2420000000000000207 ) ) ;
#95 = SURFACE_STYLE_FILL_AREA ( #85 ) ;
#96 = CARTESIAN_POINT ( 'NONE',  ( 1.406024796245491371E-32, 1.148106374200643493E-16, -0.2419999999999999929 ) ) ;
#97 = MANIFOLD_SOLID_BREP ( 'Revolve1', #37 ) ;
#98 = CARTESIAN_POINT ( 'NONE',  ( 2.296212748401286493E-16, -1.148106374200643493E-16, -0.2419999999999999651 ) ) ;
#99 = CARTESIAN_POINT ( 'NONE',  ( 1.406024796245491371E-32, 1.148106374200643493E-16, -0.2419999999999999929 ) ) ;
ENDSEC;
END-ISO-10303-21;
